<svg width="192" height="86" viewBox="0 0 192 86" fill="none" xmlns="http://www.w3.org/2000/svg">
<path d="M8.28711 43.2461H0.492188V30.2461H2.54883C3.58984 27.4785 4.09766 23.6445 4.12305 18.7949C4.12305 16.6367 4.04688 14.6055 3.86914 12.7012C3.69141 10.7969 3.51367 9.45117 3.33594 8.61328L3.08203 7.36914V0.589844H21.541V30.2461H23.877V43.2461H16.082V37H8.28711V43.2461ZM10.6738 29.002L10.3691 30.2461H13.7461V7.36914H10.877C11.4102 10.1367 11.6641 13.9453 11.6641 18.7949C11.6641 20.9531 11.5625 22.959 11.334 24.8633C11.1055 26.7676 10.877 28.1641 10.6738 29.002Z" fill="black"/>
<path d="M33.2969 31.3125C33.6777 31.9473 34.4141 31.9473 34.7949 31.3125C34.9727 31.0078 35.1758 30.1445 35.3535 28.7227C35.5312 27.3008 35.6074 25.2949 35.6074 22.6797C35.6074 20.0898 35.5312 18.084 35.3535 16.6621C35.1758 15.2402 34.9727 14.377 34.7949 14.0469C34.4141 13.4375 33.6777 13.4375 33.2969 14.0469C33.0938 14.377 32.916 15.2402 32.7383 16.6621C32.5605 18.084 32.4844 20.0898 32.4844 22.6797C32.4844 25.2949 32.5605 27.3008 32.7383 28.7227C32.916 30.1445 33.0938 31.0078 33.2969 31.3125ZM32.4844 46.3691H25.1973V8.41016H32.4844V8.91797L30.6562 14.6309H31.4434C31.5195 14.3008 31.5449 13.8184 32.1797 12.2695C32.4844 11.4824 32.8145 10.7969 33.1953 10.2129C33.9062 9.01953 35.3789 7.87695 36.9023 7.87695C38.6035 7.87695 40.1016 9.07031 41.4219 11.457C42.7422 13.8691 43.4023 17.6016 43.4023 22.7051C43.4023 27.8086 42.7422 31.541 41.4219 33.9277C40.1016 36.3145 38.6035 37.5078 36.9023 37.5078C35.6582 37.5078 34.5664 36.9492 33.6777 35.8066C32.7891 34.6895 32.1797 33.5723 31.9004 32.4297L31.4434 30.7539H30.6562L32.4844 37.5078V46.3691Z" fill="black"/>
<path d="M55.8691 28.1641V27.123H62.3691C62.5469 27.6562 62.623 28.3418 62.623 29.2051C62.623 31.6172 61.8867 33.623 60.3887 35.1719C58.8906 36.7207 57.0371 37.5078 54.8281 37.5078C51.9082 37.5078 49.5469 36.2891 47.7188 33.8262C45.8652 31.3633 44.9512 27.6562 44.9512 22.7051C44.9512 17.7539 45.8652 14.0215 47.7188 11.5586C49.5469 9.0957 51.9082 7.87695 54.8281 7.87695C57.291 7.87695 59.2969 8.8418 60.8457 10.7715C62.3945 12.7266 63.1562 15.5703 63.1562 19.3281C63.1562 21.6387 62.8516 23.6191 62.5723 24.3047L62.3691 24.7871H52.7461C52.8223 29.6367 53.4316 32.0742 54.5742 32.0488C55.4375 32.0742 55.8691 30.7793 55.8691 28.1641ZM52.7461 20.623H55.8691V19.3281C55.8691 15.3418 55.4375 13.3359 54.5742 13.3359C54.2695 13.3359 54.0156 13.4629 53.8125 13.7422C53.584 14.0215 53.3809 14.7324 53.1777 15.8496C52.9492 16.9922 52.8223 18.5664 52.7461 20.623Z" fill="black"/>
<path d="M75.623 27.123V25.2949H82.123C82.4531 25.9805 82.6309 27.123 82.6309 28.6719C82.6309 31.3887 81.8945 33.5215 80.3965 35.1211C78.8984 36.7207 76.9688 37.5078 74.582 37.5078C71.6621 37.5078 69.3008 36.2891 67.4727 33.8262C65.6191 31.3633 64.7051 27.6562 64.7051 22.7051C64.7051 17.7539 65.6191 14.0215 67.4727 11.5586C69.3008 9.0957 71.6621 7.87695 74.582 7.87695C76.9688 7.87695 78.8984 8.66406 80.3965 10.2637C81.8945 11.8633 82.6309 14.0215 82.6309 16.7129C82.6309 18.1094 82.4277 19.3281 82.2246 19.7344L82.123 20.0898H75.623V18.2871C75.623 14.9863 75.1914 13.3359 74.3281 13.3359C73.1094 13.3359 72.5 16.459 72.5 22.6797C72.5 28.9258 73.1094 32.0488 74.3281 32.0488C75.1914 32.0742 75.623 30.4238 75.623 27.123Z" fill="black"/>
<path d="M95.123 27.123V25.2949H101.623C101.953 25.9805 102.131 27.123 102.131 28.6719C102.131 31.3887 101.395 33.5215 99.8965 35.1211C98.3984 36.7207 96.4688 37.5078 94.082 37.5078C91.1621 37.5078 88.8008 36.2891 86.9727 33.8262C85.1191 31.3633 84.2051 27.6562 84.2051 22.7051C84.2051 17.7539 85.1191 14.0215 86.9727 11.5586C88.8008 9.0957 91.1621 7.87695 94.082 7.87695C96.4688 7.87695 98.3984 8.66406 99.8965 10.2637C101.395 11.8633 102.131 14.0215 102.131 16.7129C102.131 18.1094 101.928 19.3281 101.725 19.7344L101.623 20.0898H95.123V18.2871C95.123 14.9863 94.6914 13.3359 93.8281 13.3359C92.6094 13.3359 92 16.459 92 22.6797C92 28.9258 92.6094 32.0488 93.8281 32.0488C94.6914 32.0742 95.123 30.4238 95.123 27.123Z" fill="black"/>
<path d="M120.869 25.5488H104.467V18.7949H120.869V25.5488Z" fill="black"/>
<path d="M131 37H123.713V8.41016H131V19.8359H132.828V8.41016H140.09L137.754 19.8359L140.877 37H133.336L132.041 25.5488H131V37Z" fill="black"/>
<path d="M157.229 33.8008C155.426 36.2637 153.217 37.5078 150.551 37.5078C147.885 37.5078 145.65 36.2637 143.873 33.8008C142.07 31.3379 141.182 27.6309 141.182 22.7051C141.182 17.7793 142.07 14.0723 143.873 11.584C145.65 9.12109 147.885 7.87695 150.551 7.87695C153.217 7.87695 155.426 9.12109 157.229 11.584C159.006 14.0723 159.895 17.7793 159.895 22.7051C159.895 27.6309 159.006 31.3379 157.229 33.8008ZM151.846 28.875C152.023 27.4277 152.1 25.3457 152.1 22.6797C152.1 20.0137 152.023 17.957 151.846 16.5098C151.668 15.0625 151.465 14.1484 151.287 13.8184C150.906 13.1582 150.17 13.1582 149.789 13.8184C149.586 14.1484 149.408 15.0625 149.23 16.5098C149.053 17.957 148.977 20.0137 148.977 22.6797C148.977 25.3457 149.053 27.4277 149.23 28.875C149.408 30.3477 149.586 31.2363 149.789 31.5664C150.17 32.2012 150.906 32.2012 151.287 31.5664C151.465 31.2363 151.668 30.3477 151.846 28.875Z" fill="black"/>
<path d="M167.156 43.2461H159.895V31.0078H162.738C163.602 29.1035 164.033 26.0566 164.059 21.918C164.059 20.3945 163.982 18.9473 163.805 17.6016C163.627 16.2559 163.449 15.291 163.271 14.7324L163.018 13.8691V8.41016H179.902V31.0078H183.025V43.2461H175.738V37H167.156V43.2461ZM169.822 30.1445L169.518 31.0078H172.641V14.377H170.025C170.559 16.459 170.812 18.9727 170.812 21.918C170.812 23.7715 170.711 25.4473 170.482 26.9707C170.254 28.4941 170.025 29.5605 169.822 30.1445Z" fill="black"/>
<path d="M190.795 36.5938C190.059 37.3809 189.145 37.7871 188.002 37.7871C186.859 37.7871 185.92 37.3809 185.184 36.5938C184.447 35.8066 184.092 34.8164 184.092 33.623C184.092 32.3789 184.473 31.3633 185.234 30.6016C185.996 29.8398 186.91 29.459 188.002 29.459C189.068 29.459 189.982 29.8398 190.744 30.6016C191.506 31.3633 191.887 32.3789 191.887 33.623C191.887 34.8164 191.531 35.8066 190.795 36.5938ZM190.795 14.7578C190.059 15.5449 189.145 15.9512 188.002 15.9512C186.859 15.9512 185.92 15.5449 185.184 14.7324C184.447 13.9453 184.092 12.9551 184.092 11.7871C184.092 10.543 184.473 9.52734 185.234 8.76562C185.996 8.00391 186.91 7.62305 188.002 7.62305C189.068 7.62305 189.982 8.00391 190.744 8.76562C191.506 9.52734 191.887 10.543 191.887 11.7871C191.887 12.9805 191.531 13.9707 190.795 14.7578Z" fill="black"/>
<mask id="path-2-outside-1_145_2" maskUnits="userSpaceOnUse" x="0.253906" y="44.7871" width="192" height="41" fill="black">
<rect fill="white" x="0.253906" y="44.7871" width="192" height="41"/>
<path d="M14.7871 84H6.99219V54.3691H1.25391V47.5898H20.5V54.3691H14.7871V84Z"/>
<path d="M34.998 80.8008C33.1953 83.2637 30.9863 84.5078 28.3203 84.5078C25.6543 84.5078 23.4199 83.2637 21.6426 80.8008C19.8398 78.3379 18.9512 74.6309 18.9512 69.7051C18.9512 64.7793 19.8398 61.0723 21.6426 58.584C23.4199 56.1211 25.6543 54.877 28.3203 54.877C30.9863 54.877 33.1953 56.1211 34.998 58.584C36.7754 61.0723 37.6641 64.7793 37.6641 69.7051C37.6641 74.6309 36.7754 78.3379 34.998 80.8008ZM29.6152 75.875C29.793 74.4277 29.8691 72.3457 29.8691 69.6797C29.8691 67.0137 29.793 64.957 29.6152 63.5098C29.4375 62.0625 29.2344 61.1484 29.0566 60.8184C28.6758 60.1582 27.9395 60.1582 27.5586 60.8184C27.3555 61.1484 27.1777 62.0625 27 63.5098C26.8223 64.957 26.7461 67.0137 26.7461 69.6797C26.7461 72.3457 26.8223 74.4277 27 75.875C27.1777 77.3477 27.3555 78.2363 27.5586 78.5664C27.9395 79.2012 28.6758 79.2012 29.0566 78.5664C29.2344 78.2363 29.4375 77.3477 29.6152 75.875Z"/>
<path d="M41.2949 75.418V61.123H38.6797V55.4102H41.2949L44.6719 49.6719H48.5566V55.4102H56.0977V61.123H48.5566V75.6719C48.5566 77.9316 48.8613 79.0488 49.4453 79.0488C49.9023 79.0488 50.1309 78.6172 50.1309 77.7539C50.1309 76.9922 50.0039 76.2051 49.75 75.3672C49.4707 74.5293 49.2168 73.9199 48.9375 73.4883L48.5566 72.8281H55.0566C56.0977 73.8691 56.6055 75.418 56.6309 77.5C56.6309 79.5059 55.9707 81.1816 54.6758 82.502C53.3809 83.8477 51.6035 84.5078 49.3438 84.5078C43.9863 84.5078 41.2949 81.4863 41.2949 75.418Z"/>
<path d="M64.7051 75.9258C64.7051 78.0078 65.1367 79.0488 66.0254 79.0488C66.8887 79.0488 67.3203 78.0078 67.3203 75.9258C67.3203 73.8691 66.8887 72.8281 66.0254 72.8281C65.1367 72.8281 64.7051 73.8691 64.7051 75.9258ZM76.4102 84H67.8281L69.6562 77.7539H68.8691C68.793 78.084 68.7676 78.541 68.209 80.1152C67.9297 80.9023 67.5996 81.5879 67.2441 82.1719C66.5078 83.3398 65.0605 84.5078 63.4102 84.5078C61.7598 84.5078 60.3379 83.7461 59.1699 82.248C58.002 80.75 57.418 78.6426 57.418 75.9258C57.418 73.2344 58.002 71.127 59.1699 69.6289C60.3379 68.1309 61.7598 67.3691 63.4102 67.3691C64.7305 67.3691 65.8477 67.9277 66.7363 69.0449C67.625 70.1875 68.209 71.3047 68.4629 72.4473L68.8691 74.123H69.6562L67.8281 67.3691V63.459C67.8281 61.377 67.4219 60.3359 66.6348 60.3359C65.873 60.3359 65.4922 61.377 65.4922 63.459V65.2871H58.9922C58.6621 64.6016 58.4844 63.5605 58.459 62.1641C58.459 60.1836 59.2461 58.4824 60.7949 57.0352C62.3438 55.5879 64.248 54.877 66.5332 54.877C72.2461 54.877 75.1152 58.3555 75.1152 65.2871V80.877C75.1152 82.4004 75.623 83.2891 76.0547 83.3652L76.4102 83.4922V84Z"/>
<path d="M84.9922 84H77.7051V47.5898H84.9922V84Z"/>
<path d="M106.6 84H97.2305L95.6816 47.5898H103.73L102.689 76.7129H103.477L106.346 57.2129H111.551L114.395 76.7129H115.182L114.141 47.5898H122.189L120.641 84H111.271L109.189 68.6641H108.682L106.6 84Z"/>
<path d="M131.812 84H124.525V47.5898H131.812V55.918L130.238 61.6309H131.025C131.152 61.3008 131.33 60.8184 132.244 59.2695C132.676 58.4824 133.158 57.7969 133.641 57.2129C134.605 56.0195 136.256 54.877 137.779 54.877C140.09 54.877 141.689 56.959 141.689 61.123V84H134.402V62.6719C134.402 61.6309 134.148 61.123 133.641 61.123C133.031 61.123 132.346 62.1895 132.066 63.1035L131.812 63.7129V84Z"/>
<path d="M151.566 84H144.279V55.4102H151.566V84ZM144.711 52.4902C143.898 51.7539 143.492 50.8145 143.492 49.6719C143.492 48.5293 143.898 47.6152 144.711 46.8789C145.498 46.1426 146.59 45.7871 147.936 45.7871C149.281 45.7871 150.348 46.1426 151.16 46.8789C151.947 47.6152 152.354 48.5293 152.354 49.6719C152.354 50.8145 151.947 51.7539 151.16 52.4902C150.348 53.2266 149.281 53.582 147.936 53.582C146.59 53.582 145.498 53.2266 144.711 52.4902Z"/>
<path d="M155.756 75.418V61.123H153.141V55.4102H155.756L159.133 49.6719H163.018V55.4102H170.559V61.123H163.018V75.6719C163.018 77.9316 163.322 79.0488 163.906 79.0488C164.363 79.0488 164.592 78.6172 164.592 77.7539C164.592 76.9922 164.465 76.2051 164.211 75.3672C163.932 74.5293 163.678 73.9199 163.398 73.4883L163.018 72.8281H169.518C170.559 73.8691 171.066 75.418 171.092 77.5C171.092 79.5059 170.432 81.1816 169.137 82.502C167.842 83.8477 166.064 84.5078 163.805 84.5078C158.447 84.5078 155.756 81.4863 155.756 75.418Z"/>
<path d="M183.076 75.1641V74.123H189.576C189.754 74.6562 189.83 75.3418 189.83 76.2051C189.83 78.6172 189.094 80.623 187.596 82.1719C186.098 83.7207 184.244 84.5078 182.035 84.5078C179.115 84.5078 176.754 83.2891 174.926 80.8262C173.072 78.3633 172.158 74.6562 172.158 69.7051C172.158 64.7539 173.072 61.0215 174.926 58.5586C176.754 56.0957 179.115 54.877 182.035 54.877C184.498 54.877 186.504 55.8418 188.053 57.7715C189.602 59.7266 190.363 62.5703 190.363 66.3281C190.363 68.6387 190.059 70.6191 189.779 71.3047L189.576 71.7871H179.953C180.029 76.6367 180.639 79.0742 181.781 79.0488C182.645 79.0742 183.076 77.7793 183.076 75.1641ZM179.953 67.623H183.076V66.3281C183.076 62.3418 182.645 60.3359 181.781 60.3359C181.477 60.3359 181.223 60.4629 181.02 60.7422C180.791 61.0215 180.588 61.7324 180.385 62.8496C180.156 63.9922 180.029 65.5664 179.953 67.623Z"/>
</mask>
<path d="M14.7871 84H6.99219V54.3691H1.25391V47.5898H20.5V54.3691H14.7871V84Z" fill="white"/>
<path d="M34.998 80.8008C33.1953 83.2637 30.9863 84.5078 28.3203 84.5078C25.6543 84.5078 23.4199 83.2637 21.6426 80.8008C19.8398 78.3379 18.9512 74.6309 18.9512 69.7051C18.9512 64.7793 19.8398 61.0723 21.6426 58.584C23.4199 56.1211 25.6543 54.877 28.3203 54.877C30.9863 54.877 33.1953 56.1211 34.998 58.584C36.7754 61.0723 37.6641 64.7793 37.6641 69.7051C37.6641 74.6309 36.7754 78.3379 34.998 80.8008ZM29.6152 75.875C29.793 74.4277 29.8691 72.3457 29.8691 69.6797C29.8691 67.0137 29.793 64.957 29.6152 63.5098C29.4375 62.0625 29.2344 61.1484 29.0566 60.8184C28.6758 60.1582 27.9395 60.1582 27.5586 60.8184C27.3555 61.1484 27.1777 62.0625 27 63.5098C26.8223 64.957 26.7461 67.0137 26.7461 69.6797C26.7461 72.3457 26.8223 74.4277 27 75.875C27.1777 77.3477 27.3555 78.2363 27.5586 78.5664C27.9395 79.2012 28.6758 79.2012 29.0566 78.5664C29.2344 78.2363 29.4375 77.3477 29.6152 75.875Z" fill="white"/>
<path d="M41.2949 75.418V61.123H38.6797V55.4102H41.2949L44.6719 49.6719H48.5566V55.4102H56.0977V61.123H48.5566V75.6719C48.5566 77.9316 48.8613 79.0488 49.4453 79.0488C49.9023 79.0488 50.1309 78.6172 50.1309 77.7539C50.1309 76.9922 50.0039 76.2051 49.75 75.3672C49.4707 74.5293 49.2168 73.9199 48.9375 73.4883L48.5566 72.8281H55.0566C56.0977 73.8691 56.6055 75.418 56.6309 77.5C56.6309 79.5059 55.9707 81.1816 54.6758 82.502C53.3809 83.8477 51.6035 84.5078 49.3438 84.5078C43.9863 84.5078 41.2949 81.4863 41.2949 75.418Z" fill="white"/>
<path d="M64.7051 75.9258C64.7051 78.0078 65.1367 79.0488 66.0254 79.0488C66.8887 79.0488 67.3203 78.0078 67.3203 75.9258C67.3203 73.8691 66.8887 72.8281 66.0254 72.8281C65.1367 72.8281 64.7051 73.8691 64.7051 75.9258ZM76.4102 84H67.8281L69.6562 77.7539H68.8691C68.793 78.084 68.7676 78.541 68.209 80.1152C67.9297 80.9023 67.5996 81.5879 67.2441 82.1719C66.5078 83.3398 65.0605 84.5078 63.4102 84.5078C61.7598 84.5078 60.3379 83.7461 59.1699 82.248C58.002 80.75 57.418 78.6426 57.418 75.9258C57.418 73.2344 58.002 71.127 59.1699 69.6289C60.3379 68.1309 61.7598 67.3691 63.4102 67.3691C64.7305 67.3691 65.8477 67.9277 66.7363 69.0449C67.625 70.1875 68.209 71.3047 68.4629 72.4473L68.8691 74.123H69.6562L67.8281 67.3691V63.459C67.8281 61.377 67.4219 60.3359 66.6348 60.3359C65.873 60.3359 65.4922 61.377 65.4922 63.459V65.2871H58.9922C58.6621 64.6016 58.4844 63.5605 58.459 62.1641C58.459 60.1836 59.2461 58.4824 60.7949 57.0352C62.3438 55.5879 64.248 54.877 66.5332 54.877C72.2461 54.877 75.1152 58.3555 75.1152 65.2871V80.877C75.1152 82.4004 75.623 83.2891 76.0547 83.3652L76.4102 83.4922V84Z" fill="white"/>
<path d="M84.9922 84H77.7051V47.5898H84.9922V84Z" fill="white"/>
<path d="M106.6 84H97.2305L95.6816 47.5898H103.73L102.689 76.7129H103.477L106.346 57.2129H111.551L114.395 76.7129H115.182L114.141 47.5898H122.189L120.641 84H111.271L109.189 68.6641H108.682L106.6 84Z" fill="white"/>
<path d="M131.812 84H124.525V47.5898H131.812V55.918L130.238 61.6309H131.025C131.152 61.3008 131.33 60.8184 132.244 59.2695C132.676 58.4824 133.158 57.7969 133.641 57.2129C134.605 56.0195 136.256 54.877 137.779 54.877C140.09 54.877 141.689 56.959 141.689 61.123V84H134.402V62.6719C134.402 61.6309 134.148 61.123 133.641 61.123C133.031 61.123 132.346 62.1895 132.066 63.1035L131.812 63.7129V84Z" fill="white"/>
<path d="M151.566 84H144.279V55.4102H151.566V84ZM144.711 52.4902C143.898 51.7539 143.492 50.8145 143.492 49.6719C143.492 48.5293 143.898 47.6152 144.711 46.8789C145.498 46.1426 146.59 45.7871 147.936 45.7871C149.281 45.7871 150.348 46.1426 151.16 46.8789C151.947 47.6152 152.354 48.5293 152.354 49.6719C152.354 50.8145 151.947 51.7539 151.16 52.4902C150.348 53.2266 149.281 53.582 147.936 53.582C146.59 53.582 145.498 53.2266 144.711 52.4902Z" fill="white"/>
<path d="M155.756 75.418V61.123H153.141V55.4102H155.756L159.133 49.6719H163.018V55.4102H170.559V61.123H163.018V75.6719C163.018 77.9316 163.322 79.0488 163.906 79.0488C164.363 79.0488 164.592 78.6172 164.592 77.7539C164.592 76.9922 164.465 76.2051 164.211 75.3672C163.932 74.5293 163.678 73.9199 163.398 73.4883L163.018 72.8281H169.518C170.559 73.8691 171.066 75.418 171.092 77.5C171.092 79.5059 170.432 81.1816 169.137 82.502C167.842 83.8477 166.064 84.5078 163.805 84.5078C158.447 84.5078 155.756 81.4863 155.756 75.418Z" fill="white"/>
<path d="M183.076 75.1641V74.123H189.576C189.754 74.6562 189.83 75.3418 189.83 76.2051C189.83 78.6172 189.094 80.623 187.596 82.1719C186.098 83.7207 184.244 84.5078 182.035 84.5078C179.115 84.5078 176.754 83.2891 174.926 80.8262C173.072 78.3633 172.158 74.6562 172.158 69.7051C172.158 64.7539 173.072 61.0215 174.926 58.5586C176.754 56.0957 179.115 54.877 182.035 54.877C184.498 54.877 186.504 55.8418 188.053 57.7715C189.602 59.7266 190.363 62.5703 190.363 66.3281C190.363 68.6387 190.059 70.6191 189.779 71.3047L189.576 71.7871H179.953C180.029 76.6367 180.639 79.0742 181.781 79.0488C182.645 79.0742 183.076 77.7793 183.076 75.1641ZM179.953 67.623H183.076V66.3281C183.076 62.3418 182.645 60.3359 181.781 60.3359C181.477 60.3359 181.223 60.4629 181.02 60.7422C180.791 61.0215 180.588 61.7324 180.385 62.8496C180.156 63.9922 180.029 65.5664 179.953 67.623Z" fill="white"/>
<path d="M14.7871 84H6.99219V54.3691H1.25391V47.5898H20.5V54.3691H14.7871V84Z" stroke="black" stroke-width="2" stroke-linejoin="round" mask="url(#path-2-outside-1_145_2)"/>
<path d="M34.998 80.8008C33.1953 83.2637 30.9863 84.5078 28.3203 84.5078C25.6543 84.5078 23.4199 83.2637 21.6426 80.8008C19.8398 78.3379 18.9512 74.6309 18.9512 69.7051C18.9512 64.7793 19.8398 61.0723 21.6426 58.584C23.4199 56.1211 25.6543 54.877 28.3203 54.877C30.9863 54.877 33.1953 56.1211 34.998 58.584C36.7754 61.0723 37.6641 64.7793 37.6641 69.7051C37.6641 74.6309 36.7754 78.3379 34.998 80.8008ZM29.6152 75.875C29.793 74.4277 29.8691 72.3457 29.8691 69.6797C29.8691 67.0137 29.793 64.957 29.6152 63.5098C29.4375 62.0625 29.2344 61.1484 29.0566 60.8184C28.6758 60.1582 27.9395 60.1582 27.5586 60.8184C27.3555 61.1484 27.1777 62.0625 27 63.5098C26.8223 64.957 26.7461 67.0137 26.7461 69.6797C26.7461 72.3457 26.8223 74.4277 27 75.875C27.1777 77.3477 27.3555 78.2363 27.5586 78.5664C27.9395 79.2012 28.6758 79.2012 29.0566 78.5664C29.2344 78.2363 29.4375 77.3477 29.6152 75.875Z" stroke="black" stroke-width="2" stroke-linejoin="round" mask="url(#path-2-outside-1_145_2)"/>
<path d="M41.2949 75.418V61.123H38.6797V55.4102H41.2949L44.6719 49.6719H48.5566V55.4102H56.0977V61.123H48.5566V75.6719C48.5566 77.9316 48.8613 79.0488 49.4453 79.0488C49.9023 79.0488 50.1309 78.6172 50.1309 77.7539C50.1309 76.9922 50.0039 76.2051 49.75 75.3672C49.4707 74.5293 49.2168 73.9199 48.9375 73.4883L48.5566 72.8281H55.0566C56.0977 73.8691 56.6055 75.418 56.6309 77.5C56.6309 79.5059 55.9707 81.1816 54.6758 82.502C53.3809 83.8477 51.6035 84.5078 49.3438 84.5078C43.9863 84.5078 41.2949 81.4863 41.2949 75.418Z" stroke="black" stroke-width="2" stroke-linejoin="round" mask="url(#path-2-outside-1_145_2)"/>
<path d="M64.7051 75.9258C64.7051 78.0078 65.1367 79.0488 66.0254 79.0488C66.8887 79.0488 67.3203 78.0078 67.3203 75.9258C67.3203 73.8691 66.8887 72.8281 66.0254 72.8281C65.1367 72.8281 64.7051 73.8691 64.7051 75.9258ZM76.4102 84H67.8281L69.6562 77.7539H68.8691C68.793 78.084 68.7676 78.541 68.209 80.1152C67.9297 80.9023 67.5996 81.5879 67.2441 82.1719C66.5078 83.3398 65.0605 84.5078 63.4102 84.5078C61.7598 84.5078 60.3379 83.7461 59.1699 82.248C58.002 80.75 57.418 78.6426 57.418 75.9258C57.418 73.2344 58.002 71.127 59.1699 69.6289C60.3379 68.1309 61.7598 67.3691 63.4102 67.3691C64.7305 67.3691 65.8477 67.9277 66.7363 69.0449C67.625 70.1875 68.209 71.3047 68.4629 72.4473L68.8691 74.123H69.6562L67.8281 67.3691V63.459C67.8281 61.377 67.4219 60.3359 66.6348 60.3359C65.873 60.3359 65.4922 61.377 65.4922 63.459V65.2871H58.9922C58.6621 64.6016 58.4844 63.5605 58.459 62.1641C58.459 60.1836 59.2461 58.4824 60.7949 57.0352C62.3438 55.5879 64.248 54.877 66.5332 54.877C72.2461 54.877 75.1152 58.3555 75.1152 65.2871V80.877C75.1152 82.4004 75.623 83.2891 76.0547 83.3652L76.4102 83.4922V84Z" stroke="black" stroke-width="2" stroke-linejoin="round" mask="url(#path-2-outside-1_145_2)"/>
<path d="M84.9922 84H77.7051V47.5898H84.9922V84Z" stroke="black" stroke-width="2" stroke-linejoin="round" mask="url(#path-2-outside-1_145_2)"/>
<path d="M106.6 84H97.2305L95.6816 47.5898H103.73L102.689 76.7129H103.477L106.346 57.2129H111.551L114.395 76.7129H115.182L114.141 47.5898H122.189L120.641 84H111.271L109.189 68.6641H108.682L106.6 84Z" stroke="black" stroke-width="2" stroke-linejoin="round" mask="url(#path-2-outside-1_145_2)"/>
<path d="M131.812 84H124.525V47.5898H131.812V55.918L130.238 61.6309H131.025C131.152 61.3008 131.33 60.8184 132.244 59.2695C132.676 58.4824 133.158 57.7969 133.641 57.2129C134.605 56.0195 136.256 54.877 137.779 54.877C140.09 54.877 141.689 56.959 141.689 61.123V84H134.402V62.6719C134.402 61.6309 134.148 61.123 133.641 61.123C133.031 61.123 132.346 62.1895 132.066 63.1035L131.812 63.7129V84Z" stroke="black" stroke-width="2" stroke-linejoin="round" mask="url(#path-2-outside-1_145_2)"/>
<path d="M151.566 84H144.279V55.4102H151.566V84ZM144.711 52.4902C143.898 51.7539 143.492 50.8145 143.492 49.6719C143.492 48.5293 143.898 47.6152 144.711 46.8789C145.498 46.1426 146.59 45.7871 147.936 45.7871C149.281 45.7871 150.348 46.1426 151.16 46.8789C151.947 47.6152 152.354 48.5293 152.354 49.6719C152.354 50.8145 151.947 51.7539 151.16 52.4902C150.348 53.2266 149.281 53.582 147.936 53.582C146.59 53.582 145.498 53.2266 144.711 52.4902Z" stroke="black" stroke-width="2" stroke-linejoin="round" mask="url(#path-2-outside-1_145_2)"/>
<path d="M155.756 75.418V61.123H153.141V55.4102H155.756L159.133 49.6719H163.018V55.4102H170.559V61.123H163.018V75.6719C163.018 77.9316 163.322 79.0488 163.906 79.0488C164.363 79.0488 164.592 78.6172 164.592 77.7539C164.592 76.9922 164.465 76.2051 164.211 75.3672C163.932 74.5293 163.678 73.9199 163.398 73.4883L163.018 72.8281H169.518C170.559 73.8691 171.066 75.418 171.092 77.5C171.092 79.5059 170.432 81.1816 169.137 82.502C167.842 83.8477 166.064 84.5078 163.805 84.5078C158.447 84.5078 155.756 81.4863 155.756 75.418Z" stroke="black" stroke-width="2" stroke-linejoin="round" mask="url(#path-2-outside-1_145_2)"/>
<path d="M183.076 75.1641V74.123H189.576C189.754 74.6562 189.83 75.3418 189.83 76.2051C189.83 78.6172 189.094 80.623 187.596 82.1719C186.098 83.7207 184.244 84.5078 182.035 84.5078C179.115 84.5078 176.754 83.2891 174.926 80.8262C173.072 78.3633 172.158 74.6562 172.158 69.7051C172.158 64.7539 173.072 61.0215 174.926 58.5586C176.754 56.0957 179.115 54.877 182.035 54.877C184.498 54.877 186.504 55.8418 188.053 57.7715C189.602 59.7266 190.363 62.5703 190.363 66.3281C190.363 68.6387 190.059 70.6191 189.779 71.3047L189.576 71.7871H179.953C180.029 76.6367 180.639 79.0742 181.781 79.0488C182.645 79.0742 183.076 77.7793 183.076 75.1641ZM179.953 67.623H183.076V66.3281C183.076 62.3418 182.645 60.3359 181.781 60.3359C181.477 60.3359 181.223 60.4629 181.02 60.7422C180.791 61.0215 180.588 61.7324 180.385 62.8496C180.156 63.9922 180.029 65.5664 179.953 67.623Z" stroke="black" stroke-width="2" stroke-linejoin="round" mask="url(#path-2-outside-1_145_2)"/>
</svg>
