<svg width="206" height="47" viewBox="0 0 206 47" fill="none" xmlns="http://www.w3.org/2000/svg">
<path d="M8.36914 37H0.548828V0.589844H18.7539V37H10.959V7.36914H8.36914V37ZM29.7227 31.3125C30.1035 31.9473 30.8398 31.9473 31.2207 31.3125C31.3984 31.0078 31.6016 30.1445 31.7793 28.7227C31.957 27.3008 32.0332 25.2949 32.0332 22.6797C32.0332 20.0898 31.957 18.084 31.7793 16.6621C31.6016 15.2402 31.3984 14.377 31.2207 14.0469C30.8398 13.4375 30.1035 13.4375 29.7227 14.0469C29.5195 14.377 29.3418 15.2402 29.1641 16.6621C28.9863 18.084 28.9102 20.0898 28.9102 22.6797C28.9102 25.2949 28.9863 27.3008 29.1641 28.7227C29.3418 30.1445 29.5195 31.0078 29.7227 31.3125ZM28.9102 46.3691H21.623V8.41016H28.9102V8.91797L27.082 14.6309H27.8691C27.9453 14.3008 27.9707 13.8184 28.6055 12.2695C28.9102 11.4824 29.2402 10.7969 29.6211 10.2129C30.332 9.01953 31.8047 7.87695 33.3281 7.87695C35.0293 7.87695 36.5273 9.07031 37.8477 11.457C39.168 13.8691 39.8281 17.6016 39.8281 22.7051C39.8281 27.8086 39.168 31.541 37.8477 33.9277C36.5273 36.3145 35.0293 37.5078 33.3281 37.5078C32.084 37.5078 30.9922 36.9492 30.1035 35.8066C29.2148 34.6895 28.6055 33.5723 28.3262 32.4297L27.8691 30.7539H27.082L28.9102 37.5078V46.3691ZM57.4238 33.8008C55.6211 36.2637 53.4121 37.5078 50.7461 37.5078C48.0801 37.5078 45.8457 36.2637 44.0684 33.8008C42.2656 31.3379 41.377 27.6309 41.377 22.7051C41.377 17.7793 42.2656 14.0723 44.0684 11.584C45.8457 9.12109 48.0801 7.87695 50.7461 7.87695C53.4121 7.87695 55.6211 9.12109 57.4238 11.584C59.2012 14.0723 60.0898 17.7793 60.0898 22.7051C60.0898 27.6309 59.2012 31.3379 57.4238 33.8008ZM52.041 28.875C52.2188 27.4277 52.2949 25.3457 52.2949 22.6797C52.2949 20.0137 52.2188 17.957 52.041 16.5098C51.8633 15.0625 51.6602 14.1484 51.4824 13.8184C51.1016 13.1582 50.3652 13.1582 49.9844 13.8184C49.7812 14.1484 49.6035 15.0625 49.4258 16.5098C49.248 17.957 49.1719 20.0137 49.1719 22.6797C49.1719 25.3457 49.248 27.4277 49.4258 28.875C49.6035 30.3477 49.7812 31.2363 49.9844 31.5664C50.3652 32.2012 51.1016 32.2012 51.4824 31.5664C51.6602 31.2363 51.8633 30.3477 52.041 28.875ZM67.8848 37H60.3438L63.2129 19.8359L60.8516 8.41016H68.1387V19.8359H69.9668V8.41016H77.2539V19.8359H79.0566V8.41016H86.3438L84.0078 19.8359L86.8516 37H79.3359L78.2949 25.5488H77.2539V37H69.9668V25.5488H68.9258L67.8848 37ZM95.4336 37H88.1465V8.41016H95.6875L92.8438 29.2051H93.6055L98.5566 8.41016H105.844V37H98.3027L101.146 16.2051H100.359L95.4336 37ZM116.482 37H108.408V8.41016H116.203C122.729 8.41016 125.826 11.0508 125.826 15.418C125.826 17.2969 125.09 18.8457 123.617 20.0645C122.145 21.3086 119.936 21.918 116.99 21.918H115.695V22.7051H117.244C120.113 22.7051 122.373 23.3652 123.973 24.6602C125.572 25.9805 126.359 27.6562 126.359 29.7129C126.359 34.5625 123.059 37 116.482 37ZM115.695 13.5898V18.541H115.949C117.346 18.541 118.031 17.7031 118.031 16.0527C118.031 14.4277 117.346 13.6152 115.949 13.5898H115.695ZM115.695 26.082V31.7949H115.949C117.676 31.7949 118.539 30.8301 118.564 28.9258C118.564 27.0215 117.701 26.082 115.949 26.082H115.695ZM134.662 28.9258C134.662 31.0078 135.094 32.0488 135.982 32.0488C136.846 32.0488 137.277 31.0078 137.277 28.9258C137.277 26.8691 136.846 25.8281 135.982 25.8281C135.094 25.8281 134.662 26.8691 134.662 28.9258ZM146.367 37H137.785L139.613 30.7539H138.826C138.75 31.084 138.725 31.541 138.166 33.1152C137.887 33.9023 137.557 34.5879 137.201 35.1719C136.465 36.3398 135.018 37.5078 133.367 37.5078C131.717 37.5078 130.295 36.7461 129.127 35.248C127.959 33.75 127.375 31.6426 127.375 28.9258C127.375 26.2344 127.959 24.127 129.127 22.6289C130.295 21.1309 131.717 20.3691 133.367 20.3691C134.688 20.3691 135.805 20.9277 136.693 22.0449C137.582 23.1875 138.166 24.3047 138.42 25.4473L138.826 27.123H139.613L137.785 20.3691V16.459C137.785 14.377 137.379 13.3359 136.592 13.3359C135.83 13.3359 135.449 14.377 135.449 16.459V18.2871H128.949C128.619 17.6016 128.441 16.5605 128.416 15.1641C128.416 13.1836 129.203 11.4824 130.752 10.0352C132.301 8.58789 134.205 7.87695 136.49 7.87695C142.203 7.87695 145.072 11.3555 145.072 18.2871V33.877C145.072 35.4004 145.58 36.2891 146.012 36.3652L146.367 36.4922V37ZM154.949 37H147.662V8.41016H154.949V19.3281H157.539V8.41016H164.826V37H157.539V25.5488H154.949V37ZM174.703 37H167.416V8.41016H174.957L172.113 29.2051H172.875L177.826 8.41016H185.113V37H177.572L180.416 16.2051H179.629L174.703 37ZM198.088 28.1641V27.123H204.588C204.766 27.6562 204.842 28.3418 204.842 29.2051C204.842 31.6172 204.105 33.623 202.607 35.1719C201.109 36.7207 199.256 37.5078 197.047 37.5078C194.127 37.5078 191.766 36.2891 189.938 33.8262C188.084 31.3633 187.17 27.6562 187.17 22.7051C187.17 17.7539 188.084 14.0215 189.938 11.5586C191.766 9.0957 194.127 7.87695 197.047 7.87695C199.51 7.87695 201.516 8.8418 203.064 10.7715C204.613 12.7266 205.375 15.5703 205.375 19.3281C205.375 21.6387 205.07 23.6191 204.791 24.3047L204.588 24.7871H194.965C195.041 29.6367 195.65 32.0742 196.793 32.0488C197.656 32.0742 198.088 30.7793 198.088 28.1641ZM194.965 20.623H198.088V19.3281C198.088 15.3418 197.656 13.3359 196.793 13.3359C196.488 13.3359 196.234 13.4629 196.031 13.7422C195.803 14.0215 195.6 14.7324 195.396 15.8496C195.168 16.9922 195.041 18.5664 194.965 20.623Z" fill="black"/>
</svg>
