<svg width="232" height="89" viewBox="0 0 232 89" fill="none" xmlns="http://www.w3.org/2000/svg">
<path d="M18.5 37H10.7051V25.2949L12 19.582H11.2129C11.0859 19.9121 10.9844 20.3945 10.1211 21.9434C9.68945 22.7305 9.23242 23.416 8.75 24C7.81055 25.1934 6.10938 26.3359 4.45898 26.3359C1.69141 26.3359 0.294922 24.5078 0.294922 20.877V0.589844H8.08984V18.0078C8.08984 19.2266 8.34375 19.8359 8.87695 19.8359C9.48633 19.8359 10.1465 18.8965 10.4512 18.084L10.7051 17.5V0.589844H18.5V37ZM32.8203 37H25.5332V14.6309H20.3281V8.41016H38.0254V14.6309H32.8203V37ZM54.5801 33.8008C52.7773 36.2637 50.5684 37.5078 47.9023 37.5078C45.2363 37.5078 43.002 36.2637 41.2246 33.8008C39.4219 31.3379 38.5332 27.6309 38.5332 22.7051C38.5332 17.7793 39.4219 14.0723 41.2246 11.584C43.002 9.12109 45.2363 7.87695 47.9023 7.87695C50.5684 7.87695 52.7773 9.12109 54.5801 11.584C56.3574 14.0723 57.2461 17.7793 57.2461 22.7051C57.2461 27.6309 56.3574 31.3379 54.5801 33.8008ZM49.1973 28.875C49.375 27.4277 49.4512 25.3457 49.4512 22.6797C49.4512 20.0137 49.375 17.957 49.1973 16.5098C49.0195 15.0625 48.8164 14.1484 48.6387 13.8184C48.2578 13.1582 47.5215 13.1582 47.1406 13.8184C46.9375 14.1484 46.7598 15.0625 46.582 16.5098C46.4043 17.957 46.3281 20.0137 46.3281 22.6797C46.3281 25.3457 46.4043 27.4277 46.582 28.875C46.7598 30.3477 46.9375 31.2363 47.1406 31.5664C47.5215 32.2012 48.2578 32.2012 48.6387 31.5664C48.8164 31.2363 49.0195 30.3477 49.1973 28.875ZM75.7051 37H67.6309V8.41016H75.4258C81.9512 8.41016 85.0488 11.0508 85.0488 15.418C85.0488 17.2969 84.3125 18.8457 82.8398 20.0645C81.3672 21.3086 79.1582 21.918 76.2129 21.918H74.918V22.7051H76.4668C79.3359 22.7051 81.5957 23.3652 83.1953 24.6602C84.7949 25.9805 85.582 27.6562 85.582 29.7129C85.582 34.5625 82.2812 37 75.7051 37ZM74.918 13.5898V18.541H75.1719C76.5684 18.541 77.2539 17.7031 77.2539 16.0527C77.2539 14.4277 76.5684 13.6152 75.1719 13.5898H74.918ZM74.918 26.082V31.7949H75.1719C76.8984 31.7949 77.7617 30.8301 77.7871 28.9258C77.7871 27.0215 76.9238 26.082 75.1719 26.082H74.918ZM93.123 37H85.3281L90.7871 22.1719L85.8359 8.41016H93.6309L95.2051 18.0078H95.9922V8.41016H103.254L98.8359 21.6641L104.041 37H95.9922L93.9102 26.8691H93.123V37ZM119.529 33.8008C117.727 36.2637 115.518 37.5078 112.852 37.5078C110.186 37.5078 107.951 36.2637 106.174 33.8008C104.371 31.3379 103.482 27.6309 103.482 22.7051C103.482 17.7793 104.371 14.0723 106.174 11.584C107.951 9.12109 110.186 7.87695 112.852 7.87695C115.518 7.87695 117.727 9.12109 119.529 11.584C121.307 14.0723 122.195 17.7793 122.195 22.7051C122.195 27.6309 121.307 31.3379 119.529 33.8008ZM114.146 28.875C114.324 27.4277 114.4 25.3457 114.4 22.6797C114.4 20.0137 114.324 17.957 114.146 16.5098C113.969 15.0625 113.766 14.1484 113.588 13.8184C113.207 13.1582 112.471 13.1582 112.09 13.8184C111.887 14.1484 111.709 15.0625 111.531 16.5098C111.354 17.957 111.277 20.0137 111.277 22.6797C111.277 25.3457 111.354 27.4277 111.531 28.875C111.709 30.3477 111.887 31.2363 112.09 31.5664C112.471 32.2012 113.207 32.2012 113.588 31.5664C113.766 31.2363 113.969 30.3477 114.146 28.875ZM129.457 43.2461H122.195V31.0078H125.039C125.902 29.1035 126.334 26.0566 126.359 21.918C126.359 20.3945 126.283 18.9473 126.105 17.6016C125.928 16.2559 125.75 15.291 125.572 14.7324L125.318 13.8691V8.41016H142.203V31.0078H145.326V43.2461H138.039V37H129.457V43.2461ZM132.123 30.1445L131.818 31.0078H134.941V14.377H132.326C132.859 16.459 133.113 18.9727 133.113 21.918C133.113 23.7715 133.012 25.4473 132.783 26.9707C132.555 28.4941 132.326 29.5605 132.123 30.1445ZM153.934 37H146.646V8.41016H154.188L151.344 29.2051H152.105L157.057 8.41016H164.344V37H156.803L159.646 16.2051H158.859L153.934 37ZM178.359 37H171.072V14.6309H165.867V8.41016H183.564V14.6309H178.359V37ZM8.36914 79H0.294922V50.4102H8.08984C14.6152 50.4102 17.7129 53.0508 17.7129 57.418C17.7129 59.2969 16.9766 60.8457 15.5039 62.0645C14.0312 63.3086 11.8223 63.918 8.87695 63.918H7.58203V64.7051H9.13086C12 64.7051 14.2598 65.3652 15.8594 66.6602C17.459 67.9805 18.2461 69.6562 18.2461 71.7129C18.2461 76.5625 14.9453 79 8.36914 79ZM7.58203 55.5898V60.541H7.83594C9.23242 60.541 9.91797 59.7031 9.91797 58.0527C9.91797 56.4277 9.23242 55.6152 7.83594 55.5898H7.58203ZM7.58203 68.082V73.7949H7.83594C9.5625 73.7949 10.4258 72.8301 10.4512 70.9258C10.4512 69.0215 9.58789 68.082 7.83594 68.082H7.58203ZM35.6641 79H28.377V50.4102H45.541V79H38.2539V56.6309H35.6641V79ZM56.2305 73.3125C56.6113 73.9473 57.3477 73.9473 57.7285 73.3125C57.9062 73.0078 58.1094 72.1445 58.2871 70.7227C58.4648 69.3008 58.541 67.2949 58.541 64.6797C58.541 62.0898 58.4648 60.084 58.2871 58.6621C58.1094 57.2402 57.9062 56.377 57.7285 56.0469C57.3477 55.4375 56.6113 55.4375 56.2305 56.0469C56.0273 56.377 55.8496 57.2402 55.6719 58.6621C55.4941 60.084 55.418 62.0898 55.418 64.6797C55.418 67.2949 55.4941 69.3008 55.6719 70.7227C55.8496 72.1445 56.0273 73.0078 56.2305 73.3125ZM55.418 88.3691H48.1309V50.4102H55.418V50.918L53.5898 56.6309H54.377C54.4531 56.3008 54.4785 55.8184 55.1133 54.2695C55.418 53.4824 55.748 52.7969 56.1289 52.2129C56.8398 51.0195 58.3125 49.877 59.8359 49.877C61.5371 49.877 63.0352 51.0703 64.3555 53.457C65.6758 55.8691 66.3359 59.6016 66.3359 64.7051C66.3359 69.8086 65.6758 73.541 64.3555 75.9277C63.0352 78.3145 61.5371 79.5078 59.8359 79.5078C58.5918 79.5078 57.5 78.9492 56.6113 77.8066C55.7227 76.6895 55.1133 75.5723 54.834 74.4297L54.377 72.7539H53.5898L55.418 79.5078V88.3691ZM83.9316 75.8008C82.1289 78.2637 79.9199 79.5078 77.2539 79.5078C74.5879 79.5078 72.3535 78.2637 70.5762 75.8008C68.7734 73.3379 67.8848 69.6309 67.8848 64.7051C67.8848 59.7793 68.7734 56.0723 70.5762 53.584C72.3535 51.1211 74.5879 49.877 77.2539 49.877C79.9199 49.877 82.1289 51.1211 83.9316 53.584C85.709 56.0723 86.5977 59.7793 86.5977 64.7051C86.5977 69.6309 85.709 73.3379 83.9316 75.8008ZM78.5488 70.875C78.7266 69.4277 78.8027 67.3457 78.8027 64.6797C78.8027 62.0137 78.7266 59.957 78.5488 58.5098C78.3711 57.0625 78.168 56.1484 77.9902 55.8184C77.6094 55.1582 76.873 55.1582 76.4922 55.8184C76.2891 56.1484 76.1113 57.0625 75.9336 58.5098C75.7559 59.957 75.6797 62.0137 75.6797 64.6797C75.6797 67.3457 75.7559 69.4277 75.9336 70.875C76.1113 72.3477 76.2891 73.2363 76.4922 73.5664C76.873 74.2012 77.6094 74.2012 77.9902 73.5664C78.168 73.2363 78.3711 72.3477 78.5488 70.875ZM94.3926 79H86.8516L89.7207 61.8359L87.3594 50.4102H94.6465V61.8359H96.4746V50.4102H103.762V61.8359H105.564V50.4102H112.852L110.516 61.8359L113.359 79H105.844L104.803 67.5488H103.762V79H96.4746V67.5488H95.4336L94.3926 79ZM121.941 79H114.654V50.4102H122.195L119.352 71.2051H120.113L125.064 50.4102H132.352V79H124.811L127.654 58.2051H126.867L121.941 79ZM142.99 79H134.916V50.4102H142.711C149.236 50.4102 152.334 53.0508 152.334 57.418C152.334 59.2969 151.598 60.8457 150.125 62.0645C148.652 63.3086 146.443 63.918 143.498 63.918H142.203V64.7051H143.752C146.621 64.7051 148.881 65.3652 150.48 66.6602C152.08 67.9805 152.867 69.6562 152.867 71.7129C152.867 76.5625 149.566 79 142.99 79ZM142.203 55.5898V60.541H142.457C143.854 60.541 144.539 59.7031 144.539 58.0527C144.539 56.4277 143.854 55.6152 142.457 55.5898H142.203ZM142.203 68.082V73.7949H142.457C144.184 73.7949 145.047 72.8301 145.072 70.9258C145.072 69.0215 144.209 68.082 142.457 68.082H142.203ZM161.17 70.9258C161.17 73.0078 161.602 74.0488 162.49 74.0488C163.354 74.0488 163.785 73.0078 163.785 70.9258C163.785 68.8691 163.354 67.8281 162.49 67.8281C161.602 67.8281 161.17 68.8691 161.17 70.9258ZM172.875 79H164.293L166.121 72.7539H165.334C165.258 73.084 165.232 73.541 164.674 75.1152C164.395 75.9023 164.064 76.5879 163.709 77.1719C162.973 78.3398 161.525 79.5078 159.875 79.5078C158.225 79.5078 156.803 78.7461 155.635 77.248C154.467 75.75 153.883 73.6426 153.883 70.9258C153.883 68.2344 154.467 66.127 155.635 64.6289C156.803 63.1309 158.225 62.3691 159.875 62.3691C161.195 62.3691 162.312 62.9277 163.201 64.0449C164.09 65.1875 164.674 66.3047 164.928 67.4473L165.334 69.123H166.121L164.293 62.3691V58.459C164.293 56.377 163.887 55.3359 163.1 55.3359C162.338 55.3359 161.957 56.377 161.957 58.459V60.2871H155.457C155.127 59.6016 154.949 58.5605 154.924 57.1641C154.924 55.1836 155.711 53.4824 157.26 52.0352C158.809 50.5879 160.713 49.877 162.998 49.877C168.711 49.877 171.58 53.3555 171.58 60.2871V75.877C171.58 77.4004 172.088 78.2891 172.52 78.3652L172.875 78.4922V79ZM181.457 79H174.17V50.4102H181.457V61.3281H184.047V50.4102H191.334V79H184.047V67.5488H181.457V79ZM201.211 79H193.924V50.4102H201.465L198.621 71.2051H199.383L204.334 50.4102H211.621V79H204.08L206.924 58.2051H206.137L201.211 79ZM224.596 70.1641V69.123H231.096C231.273 69.6562 231.35 70.3418 231.35 71.2051C231.35 73.6172 230.613 75.623 229.115 77.1719C227.617 78.7207 225.764 79.5078 223.555 79.5078C220.635 79.5078 218.273 78.2891 216.445 75.8262C214.592 73.3633 213.678 69.6562 213.678 64.7051C213.678 59.7539 214.592 56.0215 216.445 53.5586C218.273 51.0957 220.635 49.877 223.555 49.877C226.018 49.877 228.023 50.8418 229.572 52.7715C231.121 54.7266 231.883 57.5703 231.883 61.3281C231.883 63.6387 231.578 65.6191 231.299 66.3047L231.096 66.7871H221.473C221.549 71.6367 222.158 74.0742 223.301 74.0488C224.164 74.0742 224.596 72.7793 224.596 70.1641ZM221.473 62.623H224.596V61.3281C224.596 57.3418 224.164 55.3359 223.301 55.3359C222.996 55.3359 222.742 55.4629 222.539 55.7422C222.311 56.0215 222.107 56.7324 221.904 57.8496C221.676 58.9922 221.549 60.5664 221.473 62.623Z" fill="black"/>
</svg>
