<svg width="129" height="66" viewBox="0 0 129 66" fill="none" xmlns="http://www.w3.org/2000/svg">
<g clip-path="url(#clip0_29_54)">
<path d="M125.37 35.5951L17.7929 2.70542C16.6296 2.34978 15.3728 2.46789 14.298 3.03845L8.48968 6.10717C7.41108 6.67976 6.60343 7.65516 6.24646 8.82275L1.61036 23.9868C0.721075 26.8955 2.36168 29.9761 5.27425 30.8666L110.478 63.0306C111.571 63.3648 112.75 63.2805 113.784 62.7933L119.507 60.0984C120.678 59.5478 121.563 58.5288 121.941 57.291L127.406 39.4173C127.9 37.8019 126.988 36.0896 125.37 35.5951ZM120.32 55.0995C119.629 57.3616 117.231 58.6346 114.966 57.9422L11.6194 26.346C9.67666 25.7521 8.5845 23.6967 9.17676 21.7595L13.7959 6.6511C14.2405 5.19674 15.7819 4.37847 17.2382 4.8237L124.101 37.4948C124.909 37.7421 125.366 38.5953 125.118 39.4059L120.32 55.0995Z" fill="black"/>
<path d="M125.118 39.4059L120.32 55.0995C119.629 57.3616 117.231 58.6346 114.966 57.9422L11.6194 26.346C9.67669 25.7521 8.58452 23.6967 9.17678 21.7595L13.7959 6.6511C14.2405 5.19673 15.7819 4.37846 17.2382 4.82369L124.101 37.4948C124.909 37.7421 125.366 38.5953 125.118 39.4059Z" fill="#B4E664"/>
<path d="M18.8012 20.1263L17.6994 19.7894L18.8042 17.7689L17.1897 17.2753L17.6655 16.4001L19.2683 16.8901L20.08 15.388L18.5329 14.9149L19.0087 14.0397L20.5558 14.5127L21.6489 12.4886L22.7506 12.8254L21.6576 14.8495L23.4069 15.3843L24.4999 13.3603L25.5899 13.6935L24.4969 15.7176L26.1114 16.2112L25.6355 17.0865L24.0328 16.5964L23.2093 18.095L24.7682 18.5716L24.2923 19.4468L22.7452 18.9738L21.6522 20.9979L20.5505 20.6611L21.6435 18.637L19.8942 18.1022L18.8012 20.1263ZM21.1826 15.7219L20.3709 17.224L22.1202 17.7588L22.9319 16.2567L21.1826 15.7219Z" fill="black"/>
<path d="M26.7154 22.5459L25.4584 22.1616L27.0974 16.8006L28.3544 17.185L27.7255 19.2421L30.1517 19.9839L30.7806 17.9267L32.0494 18.3146L30.4103 23.6756L29.1416 23.2877L29.7974 21.1427L27.3712 20.4009L26.7154 22.5459Z" fill="black"/>
<path d="M33.0724 24.2014C32.7148 23.8201 32.4748 23.3788 32.3564 22.8754C32.2379 22.372 32.258 21.8662 32.4146 21.3541C32.5711 20.842 32.8373 20.4114 33.217 20.0603C33.5967 19.7092 34.0366 19.4757 34.5345 19.356C35.0325 19.2363 35.5301 19.254 36.0283 19.4063C36.5264 19.5586 36.9515 19.8133 37.2852 20.1682C37.6189 20.523 37.8387 20.9357 37.9467 21.4103C38.0548 21.8849 38.0313 22.3705 37.8792 22.868C37.8201 23.0611 37.7453 23.243 37.6499 23.4187L33.5975 22.1797C33.5483 22.5295 33.6335 22.8691 33.859 23.2004C34.0816 23.5308 34.4024 23.7601 34.8185 23.8873C35.3664 24.0548 35.9154 23.9987 36.4647 23.7219L36.964 24.7609C36.6791 24.9489 36.3063 25.0782 35.8476 25.1427C35.389 25.2073 34.9023 25.1641 34.3925 25.0082C33.8826 24.8523 33.4338 24.5807 33.0762 24.1994L33.0724 24.2014ZM36.6936 22.0927C36.7295 21.7133 36.661 21.382 36.491 21.0997C36.321 20.8173 36.0543 20.6206 35.691 20.5095C35.3276 20.3984 34.9682 20.4005 34.6556 20.5321C34.343 20.6637 34.0824 20.8977 33.8748 21.231L36.6907 22.0919L36.6936 22.0927Z" fill="black"/>
<path d="M41.3492 29.3653L36.6171 27.9186L36.9436 26.8505L41.6758 28.2973L41.3492 29.3653Z" fill="black"/>
<path d="M45.1549 28.1834L43.8979 27.7991L45.1728 23.6291L43.3912 23.0845L43.7554 21.8935L48.5872 23.3707L48.2231 24.5617L46.4298 24.0135L45.1549 28.1834Z" fill="black"/>
<path d="M52.7017 24.8046C52.9949 25.0927 53.1876 25.4267 53.2785 25.8001C53.3714 26.1773 53.3578 26.5571 53.2397 26.9434L52.2028 30.335L51.0015 29.9677L51.2296 29.2215L51.2179 29.2179C51.0031 29.3858 50.7167 29.5158 50.3583 29.5982C49.9989 29.6836 49.6322 29.6674 49.2513 29.551C48.9026 29.4444 48.6135 29.2792 48.381 29.0545C48.1485 28.8299 47.9927 28.5742 47.9146 28.2848C47.8356 27.9982 47.8382 27.7174 47.9223 27.4424C48.0601 26.9917 48.3211 26.6619 48.7053 26.4531C49.0896 26.2442 49.5589 26.1764 50.1158 26.2411L52.0039 26.4792L52.0075 26.4675C52.0756 26.2131 52.0384 25.9682 51.8928 25.7317C51.7464 25.4981 51.5241 25.3342 51.2253 25.2428C50.9498 25.1586 50.6869 25.1486 50.4316 25.2081C50.1793 25.2686 49.9241 25.3697 49.6698 25.5096L49.1267 24.5404C49.4614 24.3259 49.8375 24.1753 50.2596 24.0836C50.6817 23.9919 51.1253 24.0187 51.5941 24.162C52.063 24.3054 52.4103 24.5107 52.7035 24.7988L52.7017 24.8046ZM50.9456 28.4947C51.2934 28.3002 51.5299 27.9982 51.6569 27.5826L51.7115 27.4041L50.2266 27.2413C49.967 27.21 49.7506 27.2366 49.5762 27.3145C49.4018 27.3923 49.2897 27.518 49.2405 27.679C49.1814 27.8721 49.2055 28.0555 49.3156 28.2299C49.4256 28.4044 49.6043 28.5326 49.8563 28.6096C50.2343 28.7252 50.5986 28.6862 50.9465 28.4917L50.9456 28.4947Z" fill="black"/>
<path d="M54.9211 31.1692L53.6641 30.7849L55.3031 25.424L56.5601 25.8083L55.8462 28.1435L58.7197 26.4685L60.2668 26.9415L57.5368 28.5035L58.7713 32.3464L57.3356 31.9074L56.4513 29.1092L55.3595 29.7354L54.9211 31.1692Z" fill="black"/>
<path d="M60.7315 32.9457L59.6181 32.6052L61.2571 27.2443L62.5053 27.6259L61.4783 30.9853L61.5105 30.9951L65.1425 28.4322L66.2676 28.7762L64.6286 34.1371L63.3716 33.7528L64.3987 30.3934L64.3664 30.3836L60.7345 32.9466L60.7315 32.9457Z" fill="black"/>
<path d="M67.2877 34.6621C66.9301 34.2808 66.6901 33.8394 66.5717 33.3361C66.4533 32.8327 66.4733 32.3268 66.6299 31.8147C66.7865 31.3026 67.0527 30.8721 67.4324 30.521C67.812 30.1699 68.2519 29.9364 68.7499 29.8166C69.2479 29.6969 69.7455 29.7147 70.2436 29.8669C70.7417 30.0192 71.1669 30.274 71.5005 30.6288C71.8342 30.9836 72.0541 31.3964 72.1621 31.871C72.2701 32.3456 72.2466 32.8312 72.0945 33.3287C72.0355 33.5218 71.9606 33.7037 71.8653 33.8793L67.8129 32.6404C67.7636 32.9901 67.8488 33.3297 68.0743 33.6611C68.2969 33.9915 68.6177 34.2208 69.0338 34.348C69.5847 34.5164 70.1308 34.4594 70.68 34.1825L71.1794 35.2215C70.8944 35.4096 70.5217 35.5388 70.063 35.6034C69.6043 35.6679 69.1177 35.6247 68.6078 35.4689C68.098 35.313 67.6491 35.0414 67.2915 34.6601L67.2877 34.6621ZM70.9089 32.5534C70.9448 32.174 70.8763 31.8427 70.7063 31.5603C70.5363 31.278 70.2697 31.0812 69.9063 30.9702C69.543 30.8591 69.1835 30.8612 68.8709 30.9928C68.5583 31.1244 68.2978 31.3583 68.0901 31.6916L70.906 32.5525L70.9089 32.5534Z" fill="black"/>
<path d="M75.5646 39.826L70.8324 38.3793L71.1589 37.3112L75.8911 38.7579L75.5646 39.826Z" fill="black"/>
<path d="M78.1249 38.2633L76.8678 37.879L78.5068 32.5181L79.7639 32.9024L79.0499 35.2376L81.9234 33.5626L83.4705 34.0356L80.7405 35.5976L81.9751 39.4405L80.5393 39.0015L79.655 36.2033L78.5632 36.8295L78.1249 38.2633Z" fill="black"/>
<path d="M87.5967 35.4731C87.8899 35.7612 88.0826 36.0952 88.1735 36.4686C88.2664 36.8458 88.2528 37.2256 88.1347 37.6119L87.0978 41.0035L85.8965 40.6362L86.1246 39.89L86.1129 39.8864C85.8981 40.0543 85.6117 40.1843 85.2533 40.2667C84.894 40.3521 84.5272 40.3359 84.1463 40.2195C83.7976 40.1129 83.5085 39.9477 83.276 39.723C83.0435 39.4984 82.8878 39.2428 82.8097 38.9533C82.7307 38.6667 82.7332 38.3859 82.8173 38.1109C82.9551 37.6602 83.2161 37.3305 83.6004 37.1216C83.9846 36.9127 84.4539 36.8449 85.0109 36.9096L86.8989 37.1477L86.9025 37.136C86.9707 36.8816 86.9334 36.6367 86.7878 36.4002C86.6414 36.1666 86.4192 36.0027 86.1203 35.9113C85.8449 35.8271 85.582 35.8171 85.3267 35.8766C85.0743 35.9371 84.8191 36.0382 84.5649 36.1781L84.0217 35.2089C84.3564 34.9944 84.7325 34.8438 85.1546 34.7521C85.5768 34.6604 86.0203 34.6872 86.4892 34.8305C86.958 34.9739 87.3053 35.1793 87.5985 35.4673L87.5967 35.4731ZM85.8406 39.1632C86.1884 38.9687 86.4249 38.6667 86.552 38.2511L86.6065 38.0726L85.1216 37.9098C84.862 37.8785 84.6456 37.9051 84.4712 37.983C84.2968 38.0608 84.1847 38.1866 84.1355 38.3475C84.0765 38.5406 84.1005 38.724 84.2106 38.8984C84.3206 39.0729 84.4993 39.2011 84.7513 39.2781C85.1293 39.3937 85.4937 39.3547 85.8415 39.1603L85.8406 39.1632Z" fill="black"/>
<path d="M89.8161 41.8377L88.5591 41.4534L90.1981 36.0925L91.4551 36.4768L90.7412 38.812L93.6147 37.137L95.1618 37.61L92.4318 39.172L93.6664 43.0149L92.2306 42.5759L91.3463 39.7777L90.2545 40.4039L89.8161 41.8377Z" fill="black"/>
<path d="M97.7223 46.6003L92.9901 45.1536L93.3167 44.0855L98.0488 45.5322L97.7223 46.6003Z" fill="black"/>
<path d="M99.0227 44.6524L100.662 39.2915L103.246 40.0816C103.618 40.1954 103.92 40.3612 104.155 40.5771C104.39 40.793 104.544 41.0351 104.622 41.3023C104.698 41.5686 104.698 41.831 104.618 42.0914C104.546 42.3284 104.415 42.5253 104.231 42.6769C104.047 42.8286 103.836 42.921 103.601 42.9451C103.818 43.085 103.984 43.2958 104.103 43.5785C104.218 43.8602 104.227 44.1669 104.128 44.4917C104.042 44.7727 103.882 45.0118 103.654 45.2043C103.425 45.3968 103.14 45.5209 102.804 45.5718C102.468 45.6227 102.107 45.589 101.72 45.4708L99.0245 44.6466L99.0227 44.6524ZM102.489 42.1604C102.688 42.2213 102.858 42.2219 102.994 42.1644C103.131 42.1039 103.222 41.9942 103.272 41.8303C103.322 41.6664 103.308 41.5245 103.228 41.3977C103.148 41.2709 103.01 41.1775 102.808 41.1157L101.595 40.7448L101.276 41.7895L102.489 42.1604ZM101.945 44.3781C102.177 44.4488 102.371 44.4441 102.531 44.3684C102.692 44.2928 102.803 44.1604 102.86 43.976C102.916 43.7917 102.898 43.6198 102.807 43.4672C102.716 43.3145 102.555 43.2013 102.326 43.1315L100.99 42.723L100.609 43.9696L101.945 44.3781Z" fill="black"/>
<path d="M106.092 46.5257C105.734 46.1443 105.494 45.703 105.376 45.1996C105.257 44.6962 105.277 44.1904 105.434 43.6783C105.59 43.1662 105.857 42.7356 106.236 42.3845C106.616 42.0334 107.059 41.8008 107.571 41.6856C108.081 41.5694 108.596 41.5925 109.115 41.7511C109.634 41.9097 110.046 42.1541 110.376 42.4887C110.702 42.8253 110.933 43.171 111.068 43.5258L109.97 44.0157C109.696 43.4551 109.297 43.0932 108.779 42.9346C108.327 42.7967 107.902 42.8362 107.506 43.0512C107.111 43.2662 106.844 43.6038 106.703 44.0633C106.563 44.5227 106.595 44.9517 106.803 45.3513C107.011 45.7508 107.339 46.0206 107.793 46.1594C108.089 46.2499 108.381 46.2688 108.664 46.2115C108.95 46.158 109.212 46.0557 109.451 45.9113L110.084 46.9432C109.748 47.1635 109.347 47.3225 108.878 47.4192C108.41 47.516 107.92 47.4845 107.41 47.3286C106.9 47.1727 106.451 46.9011 106.093 46.5198L106.092 46.5257Z" fill="black"/>
<path d="M111.814 48.2752C111.457 47.8939 111.217 47.4526 111.098 46.9492C110.98 46.4458 111 45.94 111.156 45.4279C111.313 44.9158 111.579 44.4852 111.959 44.1341C112.339 43.783 112.778 43.5495 113.276 43.4298C113.774 43.31 114.272 43.3278 114.77 43.4801C115.268 43.6324 115.693 43.8871 116.027 44.2419C116.361 44.5967 116.581 45.0095 116.689 45.4841C116.797 45.9587 116.773 46.4443 116.621 46.9418C116.562 47.1349 116.487 47.3168 116.392 47.4924L112.339 46.2535C112.29 46.6032 112.375 46.9429 112.601 47.2742C112.823 47.6046 113.144 47.8339 113.56 47.9611C114.111 48.1295 114.657 48.0725 115.206 47.7956L115.706 48.8347C115.421 49.0227 115.048 49.1519 114.589 49.2165C114.131 49.281 113.644 49.2379 113.134 49.082C112.624 48.9261 112.176 48.6545 111.818 48.2732L111.814 48.2752ZM115.435 46.1665C115.471 45.7871 115.403 45.4558 115.233 45.1734C115.063 44.8911 114.796 44.6944 114.433 44.5833C114.069 44.4722 113.71 44.4743 113.397 44.6059C113.085 44.7375 112.824 44.9714 112.617 45.3047L115.432 46.1656L115.435 46.1665Z" fill="black"/>
</g>
<defs>
<clipPath id="clip0_29_54">
<rect width="124.81" height="30.5907" fill="white" transform="translate(8.94385) rotate(17)"/>
</clipPath>
</defs>
</svg>
