<?xml version="1.0" encoding="UTF-8"?>
<svg id="_Слой_1" data-name="Слой 1" xmlns="http://www.w3.org/2000/svg" viewBox="0 0 1920 1920">
  <defs>
    <style>
      .cls-1, .cls-2, .cls-3 {
        stroke-width: 0px;
      }

      .cls-1, .cls-4 {
        fill: #82d7e1;
      }

      .cls-5 {
        fill: none;
        stroke-width: 8.93px;
      }

      .cls-5, .cls-6, .cls-4, .cls-7 {
        stroke: #000;
        stroke-linecap: round;
      }

      .cls-5, .cls-6, .cls-7 {
        stroke-linejoin: round;
      }

      .cls-6, .cls-3 {
        fill: #fff;
      }

      .cls-6, .cls-4, .cls-7 {
        stroke-width: 7.66px;
      }

      .cls-4 {
        stroke-miterlimit: 10;
      }
    </style>
  </defs>
  <path class="cls-2" d="m760.25,1811.49c-1.18-15.91-2.37-31.83-3.55-47.74-6.15,2.56-12.29,5.14-18.43,7.74.16,2.65.32,5.31.48,7.96.59,10.81.4,19.49-.58,26.05-.98,6.56-2.61,11.51-4.89,14.84-2.28,3.33-5.29,5.79-9.03,7.4-1.09.47-2.15.79-3.19.95-1.03.17-1.83.2-2.38.1-.27-3.08-.54-6.17-.81-9.25,1.45-.07,2.86-.39,4.21-.97,1.88-.81,3.39-2.3,4.56-4.48,1.16-2.18,1.99-5.72,2.47-10.62.48-4.89.46-11.52-.08-19.88-.35-5.8-.69-11.6-1.04-17.41,12.64-5.4,25.28-10.7,37.93-15.93,1.36,19.07,2.71,38.13,4.07,57.2-3.25,1.34-6.5,2.69-9.75,4.04h0Zm56.68-32.66c-1.57,3.84-3.83,7.29-6.76,10.33-2.94,3.05-6.22,5.3-9.86,6.76-3.64,1.46-7.04,1.9-10.2,1.3-3.16-.59-5.72-2.1-7.68-4.53-1.96-2.42-3.07-5.52-3.32-9.28-.26-3.76.39-7.57,1.94-11.43,1.55-3.86,3.8-7.33,6.76-10.41,2.96-3.08,6.28-5.36,9.97-6.84,3.69-1.48,7.13-1.92,10.31-1.31,3.18.61,5.75,2.14,7.68,4.6s3,5.58,3.21,9.36c.21,3.78-.48,7.6-2.05,11.44h0Zm-6.9-7.89c-.13-2.25-.73-4.08-1.81-5.5-1.08-1.42-2.48-2.31-4.23-2.68-1.74-.37-3.64-.14-5.69.68-2.05.82-3.88,2.1-5.5,3.81-1.61,1.72-2.85,3.68-3.7,5.87-.85,2.2-1.21,4.41-1.06,6.65.15,2.24.76,4.06,1.84,5.47,1.08,1.41,2.49,2.3,4.23,2.66,1.73.37,3.62.14,5.65-.68,2.03-.82,3.85-2.08,5.46-3.79,1.61-1.71,2.84-3.66,3.7-5.85.86-2.19,1.23-4.41,1.1-6.65h0Zm50,.77c-.36-8.35-.71-16.69-1.06-25.04-.08.03-.16.06-.24.09-3.54,6.3-7.07,12.6-10.58,18.91-3.98-3.42-7.98-6.83-12-10.23-.08.03-.16.06-.24.09.41,8.32.83,16.64,1.24,24.97-2.94,1.14-5.88,2.29-8.82,3.44-.69-13.22-1.39-26.45-2.08-39.68,2.58-1.01,5.16-2.02,7.74-3.02,4.52,3.87,9.01,7.76,13.48,11.66.11-.04.21-.08.32-.12,3.99-7.16,8-14.32,12.04-21.48,2.5-.95,5-1.9,7.51-2.84.53,13.29,1.05,26.58,1.58,39.87-2.97,1.12-5.93,2.24-8.9,3.37h0Zm41.85-15.61c-.06-1.85-.11-3.71-.16-5.56-.03.01-.05.02-.08.03-1,1.99-2.54,4.03-4.63,6.15-2.1,2.11-4.47,3.66-7.12,4.64-2.45.9-4.65,1.19-6.61.86-1.96-.33-3.51-1.19-4.64-2.59-1.14-1.39-1.74-3.11-1.82-5.16-.13-3.37.8-6.54,2.79-9.52,1.99-2.98,4.83-5.52,8.53-7.62,4.2-2.33,8.39-4.66,12.59-6.98,0-.03,0-.06,0-.08-.11-1.86-.89-3.19-2.35-3.97-1.46-.78-3.24-.78-5.34-.01-1.95.72-3.67,1.83-5.16,3.33-1.49,1.5-2.9,3.25-4.21,5.25-1.87-1.15-3.75-2.3-5.63-3.44,1.65-2.8,3.74-5.42,6.24-7.86,2.5-2.44,5.42-4.27,8.74-5.5,3.16-1.16,6-1.52,8.52-1.07,2.51.45,4.48,1.63,5.88,3.52,1.41,1.9,2.15,4.29,2.22,7.17.23,8.45.45,16.9.68,25.35-2.81,1.02-5.62,2.04-8.43,3.07h0Zm-1.03-18.84c-3.28,1.87-6.56,3.75-9.83,5.63-1.72.97-3.04,2.09-3.98,3.36-.94,1.27-1.38,2.51-1.34,3.73.05,1.44.61,2.45,1.69,3.02,1.07.58,2.5.54,4.27-.11,2.66-.98,4.88-2.83,6.67-5.56,1.79-2.73,2.64-5.64,2.55-8.74-.02-.44-.03-.88-.04-1.33h0Zm54.78-17.3c-9.52,3.29-19.05,6.64-28.57,10.03.42,2.37,1.7,4.08,3.82,5.14,2.13,1.07,4.65,1.08,7.57.05,3.86-1.36,7.25-4.08,10.19-8.18,1.78,1.42,3.56,2.84,5.33,4.27-1.44,2.4-3.55,4.79-6.34,7.2-2.79,2.4-5.98,4.23-9.57,5.49-3.65,1.28-7.01,1.54-10.09.76-3.09-.77-5.54-2.44-7.37-5-1.83-2.56-2.79-5.76-2.88-9.58-.09-3.83.7-7.65,2.39-11.47,1.68-3.82,4.01-7.2,6.97-10.12s6.21-5.02,9.75-6.26c3.58-1.26,6.83-1.53,9.73-.81,2.9.72,5.18,2.32,6.85,4.79,1.67,2.47,2.52,5.57,2.57,9.3.02,1.45-.1,2.91-.34,4.4h0Zm-12.27-9.28c-1.68-1-3.81-1.05-6.39-.15-2.68.94-4.89,2.51-6.62,4.69-1.73,2.18-2.91,4.75-3.53,7.71,6.63-2.36,13.27-4.7,19.9-7.02-.57-2.49-1.69-4.23-3.37-5.24h0Zm61.37,9.75c-2.97.97-5.93,1.95-8.9,2.94,0-8.47,0-16.94,0-25.41-.08.03-.16.05-.24.08-3.75,6.19-7.48,12.39-11.2,18.58-3.78-3.68-7.57-7.35-11.39-11-.08.03-.16.05-.24.08.06,8.45.13,16.9.19,25.35-2.94,1-5.88,2-8.82,3.01-.14-13.43-.27-26.86-.41-40.29,2.58-.89,5.17-1.77,7.75-2.65,4.29,4.16,8.55,8.34,12.79,12.54.11-.04.21-.07.32-.11,4.23-7.04,8.47-14.07,12.74-21.11,2.5-.83,5.01-1.65,7.51-2.47-.03,13.49-.07,26.97-.1,40.46h0Zm56.52-45.41c-2.82-2.43-6.08-3.07-9.76-1.93-3.21,1-5.89,3-8.05,6-2.16,3-3.26,6.24-3.3,9.72s.98,6.05,3.06,7.72c2.08,1.66,4.71,2,7.89,1.01,2.09-.65,4-1.73,5.74-3.25,1.74-1.52,3.25-3.23,4.53-5.14,2,1.31,4,2.63,5.99,3.95-1.77,2.78-4.08,5.43-6.92,7.95-2.84,2.53-6.06,4.35-9.65,5.47-3.64,1.13-6.97,1.24-9.99.32-3.02-.92-5.39-2.71-7.1-5.39-1.71-2.67-2.55-5.94-2.51-9.81.04-3.87.95-7.7,2.75-11.49,1.8-3.79,4.25-7.11,7.35-9.96,3.1-2.85,6.5-4.85,10.19-6,3.64-1.13,6.84-1.31,9.6-.54,2.76.77,4.9,2.02,6.43,3.73-2.09,2.54-4.18,5.08-6.26,7.63h0Zm43.34-17.04c-4.23,1.24-8.46,2.48-12.69,3.74-.3,10.58-.6,21.16-.9,31.74-2.94.87-5.88,1.75-8.82,2.63.28-10.57.55-21.14.82-31.71-4.2,1.26-8.4,2.53-12.61,3.81.07-3.01.13-6.03.2-9.04,11.43-3.49,22.86-6.9,34.29-10.24-.1,3.02-.2,6.04-.29,9.07h0Zm41.09,2.73c-9.51,2.64-19.03,5.33-28.54,8.07.28,2.44,1.42,4.28,3.44,5.52,2.02,1.24,4.48,1.44,7.4.62,3.86-1.09,7.33-3.61,10.44-7.56,1.66,1.58,3.32,3.16,4.97,4.74-1.54,2.33-3.75,4.61-6.62,6.84-2.87,2.23-6.1,3.86-9.68,4.87-3.64,1.03-6.94,1.04-9.92.02-2.97-1.02-5.28-2.9-6.92-5.64-1.64-2.74-2.39-6.06-2.26-9.96.13-3.9,1.12-7.73,3-11.49,1.87-3.76,4.34-7.02,7.41-9.78,3.07-2.76,6.37-4.64,9.9-5.64,3.58-1.02,6.77-1.05,9.57-.1,2.79.95,4.93,2.75,6.43,5.39,1.49,2.64,2.15,5.86,1.98,9.65-.07,1.47-.26,2.96-.59,4.45h0Zm-11.47-10.35c-1.59-1.15-3.67-1.36-6.24-.63-2.68.76-4.93,2.19-6.75,4.28-1.82,2.09-3.12,4.62-3.9,7.58,6.63-1.91,13.26-3.79,19.88-5.65-.41-2.57-1.4-4.43-2.99-5.58h0Zm59.07-5.65c-.24,4.1-1.25,7.98-3.03,11.63-1.78,3.66-4.06,6.76-6.83,9.32-2.78,2.55-5.73,4.24-8.85,5.07-2.91.78-5.45.79-7.61.03-2.17-.76-3.68-1.86-4.53-3.31-.05.01-.1.03-.16.04-.39,7.89-.79,15.78-1.18,23.67-2.92.79-5.84,1.59-8.77,2.39.93-19.63,1.85-39.25,2.77-58.88,2.97-.82,5.95-1.63,8.92-2.43-.1,1.93-.19,3.86-.29,5.79.05-.02.11-.03.16-.04,1.03-1.96,2.71-3.93,5.04-5.9,2.33-1.97,4.97-3.35,7.92-4.14,3.16-.84,6.04-.69,8.65.44,2.6,1.14,4.61,3.12,6.02,5.94,1.41,2.83,1.99,6.29,1.75,10.39h0Zm-10.04-3.59c-.86-1.62-2.08-2.75-3.65-3.4-1.57-.65-3.32-.71-5.27-.19-1.94.52-3.76,1.54-5.44,3.05-1.68,1.52-3.05,3.34-4.12,5.48-1.06,2.14-1.65,4.37-1.77,6.7-.12,2.33.26,4.3,1.14,5.91.87,1.61,2.09,2.74,3.65,3.38,1.56.64,3.3.71,5.23.19,1.93-.51,3.73-1.52,5.4-3.03,1.68-1.51,3.05-3.33,4.12-5.46,1.07-2.13,1.67-4.36,1.8-6.69.13-2.33-.24-4.31-1.1-5.93h0Zm54.24-8.67c-.11,1.48-.34,2.97-.7,4.46-9.5,2.32-19,4.69-28.5,7.12.2,2.47,1.29,4.37,3.25,5.69,1.97,1.32,4.4,1.62,7.32.89,3.85-.96,7.37-3.38,10.55-7.25,1.6,1.65,3.2,3.3,4.79,4.96-1.59,2.3-3.85,4.52-6.75,6.67-2.9,2.15-6.14,3.67-9.73,4.57-3.64.91-6.91.8-9.83-.33-2.92-1.13-5.15-3.11-6.7-5.94-1.54-2.82-2.2-6.2-1.97-10.13.24-3.93,1.33-7.75,3.29-11.48,1.96-3.73,4.49-6.93,7.61-9.6,3.12-2.67,6.44-4.45,9.96-5.34,3.58-.9,6.74-.82,9.48.24,2.74,1.06,4.81,2.95,6.22,5.66,1.4,2.71,1.97,5.98,1.69,9.81h0Zm-11.78-6.39c-1.54-1.21-3.6-1.5-6.17-.86-2.68.67-4.94,2.03-6.8,4.07-1.86,2.04-3.21,4.55-4.07,7.51,6.62-1.69,13.24-3.35,19.85-4.99-.34-2.61-1.27-4.52-2.81-5.74h0Zm57.03-3.21c-.33,3.95-1.51,7.78-3.53,11.47-2.02,3.69-4.62,6.84-7.82,9.47-3.19,2.62-6.6,4.35-10.23,5.21-3.63.86-6.89.69-9.78-.5-2.89-1.19-5.09-3.21-6.59-6.08-1.5-2.86-2.11-6.26-1.82-10.2.29-3.94,1.43-7.77,3.42-11.48,2-3.71,4.6-6.89,7.82-9.54,3.22-2.65,6.67-4.41,10.35-5.28,3.68-.86,6.98-.69,9.89.51,2.91,1.21,5.11,3.26,6.58,6.15,1.48,2.89,2.04,6.31,1.71,10.27h0Zm-9.85-3.97c-.81-1.66-2.01-2.84-3.6-3.54-1.59-.69-3.41-.8-5.45-.32-2.04.48-3.95,1.46-5.71,2.95-1.76,1.48-3.19,3.29-4.31,5.4-1.11,2.12-1.76,4.35-1.93,6.69-.18,2.34.15,4.34.97,6,.82,1.65,2.02,2.83,3.6,3.52,1.58.69,3.38.8,5.41.32,2.03-.48,3.92-1.45,5.67-2.93,1.75-1.47,3.19-3.27,4.31-5.38,1.12-2.11,1.77-4.34,1.97-6.69.19-2.35-.12-4.35-.93-6.02h0Zm48.65-15.91c-4.21.9-8.42,1.82-12.63,2.74-.99,10.76-1.98,21.51-2.97,32.27-2.93.64-5.85,1.29-8.78,1.94.96-10.75,1.93-21.5,2.89-32.25-4.19.93-8.37,1.87-12.56,2.82.26-3.06.53-6.13.79-9.2,11.39-2.58,22.77-5.09,34.15-7.53-.29,3.07-.59,6.14-.88,9.21h0Zm35.23-16.36c2.64-.53,5.29-1.06,7.93-1.59-1.5,13.87-2.99,27.75-4.49,41.62-2.92.58-5.85,1.17-8.77,1.76.92-8.69,1.83-17.38,2.75-26.06-.08.02-.16.03-.24.05-7.02,9.92-13.99,19.85-20.91,29.8-2.59.54-5.18,1.09-7.77,1.63,1.35-13.84,2.71-27.69,4.06-41.53,2.94-.62,5.87-1.24,8.81-1.85-.87,8.68-1.74,17.36-2.61,26.04.08-.02.16-.03.23-.05,6.96-9.95,13.96-19.88,21-29.81h0Zm48.49,31.44c-2.94.54-5.89,1.08-8.83,1.63,1.28-10.82,2.56-21.63,3.84-32.45-5.69,1.05-11.37,2.13-17.06,3.22-1.23,10.81-2.45,21.61-3.68,32.42-2.92.56-5.84,1.13-8.76,1.69,1.54-13.88,3.08-27.76,4.62-41.65,11.65-2.27,23.29-4.47,34.92-6.59-1.68,13.91-3.36,27.82-5.04,41.73h0Zm55.02-9.46c-2.91.47-5.82.95-8.74,1.43,1.87-13.94,3.75-27.88,5.62-41.82,2.95-.49,5.9-.97,8.84-1.45-1.91,13.95-3.82,27.9-5.73,41.84h0Zm-14.77-4.44c-1.48,2.4-3.4,4.4-5.75,6.02-2.36,1.61-5,2.67-7.94,3.18-5.34.92-10.68,1.86-16.02,2.81,1.73-13.92,3.45-27.83,5.18-41.75,2.95-.53,5.91-1.05,8.86-1.56-.54,4.28-1.08,8.55-1.62,12.83,2.45-.43,4.89-.85,7.34-1.27,2.96-.51,5.47-.33,7.52.54,2.05.87,3.52,2.3,4.43,4.3.9,2,1.17,4.38.8,7.16-.37,2.78-1.29,5.36-2.77,7.76h0Zm-7.11-10.33c-.92-.91-2.34-1.21-4.26-.88-2.34.4-4.67.81-7.01,1.22-.51,3.99-1.01,7.97-1.51,11.96,2.33-.41,4.66-.81,6.99-1.21,1.91-.33,3.47-1.13,4.67-2.41,1.2-1.28,1.92-2.81,2.16-4.61.23-1.79-.11-3.15-1.03-4.07h0Z"/>
  <g>
    <path class="cls-4" d="m484.21,928.71c-5.41-2.68-10.48-6.1-15.08-10.16-4.73-4.17-9.11-9.15-13.01-14.8h0c-3.9-5.64-7.62-12.36-10.49-18.93-2.5-5.72-4.2-11-4.56-14.12-.04-.39-.12-.79-.23-1.17,0,0-.14-.5-.17-.63,28.67-23.45,58.47-45.79,88.73-66.54,3.7,6.98,8.46,15.96,8.46,15.96,0,0,0,.01,0,.02,6.47,12.13,12.71,21.07,19.08,27.3,7.22,7.08,14.74,10.67,22.35,10.67,4.96,0,9.84-1.53,14.5-4.54h-.01c4.68-3.01,8.28-6.67,10.71-10.88,2.49-4.32,3.75-9.2,3.75-14.52,0-6.08-1.59-12.61-4.86-19.95l.03.06c-3.69-8.5-9.74-15.71-17.98-21.41-7.28-5.04-16.14-8.92-27.06-11.85-17.03-4.57-38.94-6.69-68.94-6.69-14.09,0-28.54.44-42.51.87l-4.5.14h-.02c-2.38.08-4.78.12-7.13.12-19.31,0-37.28-2.57-54.92-7.84-.02,0-.04-.01-.06-.02-9.64-2.79-18.22-6.72-25.5-11.68-7.34-5-13.58-11.2-18.57-18.44,0,0,0,0,0-.02-4.79-6.91-8.43-14.3-10.84-21.95-2.44-7.75-3.67-15.98-3.67-24.48,0-15.45,4.06-32.31,12.08-50.1,0-.01.01-.02.02-.04,8.7-19.6,21.31-38.53,37.48-56.29,16.6-18.22,36.87-35.11,60.24-50.19,21.43-13.81,42.71-24.35,63.27-31.33,19.88-6.74,39.1-10.16,57.13-10.16,2.77,0,5.52.08,8.19.24h-.11c17.91,1.31,32.72,6.07,43.99,14.13,5.42,3.88,10.16,8.62,14.08,14.08,3.92,5.48,7.15,11.86,9.57,18.97,2.7,7.9,4.32,17.24,4.32,24.99,0,2.91-.24,5.51-.68,7.3-.11.45-.18.91-.2,1.38,0,0-.02.36-.03.55-36.56,18.04-72.86,37.98-108.09,59.36-.94-2-2.05-4.35-2.05-4.35l-5.72-12.13v.02c-5.59-11.93-11.71-21.14-18.18-27.36-7.27-6.98-15.21-10.52-23.59-10.52-6.2,0-12.51,1.98-18.75,5.87-.03.02-.07.04-.1.06-5.75,3.72-10.19,8-13.2,12.72-3.2,5.03-4.82,10.56-4.82,16.46,0,6.2,1.82,12.79,5.42,19.6l-.04-.08c15.4,30,61,33.14,109.28,36.46,19.32,1.33,39.3,2.7,57.44,5.83.04,0,.07.01.11.02,20.78,3.29,39.81,10.89,55.03,21.98,7.86,5.73,14.67,12.35,20.24,19.7,5.81,7.66,10.3,16.14,13.36,25.23,0,0,0,.02.01.03,3.95,11.56,5.95,23.37,5.95,35.09,0,9.08-1.2,18.36-3.57,27.59-2.34,9.11-5.88,18.44-10.52,27.73-7.76,15.48-17.35,29.21-29.32,41.97-11.84,12.63-25.74,24.02-42.49,34.81-17.57,11.35-33.66,19.6-49.2,25.21-15.75,5.68-30.49,8.5-45.08,8.62h-.05l-1.82.02c-13.96,0-26.44-2.68-37.09-7.95m310.87-148.56s-.04-.02-.06-.02c-6.6-2.11-12.71-4.8-18.16-7.99-5.49-3.21-10.49-7.03-14.85-11.34-4.44-4.39-8.36-9.43-11.66-14.99-3.4-5.72-6.24-12.16-8.44-19.14-3.92-12.39-5.67-25.63-5.67-33.25,0-2.16.13-3.52.25-4.28.05-.37.08-.74.08-1.11,0,0,0-.6,0-.78,32.07-13.99,64.89-26.63,97.76-37.65,1.61,8,3.73,18.52,3.73,18.52,0,0,0,.01,0,.02,3.27,16.03,7.38,27.85,12.55,36.13,2.89,4.62,6.19,8.21,9.81,10.67,4.03,2.73,8.47,4.12,13.2,4.12,2.53,0,5.15-.4,7.78-1.2h-.02c7.16-2.15,12.66-6.12,16.33-11.79,3.47-5.35,5.23-12.17,5.23-20.29,0-2.97-.23-6.16-.68-9.5v.06c-1.49-11.71-6.88-22.54-16-32.19-7.76-8.21-18.17-15.64-31.81-22.7-24.41-12.63-54.89-21.84-84.37-30.74l-5.92-1.79s-.02,0-.02,0c-20.31-6.1-38.25-14.87-54.85-26.83-.02-.01-.03-.02-.05-.04-8.14-5.76-15.02-12.32-20.45-19.49-5.5-7.26-9.69-15.39-12.45-24.16,0,0,0,0,0-.01-2.95-9.3-4.44-18.7-4.44-27.96,0-11.18,2.18-22.48,6.47-33.59,4.45-11.51,11.28-23.11,20.3-34.47,0,0,.02-.02.02-.03,12.95-16.5,29.34-31.17,48.71-43.61,19.87-12.76,42.82-23.12,68.2-30.8,25.5-7.7,49.78-11.6,72.18-11.6,20.9,0,40.08,3.4,57.01,10.1,8.22,3.4,15.53,7.46,21.74,12.06,6.05,4.48,11.22,9.6,15.35,15.21,4.07,5.52,7.27,11.69,9.5,18.34,2.25,6.67,3.59,14.01,3.99,21.83.08,1.45.12,2.95.12,4.47,0,12.48-2.62,23.92-5.21,28.76-.21.4-.39.81-.53,1.24,0,0-.12.38-.15.45-38.36,6.69-76.97,15.27-114.96,25.56-1.12-7.14-2.45-15.62-2.45-15.62l-.51-3.27v.02c-2.49-16.11-6.5-28.08-12.26-36.58-3.16-4.67-6.89-8.27-11.08-10.72-4.38-2.55-9.26-3.85-14.49-3.85-3.24,0-6.65.5-10.13,1.5-.04,0-.08.02-.12.03-8.24,2.5-14.63,6.6-18.98,12.18-4.42,5.66-6.67,12.72-6.67,20.95,0,3.38.38,7.02,1.14,10.82l-.02-.09c1.59,8.46,5.57,16.44,11.81,23.72,5.37,6.27,12.44,12.11,21.6,17.88,16.4,10.32,36.82,18.71,58.43,27.6,17.35,7.13,35.28,14.5,51.14,23,.03.02.06.03.09.05,18.43,9.56,34.12,22.84,45.39,38.41,5.85,8.08,10.48,16.73,13.76,25.72,3.43,9.39,5.41,19.2,5.89,29.17v.04c.11,2.19.17,4.42.17,6.65,0,14.91-2.71,29.3-8.04,42.76-5.19,13.1-13.04,25.74-23.32,37.58-11.2,12.89-23.63,23.49-37.97,32.4-14.19,8.81-29.91,15.76-48.07,21.24-21.75,6.6-40.79,9.8-58.22,9.8-13.22,0-25.22-1.83-36.66-5.6m479.21-51.05c15.53-48.42,32.18-97.16,49.54-145.03,18.48-50.96,38.27-102.31,58.81-152.63.38-.93.57-1.92.57-2.9,0-1.32-.34-2.64-1.02-3.82-1.18-2.06-3.23-3.46-5.58-3.8-4.89-.72-9.8-1.41-14.57-2.06-.35-.05-.69-.07-1.04-.07-2.66,0-5.16,1.37-6.58,3.66-37.97,61.49-73.16,125.28-104.63,189.65-9.98-.63-20.1-1.12-30.19-1.47-14.38-66.15-32.44-132.17-53.74-196.35-1.05-3.16-4.01-5.29-7.34-5.29-.09,0-.19,0-.28,0-5.07.19-10.03.4-14.74.62-2.17.1-4.19,1.11-5.58,2.78-1.16,1.39-1.78,3.13-1.78,4.92,0,.35.02.7.07,1.06,7.18,51.7,13.37,104.3,18.39,156.36,4.76,49.33,8.6,99.43,11.41,149.05-34.65.31-69.72,2.55-104.48,6.66-.36-16.11-9.16-410.09-9.45-423.29,49.83-6.08,100.17-9.38,149.82-9.83,14.8,62.6,27.26,126.55,37.05,190.19.56,3.63,3.62,6.37,7.3,6.53,2.74.12,5.65.26,8.9.43.13,0,.27,0,.4,0,3.1,0,5.92-1.85,7.13-4.72,26.26-62.37,55.31-124.71,86.38-185.39,49.5,5.23,98.95,13.41,147.21,24.36-4.14,14.47-59.51,208.32-59.51,208.32,0,0-55.96,195.9-59.73,209.07-33.7-7.59-68.19-13.31-102.74-17.03"/>
    <path class="cls-6" d="m457.27,887.57c-5.41-2.7-10.48-6.15-15.08-10.25-4.73-4.21-9.11-9.24-13.01-14.94h0c-3.9-5.69-7.62-12.48-10.49-19.1-2.5-5.77-4.2-11.1-4.56-14.25-.04-.4-.12-.79-.23-1.18,0,0-.14-.5-.17-.63,28.67-23.67,58.47-46.22,88.73-67.16,3.7,7.05,8.46,16.11,8.46,16.11,0,0,0,.01,0,.02,6.47,12.25,12.71,21.26,19.08,27.56,7.22,7.14,14.74,10.76,22.35,10.76,4.96,0,9.84-1.54,14.5-4.59h-.01c4.68-3.03,8.28-6.73,10.71-10.99,2.49-4.36,3.75-9.29,3.75-14.66,0-6.14-1.59-12.73-4.86-20.14l.03.07c-3.69-8.58-9.74-15.85-17.98-21.61-7.28-5.09-16.14-9-27.06-11.96-17.03-4.61-38.94-6.75-68.94-6.75-14.09,0-28.54.45-42.51.88l-4.5.14h-.02c-2.38.08-4.78.12-7.13.12-19.31,0-37.28-2.59-54.92-7.92-.02,0-.04-.01-.06-.02-9.64-2.82-18.22-6.79-25.5-11.79-7.34-5.04-13.58-11.31-18.57-18.62,0,0,0,0,0-.02-4.79-6.98-8.43-14.43-10.84-22.15-2.44-7.82-3.67-16.13-3.67-24.71,0-15.6,4.06-32.61,12.08-50.56,0-.01.01-.02.02-.04,8.7-19.78,21.31-38.89,37.48-56.82,16.6-18.39,36.87-35.44,60.24-50.66,21.43-13.94,42.71-24.58,63.27-31.62,19.88-6.8,39.1-10.26,57.13-10.26,2.77,0,5.52.08,8.19.24h-.11c17.91,1.32,32.72,6.13,43.99,14.27,5.42,3.91,10.16,8.7,14.08,14.21,3.92,5.53,7.15,11.97,9.57,19.14,2.7,7.97,4.32,17.4,4.32,25.22,0,2.94-.24,5.56-.68,7.37-.11.45-.18.92-.2,1.39,0,0-.02.36-.03.55-36.56,18.21-72.86,38.33-108.09,59.91-.94-2.02-2.05-4.39-2.05-4.39l-5.72-12.24v.02c-5.59-12.04-11.71-21.34-18.18-27.62-7.27-7.04-15.21-10.62-23.59-10.62-6.2,0-12.51,1.99-18.75,5.93-.03.02-.07.04-.1.07-5.75,3.75-10.19,8.08-13.2,12.84-3.2,5.07-4.82,10.66-4.82,16.61,0,6.26,1.82,12.91,5.42,19.78l-.04-.08c15.4,30.28,61,33.44,109.28,36.8,19.32,1.34,39.3,2.73,57.44,5.89.04,0,.07.01.11.02,20.78,3.32,39.81,10.99,55.03,22.18,7.86,5.78,14.67,12.47,20.24,19.88,5.81,7.73,10.3,16.29,13.36,25.46,0,0,0,.02.01.03,3.95,11.67,5.95,23.58,5.95,35.41,0,9.16-1.2,18.53-3.57,27.85-2.34,9.2-5.88,18.62-10.52,27.99-7.76,15.63-17.35,29.49-29.32,42.36-11.84,12.75-25.74,24.24-42.49,35.13-17.57,11.46-33.66,19.78-49.2,25.44-15.75,5.74-30.49,8.58-45.08,8.71h-.05l-1.82.02c-13.96,0-26.44-2.7-37.09-8.03m310.87-149.94s-.04-.02-.06-.02c-6.6-2.13-12.71-4.84-18.16-8.06-5.49-3.24-10.49-7.09-14.85-11.45-4.44-4.43-8.36-9.52-11.66-15.13-3.4-5.77-6.24-12.27-8.44-19.32-3.92-12.5-5.67-25.87-5.67-33.56,0-2.18.13-3.55.25-4.32.05-.37.08-.75.08-1.12,0,0,0-.6,0-.79,32.07-14.12,64.89-26.88,97.76-37.99,1.61,8.08,3.73,18.69,3.73,18.69,0,0,0,.01,0,.02,3.27,16.18,7.38,28.11,12.55,36.47,2.89,4.67,6.19,8.29,9.81,10.77,4.03,2.76,8.47,4.15,13.2,4.15,2.53,0,5.15-.41,7.78-1.22h-.02c7.16-2.17,12.66-6.18,16.33-11.9,3.47-5.4,5.23-12.28,5.23-20.48,0-2.99-.23-6.22-.68-9.59v.06c-1.49-11.82-6.88-22.75-16-32.49-7.76-8.29-18.17-15.78-31.81-22.91-24.41-12.75-54.89-22.04-84.37-31.03l-5.92-1.8s-.02,0-.02,0c-20.31-6.15-38.25-15.01-54.85-27.08-.02-.01-.03-.02-.05-.04-8.14-5.81-15.02-12.43-20.45-19.67-5.5-7.33-9.69-15.53-12.45-24.38,0,0,0,0,0-.01-2.95-9.38-4.44-18.88-4.44-28.22,0-11.28,2.18-22.69,6.47-33.9,4.45-11.62,11.28-23.32,20.3-34.79,0,0,.02-.02.02-.03,12.95-16.65,29.34-31.46,48.71-44.01,19.87-12.88,42.82-23.34,68.2-31.08,25.5-7.77,49.78-11.71,72.18-11.71,20.9,0,40.08,3.43,57.01,10.2,8.22,3.44,15.53,7.53,21.74,12.18,6.05,4.52,11.22,9.69,15.35,15.35,4.07,5.57,7.27,11.8,9.5,18.51,2.25,6.73,3.59,14.14,3.99,22.03.08,1.47.12,2.98.12,4.51,0,12.6-2.62,24.14-5.21,29.03-.21.41-.39.82-.53,1.26,0,0-.12.38-.15.46-38.36,6.75-76.97,15.41-114.96,25.79-1.12-7.2-2.45-15.76-2.45-15.76l-.51-3.3v.02c-2.49-16.26-6.5-28.34-12.26-36.92-3.16-4.71-6.89-8.35-11.08-10.82-4.38-2.58-9.26-3.88-14.49-3.88-3.24,0-6.65.51-10.13,1.51-.04,0-.08.02-.12.03-8.24,2.53-14.63,6.66-18.98,12.29-4.42,5.72-6.67,12.83-6.67,21.15,0,3.41.38,7.08,1.14,10.92l-.02-.09c1.59,8.54,5.57,16.59,11.81,23.94,5.37,6.32,12.44,12.23,21.6,18.04,16.4,10.42,36.82,18.89,58.43,27.85,17.35,7.2,35.28,14.64,51.14,23.21.03.02.06.03.09.05,18.43,9.65,34.12,23.05,45.39,38.76,5.85,8.15,10.48,16.89,13.76,25.96,3.43,9.47,5.41,19.38,5.89,29.44v.04c.11,2.21.17,4.46.17,6.71,0,15.05-2.71,29.57-8.04,43.16-5.19,13.22-13.04,25.98-23.32,37.93-11.2,13.01-23.63,23.7-37.97,32.7-14.19,8.89-29.91,15.91-48.07,21.44-21.75,6.66-40.79,9.89-58.22,9.89-13.22,0-25.22-1.85-36.66-5.65m479.21-51.52c15.53-48.87,32.18-98.07,49.54-146.38,18.48-51.43,38.27-103.26,58.81-154.04.38-.94.57-1.93.57-2.93,0-1.33-.34-2.67-1.02-3.85-1.18-2.07-3.23-3.49-5.58-3.84-4.89-.73-9.8-1.43-14.57-2.08-.35-.05-.69-.07-1.04-.07-2.66,0-5.16,1.38-6.58,3.7-37.97,62.07-73.16,126.44-104.63,191.41-9.98-.64-20.1-1.13-30.19-1.48-14.38-66.76-32.44-133.4-53.74-198.17-1.05-3.19-4.01-5.34-7.34-5.34-.09,0-.19,0-.28,0-5.07.19-10.03.4-14.74.63-2.17.1-4.19,1.12-5.58,2.8-1.16,1.4-1.78,3.16-1.78,4.96,0,.36.02.71.07,1.07,7.18,52.18,13.37,105.27,18.39,157.81,4.76,49.78,8.6,100.35,11.41,150.44-34.65.31-69.72,2.57-104.48,6.72-.36-16.26-9.16-413.9-9.45-427.23,49.83-6.13,100.17-9.47,149.82-9.92,14.8,63.18,27.26,127.73,37.05,191.96.56,3.67,3.62,6.43,7.3,6.59,2.74.12,5.65.26,8.9.43.13,0,.27,0,.4,0,3.1,0,5.92-1.87,7.13-4.77,26.26-62.95,55.31-125.87,86.38-187.11,49.5,5.27,98.95,13.54,147.21,24.59-4.14,14.61-59.51,210.25-59.51,210.25,0,0-55.96,197.72-59.73,211.01-33.7-7.66-68.19-13.43-102.74-17.19"/>
  </g>
  <g>
    <path class="cls-1" d="m718.47,1682.57c-7.58-32.93-2.99-71.14,12.6-104.84,8.1-17.58,14.94-31.67,21.54-44.35,18.05-35.25,24.63-65.76,19.58-90.7-4.95-24.35-11.83-35.7-21.64-35.7-1.36,0-2.75.24-4.14.72-13.36,4.03-15.31,16.03-8.39,51.23l7.5,35.61c-20.19,7.2-40.67,14.71-61,22.33-4.53-8.03-8.25-18.28-11.06-30.54-6.83-29.72-3.97-57.02,8.49-81.13,12.52-23.91,31.13-40.35,55.29-48.85,11.9-4.18,23.29-6.3,33.86-6.3,12.61,0,24.38,3.02,35.01,8.99,19.07,11.11,31.38,30.92,36.52,58.87,5.48,29.92-1.33,66.15-18.7,99.41-7.39,13.95-15.32,28.84-23.17,43.05-18.62,34.07-25.8,62.04-21.35,83.13.23,1.08.91,2.01,1.87,2.55.58.32,1.22.49,1.87.49.43,0,.87-.07,1.28-.22,30.42-10.81,61.35-21.36,92-31.38l10.41,56.29c-52.78,17.25-105.98,35.94-158.25,55.61l-10.15-44.26Zm253.16-33.25c-13.54,0-26.17-4.33-37.54-12.87-17.83-12.98-29.66-35.21-35.21-66.12l-27.39-152.78c-5.7-31.71-2.18-58.31,10.76-81.31,12.62-22.5,31.53-37.59,56.19-44.86,8.54-2.51,16.82-3.79,24.61-3.79,14.31,0,27.57,4.32,39.42,12.84,18.07,13.43,29.43,36.18,33.74,67.58,0,0,14.38,104.7,21.24,154.6,4.3,31.36.26,58.48-12.02,80.59-12.31,22.11-29.28,36.09-51.9,42.75-7.58,2.23-14.95,3.37-21.9,3.37Zm-22.22-306.56c-1.16,0-2.38.2-3.74.6-10.39,3.06-12.33,12.73-7.98,39.8l28.65,178.29c3.96,24.6,8.05,32.9,16.24,32.9h0c1.14,0,2.34-.19,3.69-.59,9.8-2.89,11.4-11.69,7.12-39.24-8.34-53.51-27.81-178.54-27.81-178.54-3.35-21.54-6.92-33.21-16.17-33.21Zm143.63,220.32c-4.51-33.94,3.45-71.83,21.83-103.95,9.55-16.75,17.56-30.15,25.2-42.16,20.95-33.41,30.18-63.31,27.44-88.9-1.76-16.41-5.69-38.22-19.36-38.22-.94,0-1.92.11-2.89.34-13.58,2.58-16.61,14.43-12.95,50.55l4.19,36.61c-20.6,5.02-41.41,10.27-61.95,15.64-3.75-8.59-6.5-19.33-8.17-32-4.05-30.64,1.21-57.75,15.65-80.59,14.47-22.61,34.24-37.05,58.76-42.9,8.59-2.05,16.88-3.09,24.63-3.09,16.15,0,30.59,4.51,42.93,13.41,17.83,13.29,28.19,34.6,30.74,63.28,2.71,30.67-7.27,66.33-27.38,97.82-8.51,13.16-17.65,27.21-26.7,40.68-21.4,32.16-30.99,59.44-28.51,81.1.12,1.09.71,2.07,1.61,2.7.65.45,1.42.69,2.19.69.3,0,.6-.04.9-.11,30.97-7.49,62.39-14.67,93.46-21.34l5.2,57.8c-53.5,11.47-107.55,24.35-160.78,38.31l-6.03-45.67Zm274.18-71.2c-.07-1.09-.6-2.1-1.46-2.77-.68-.53-1.51-.81-2.36-.81-.23,0-.46.02-.69.06-28.69,5.25-57.75,10.93-86.43,16.9l-5.47-63.31c9.14-76.84,19.22-154.74,29.99-231.6,39.42-7.69,79.4-14.84,118.94-21.28l10.5,224.52c.05,1.09.56,2.11,1.41,2.79.69.56,1.54.86,2.41.86.2,0,.41-.02.61-.05,5.15-.83,10.31-1.66,15.46-2.47l2.46,58.36c-5.35.84-10.7,1.69-16.05,2.56-1.92.31-3.3,2.01-3.21,3.96l2.69,57.64c-21.67,3.53-43.54,7.29-65.14,11.22l-3.65-56.57Zm-5.71-239.03c-.22,0-.45.02-.68.06-2.61.47-5.22.94-7.83,1.41-1.66.3-2.92,1.65-3.12,3.32-6.78,57.19-13.27,115.36-19.31,172.89-.13,1.2.32,2.4,1.22,3.22.71.66,1.64,1.01,2.59,1.01.24,0,.48-.02.72-.07,8.1-1.54,16.43-3.09,24.75-4.62,1.91-.35,3.26-2.07,3.13-4.01l-4.23-65.57c2.09-34.5,4.31-69.35,6.58-103.56.08-1.18-.39-2.32-1.27-3.11-.71-.63-1.62-.97-2.55-.97Z"/>
    <path class="cls-2" d="m1416.11,1193.53l.27,5.72c3.34,71.5,6.69,143.01,10.03,214.51.1,2.18,1.13,4.21,2.82,5.59,1.37,1.11,3.08,1.71,4.82,1.71.41,0,.82-.03,1.22-.1,3.62-.59,7.37-1.19,11.2-1.79l1.03,24.45,1.1,26.2c-4.15.66-8.4,1.34-12.7,2.03-3.84.62-6.61,4.03-6.43,7.91l1.43,30.55,1.11,23.68c-19.17,3.14-38.49,6.46-57.62,9.92-1.12-17.43-2.25-34.86-3.37-52.28-.14-2.18-1.21-4.2-2.93-5.54-1.36-1.06-3.02-1.62-4.71-1.62-.46,0-.92.04-1.38.12-27.3,4.99-54.94,10.38-82.3,16.04-1.69-19.54-3.37-39.08-5.06-58.62,9.02-75.81,18.96-152.63,29.55-228.43,37.09-7.21,74.67-13.94,111.9-20.05m-81.73,245.05c.48,0,.96-.04,1.43-.14,8.15-1.55,16.46-3.1,24.72-4.61,3.82-.7,6.51-4.15,6.26-8.02l-4.21-65.33c2.08-34.26,4.29-69.01,6.56-103.3.16-2.35-.78-4.64-2.54-6.21-1.42-1.27-3.24-1.95-5.1-1.95-.45,0-.9.04-1.35.12-2.61.47-5.23.94-7.84,1.41-3.31.6-5.84,3.29-6.24,6.63-6.77,57.18-13.27,115.36-19.31,172.94-.25,2.41.65,4.79,2.43,6.43,1.43,1.31,3.28,2.02,5.18,2.02m-168.96-200.36c15.31,0,28.98,4.26,40.64,12.65,17.18,12.83,26.74,32.64,29.22,60.55,1.4,15.86-.54,32.7-5.77,50.08-4.63,15.39-11.9,31.07-21,45.31-8.52,13.17-17.66,27.21-26.7,40.67-21.91,32.92-31.71,61.06-29.12,83.64.25,2.18,1.42,4.15,3.22,5.4,1.3.91,2.83,1.38,4.38,1.38.6,0,1.21-.07,1.8-.21,29.53-7.15,59.47-14,89.13-20.4l2.3,25.6,2.2,24.52c-51.07,11-102.62,23.28-153.43,36.54l-5.46-41.38c-4.4-33.12,3.39-70.13,21.37-101.56,9.52-16.7,17.5-30.05,25.1-41.99,0-.01.02-.03.03-.04,21.4-34.13,30.82-64.86,27.99-91.33-1.22-11.39-4.47-41.64-23.17-41.64-1.21,0-2.44.14-3.68.42-17.93,3.45-19.44,20.41-15.98,54.68,0,.03,0,.07.01.1l.18,1.6c1.21,10.53,2.41,21.07,3.62,31.6-18.48,4.52-37.1,9.22-55.49,14.01-2.98-7.72-5.21-17.09-6.65-27.95-3.99-30.14.95-55.67,15.07-78.01,14.12-22.07,32.58-35.56,56.44-41.25,8.3-1.98,16.29-2.98,23.74-2.98m-202.36,53.19c13.66,0,25.8,3.95,37.13,12.08,17.23,12.83,28.07,34.71,32.23,65.03l1.32,9.59c6.64,48.33,13.28,96.67,19.92,145.01,4.19,30.53.29,56.84-11.57,78.21-11.8,21.19-28.03,34.59-49.64,40.94-7.23,2.13-14.23,3.21-20.81,3.21-12.88,0-24.4-3.96-35.24-12.1-.03-.02-.06-.05-.09-.07-16.96-12.34-28.28-33.76-33.64-63.66l-13.7-76.39-13.7-76.39c-5.53-30.8-2.15-56.56,10.33-78.77,12.11-21.59,30.26-36.08,53.93-43.05,8.19-2.41,16.1-3.63,23.53-3.63h0m19.52,306.74c1.51,0,3.07-.24,4.77-.75,14.72-4.33,13.35-20.77,9.82-43.51-9.27-59.51-18.54-119.02-27.81-178.53-3.1-19.94-6.75-36.45-19.95-36.45-1.53,0-3.11.25-4.83.75-14.26,4.2-14.75,18.73-10.68,44.08l14.59,90.76,14.07,87.52c3.18,19.76,6.88,36.12,20.02,36.12m-211.46-244.29c11.92,0,23.05,2.85,33.08,8.47,18.34,10.7,29.69,29.1,34.68,56.25,2.83,15.45,2.4,32.24-1.29,49.92-3.27,15.68-9.16,31.94-17.02,46.98-7.39,13.95-15.31,28.82-23.17,43.04-19.06,34.88-26.37,63.73-21.73,85.74.46,2.16,1.82,4.02,3.75,5.1,1.16.65,2.45.98,3.74.98.86,0,1.73-.15,2.56-.44,29.01-10.31,58.49-20.38,87.75-29.99,3,16.23,6,32.46,9,48.7-50.4,16.52-101.17,34.36-151.12,53.09l-3.4-14.84-5.77-25.15c-7.4-32.11-2.9-69.42,12.35-102.38,8.07-17.52,14.89-31.56,21.46-44.18,0-.01.02-.03.02-.05,18.45-36.02,25.14-67.37,19.91-93.19-3.38-16.64-9.7-38.76-25.39-38.76-1.76,0-3.55.3-5.32.9-8.16,2.49-12.87,7.94-14.38,16.65-1.38,7.95-.33,19.97,3.41,38.97,0,.03.01.07.02.1l4.09,19.42,2.71,12.87c-18.14,6.49-36.51,13.22-54.77,20.05-3.66-7.24-6.72-16.17-9.12-26.64-6.71-29.22-4.04-54.9,8.14-78.48,12.24-23.37,29.63-38.76,53.18-47.04,11.49-4.04,22.46-6.09,32.59-6.09m652.23-169.27c-42.04,6.8-84.04,14.31-125.97,22.52-10.98,78.32-21.12,156.58-30.42,234.77,1.96,22.67,3.92,45.33,5.87,68,30.15-6.31,60.34-12.23,90.56-17.76,1.31,20.29,2.61,40.57,3.92,60.86,24.2-4.43,48.43-8.6,72.67-12.52-.95-20.35-1.9-40.7-2.85-61.05,6.47-1.05,12.94-2.07,19.41-3.08-.93-22.02-1.85-44.04-2.78-66.06-6.57,1.03-13.14,2.07-19.72,3.13-3.56-76.27-7.13-152.54-10.7-228.8h0Zm-61.85,72.08c-2.3,34.62-4.5,69.22-6.59,103.82,1.42,21.94,2.83,43.87,4.24,65.81-8.26,1.51-16.52,3.05-24.78,4.62,6.04-57.58,12.47-115.2,19.3-172.84,2.61-.47,5.22-.94,7.83-1.41h0Zm-196.09-26.1c-8.07,0-16.58,1.06-25.51,3.19-25.76,6.14-46.07,21.06-61.11,44.57-15.02,23.77-20.4,51.45-16.21,83.14,1.96,14.87,5.34,26.85,9.84,36.01,22.73-5.96,45.48-11.7,68.26-17.23-1.52-13.31-3.04-26.61-4.57-39.91-3.82-37.82.32-44.62,9.94-46.42.72-.17,1.42-.26,2.1-.26,7.88,0,13.06,11.55,15.56,34.8,3.07,28.7-9.89,59.38-26.86,86.44-8.73,13.71-17.07,27.88-25.29,42.31-16.69,29.17-27.46,67.61-22.31,106.36,2.2,16.66,4.4,33.32,6.59,49.98,55.87-14.72,111.93-28.09,168.12-40.08-1.96-21.83-3.92-43.66-5.89-65.49-32.64,6.97-65.24,14.39-97.78,22.26-2.7-23.5,10.28-52.08,27.88-78.52,8.8-13.1,17.63-26.67,26.75-40.76,17.95-28.12,31.12-64.51,27.97-100.22-2.65-29.79-13.32-51.88-32.31-66.04-13.03-9.4-28.13-14.13-45.17-14.13h0Zm-202.36,53.19c-8.18,0-16.75,1.31-25.69,3.94-25.58,7.53-45.32,23.24-58.45,46.65-13.35,23.74-16.98,51.64-11.19,83.87,9.13,50.93,18.26,101.85,27.39,152.78,5.79,32.24,18.11,54.99,36.68,68.5,12.16,9.14,25.45,13.64,39.84,13.64,7.37,0,15.03-1.18,22.98-3.52,23.46-6.91,41.36-21.56,54.16-44.56,12.59-22.69,16.94-50.34,12.46-82.97-7.08-51.53-14.16-103.06-21.24-154.59-4.47-32.62-16.21-55.99-35.29-70.17-12.54-9.02-26.43-13.56-41.65-13.56h0Zm19.53,306.74c-4.82,0-8.58-5.56-12.46-29.68-9.55-59.43-19.1-118.86-28.65-178.29-4.55-28.3-1.22-33.61,5.28-35.52.93-.27,1.82-.44,2.66-.44,5.04,0,8.64,5.91,12.39,29.97,9.27,59.51,18.54,119.02,27.81,178.54,4.41,28.35,1.71,33.18-4.41,34.98-.91.27-1.77.43-2.61.43h0Zm-211.46-244.29c-11.03,0-22.75,2.17-35.13,6.52-25.34,8.91-44.41,25.87-57.42,50.71-12.97,25.09-15.89,52.98-8.82,83.74,3.31,14.44,7.78,25.87,13.14,34.4,22.32-8.39,44.68-16.58,67.08-24.56-2.73-12.94-5.46-25.89-8.18-38.83-7.25-36.85-3.7-44.02,5.81-46.85,1.01-.36,2-.53,2.96-.53,7.5,0,13.46,10.83,17.89,32.63,5.67,27.95-4.6,59.62-19.22,88.17-7.54,14.48-14.65,29.37-21.62,44.51-14.16,30.6-21.53,69.68-12.86,107.3,3.71,16.18,7.42,32.35,11.13,48.53,54.86-20.72,110-40.1,165.37-58.14-3.94-21.3-7.88-42.59-11.81-63.89-32.16,10.48-64.25,21.4-96.26,32.78-4.82-22.86,5.65-52.47,20.95-80.49,7.67-13.89,15.32-28.23,23.21-43.13,15.51-29.7,25.46-67.03,19.07-101.87-5.35-29.07-18.06-49.66-38.41-61.52-11.24-6.31-23.55-9.48-36.88-9.48h0Z"/>
  </g>
  <g>
    <path class="cls-3" d="m677.62,1644.26c-7.58-32.93-2.99-71.14,12.6-104.84,8.1-17.58,14.94-31.67,21.54-44.35,18.05-35.25,24.63-65.76,19.58-90.7-4.95-24.35-11.83-35.69-21.64-35.69-1.36,0-2.75.24-4.14.72-13.36,4.03-15.31,16.03-8.39,51.23l7.5,35.61c-20.19,7.2-40.67,14.71-61,22.33-4.53-8.03-8.25-18.28-11.06-30.54-6.83-29.72-3.97-57.02,8.49-81.13,12.52-23.91,31.13-40.35,55.29-48.85,11.9-4.18,23.29-6.3,33.86-6.3,12.61,0,24.38,3.02,35.01,8.99,19.07,11.11,31.38,30.92,36.52,58.87,5.48,29.92-1.33,66.15-18.7,99.41-7.39,13.95-15.32,28.84-23.17,43.05-18.62,34.07-25.8,62.04-21.35,83.13.23,1.08.91,2.01,1.87,2.55.58.32,1.22.49,1.87.49.43,0,.87-.07,1.28-.22,30.41-10.8,61.34-21.36,92-31.39,3.47,18.76,6.94,37.53,10.41,56.29-52.79,17.25-105.98,35.95-158.25,55.61l-10.15-44.26Zm253.16-33.25c-13.55,0-26.18-4.33-37.54-12.87-17.83-12.98-29.66-35.21-35.21-66.12l-27.39-152.78c-5.7-31.71-2.18-58.31,10.76-81.31,12.62-22.5,31.52-37.59,56.19-44.86,8.54-2.51,16.82-3.79,24.61-3.79,14.31,0,27.57,4.32,39.42,12.83,18.07,13.43,29.43,36.18,33.74,67.58,7.08,51.53,14.15,103.06,21.24,154.6,4.3,31.36.26,58.48-12.02,80.59-12.31,22.11-29.28,36.09-51.9,42.75-7.58,2.23-14.95,3.37-21.89,3.37Zm-22.23-306.56c-1.16,0-2.38.2-3.74.6-10.39,3.06-12.33,12.73-7.98,39.8l28.65,178.29c3.96,24.6,8.06,32.9,16.24,32.9h0c1.14,0,2.34-.19,3.69-.59,9.8-2.89,11.4-11.69,7.11-39.24l-27.81-178.54c-3.35-21.54-6.92-33.21-16.17-33.21Zm143.63,220.32c-4.51-33.94,3.45-71.83,21.83-103.95,9.55-16.75,17.56-30.15,25.2-42.16,20.95-33.41,30.18-63.31,27.44-88.9-1.76-16.41-5.69-38.22-19.37-38.22-.94,0-1.91.11-2.89.34-13.58,2.58-16.61,14.43-12.96,50.55,1.4,12.23,2.8,24.42,4.19,36.61-20.6,5.02-41.41,10.27-61.95,15.64-3.75-8.59-6.5-19.33-8.17-32-4.05-30.64,1.21-57.75,15.65-80.59,14.47-22.61,34.24-37.05,58.76-42.9,8.59-2.05,16.88-3.09,24.63-3.09,16.15,0,30.59,4.51,42.93,13.41,17.83,13.29,28.19,34.6,30.74,63.28,2.71,30.67-7.27,66.33-27.38,97.82-8.51,13.16-17.65,27.21-26.7,40.68-21.4,32.16-30.99,59.44-28.51,81.1.12,1.09.71,2.07,1.61,2.7.65.45,1.42.69,2.19.69.3,0,.6-.04.9-.11,30.97-7.49,62.39-14.67,93.46-21.34l5.2,57.8c-53.52,11.48-107.57,24.35-160.78,38.31l-6.03-45.67Zm274.18-71.2c-.07-1.09-.6-2.1-1.46-2.77-.68-.53-1.51-.81-2.36-.81-.23,0-.46.02-.69.06-28.67,5.25-57.72,10.93-86.43,16.9l-5.47-63.31c9.14-76.84,19.22-154.74,29.99-231.6,39.42-7.69,79.4-14.84,118.94-21.28l10.5,224.52c.05,1.09.56,2.11,1.41,2.79.69.56,1.54.86,2.41.86.2,0,.41-.02.61-.05,5.15-.83,10.31-1.66,15.46-2.47l2.46,58.36c-5.35.84-10.7,1.7-16.05,2.56-1.92.31-3.3,2.01-3.21,3.96l2.69,57.64c-21.67,3.53-43.54,7.29-65.14,11.22l-3.65-56.57Zm-5.71-239.02c-.22,0-.45.02-.68.06-2.61.47-5.22.94-7.83,1.41-1.66.3-2.92,1.65-3.12,3.32-6.77,57.18-13.27,115.35-19.31,172.89-.13,1.2.32,2.4,1.21,3.22.71.66,1.64,1.01,2.59,1.01.24,0,.48-.02.71-.07,8.22-1.56,16.55-3.12,24.75-4.62,1.91-.35,3.26-2.07,3.13-4.01l-4.23-65.57c2.09-34.51,4.31-69.35,6.58-103.56.08-1.18-.39-2.32-1.27-3.11-.71-.63-1.62-.97-2.55-.97Z"/>
    <path class="cls-2" d="m1375.25,1155.23l.27,5.69c3.34,71.51,6.69,143.02,10.03,214.53.1,2.18,1.13,4.21,2.82,5.59,1.37,1.11,3.08,1.71,4.82,1.71.41,0,.82-.03,1.22-.1,3.68-.6,7.39-1.19,11.2-1.79l1.03,24.45,1.1,26.2c-4.16.66-8.41,1.34-12.7,2.03-3.84.62-6.61,4.03-6.43,7.91l1.43,30.53,1.11,23.71c-19.17,3.14-38.49,6.46-57.62,9.92-1.12-17.43-2.25-34.86-3.37-52.28-.14-2.18-1.21-4.2-2.93-5.54-1.36-1.06-3.02-1.62-4.71-1.62-.46,0-.92.04-1.38.12-27.3,4.99-54.94,10.38-82.3,16.04-1.69-19.54-3.37-39.08-5.06-58.62,9.02-75.81,18.96-152.63,29.55-228.43,37.09-7.21,74.67-13.94,111.9-20.05m-81.73,245.05c.48,0,.96-.04,1.43-.14,8.15-1.55,16.46-3.1,24.72-4.61,3.82-.7,6.51-4.15,6.26-8.02l-4.21-65.33c2.08-34.26,4.29-69.02,6.56-103.3.16-2.35-.78-4.64-2.54-6.21-1.42-1.27-3.24-1.95-5.1-1.95-.45,0-.9.04-1.35.12-2.61.47-5.23.94-7.84,1.41-3.31.6-5.84,3.29-6.24,6.63-6.77,57.18-13.27,115.36-19.31,172.94-.25,2.41.65,4.79,2.43,6.43,1.43,1.31,3.28,2.02,5.18,2.02m-168.96-200.36c15.31,0,28.98,4.26,40.64,12.65,17.18,12.83,26.74,32.64,29.22,60.55,1.4,15.86-.54,32.7-5.77,50.08-4.63,15.39-11.9,31.07-21,45.31-8.52,13.17-17.66,27.21-26.7,40.67-21.91,32.92-31.71,61.06-29.12,83.64.25,2.18,1.42,4.15,3.22,5.4,1.3.91,2.83,1.38,4.38,1.38.6,0,1.21-.07,1.8-.21,29.53-7.15,59.47-14,89.13-20.4l2.31,25.66,2.2,24.46c-51.07,11-102.61,23.28-153.43,36.54l-5.46-41.38c-4.4-33.12,3.39-70.13,21.37-101.56,9.52-16.7,17.5-30.05,25.1-41.99l.03-.04c21.4-34.13,30.82-64.86,27.99-91.33-1.22-11.39-4.47-41.64-23.17-41.64-1.21,0-2.44.14-3.68.42-17.93,3.45-19.44,20.41-15.98,54.68,0,.03,0,.07.01.1l.18,1.55c1.21,10.55,2.42,21.1,3.62,31.65-18.48,4.52-37.1,9.22-55.49,14.01-2.98-7.72-5.21-17.09-6.65-27.95-3.99-30.14.95-55.67,15.07-78.01,14.12-22.07,32.58-35.56,56.44-41.25,8.3-1.98,16.29-2.98,23.74-2.98m-202.36,53.19c13.66,0,25.8,3.95,37.13,12.08,17.23,12.83,28.07,34.71,32.23,65.03l.53,3.85c6.9,50.25,13.8,100.49,20.71,150.74,4.19,30.53.29,56.84-11.57,78.21-11.8,21.19-28.03,34.59-49.64,40.94-7.23,2.13-14.23,3.21-20.81,3.21-12.88,0-24.4-3.96-35.24-12.1-.03-.02-.06-.05-.09-.07-16.96-12.34-28.28-33.76-33.64-63.66l-13.9-77.55-13.49-75.23c-5.53-30.8-2.15-56.56,10.33-78.77,12.11-21.59,30.26-36.08,53.93-43.05,8.19-2.41,16.1-3.63,23.53-3.63h0m19.52,306.74c1.51,0,3.07-.24,4.77-.75,14.72-4.33,13.35-20.77,9.82-43.51-9.27-59.51-18.54-119.02-27.81-178.53-3.1-19.94-6.75-36.45-19.95-36.45-1.53,0-3.1.25-4.83.75-14.26,4.2-14.75,18.73-10.68,44.08l14.59,90.76,14.07,87.52c3.18,19.76,6.88,36.12,20.02,36.12m-211.46-244.29c11.92,0,23.05,2.85,33.08,8.47,18.34,10.7,29.69,29.1,34.68,56.25,2.83,15.45,2.4,32.24-1.29,49.92-3.27,15.68-9.16,31.94-17.02,46.98-7.39,13.95-15.31,28.82-23.17,43.04-19.06,34.88-26.37,63.73-21.73,85.74.46,2.16,1.82,4.02,3.75,5.1,1.16.65,2.45.98,3.74.98.86,0,1.73-.15,2.56-.44,29.01-10.31,58.49-20.38,87.75-29.99,3,16.23,6,32.46,9,48.7-50.4,16.52-101.17,34.36-151.12,53.09l-3.49-15.21-5.68-24.79c-7.4-32.11-2.9-69.42,12.35-102.38,8.07-17.52,14.89-31.56,21.46-44.18,0-.01.02-.03.02-.05,18.45-36.02,25.14-67.37,19.91-93.19-3.38-16.64-9.7-38.76-25.39-38.76-1.76,0-3.55.3-5.32.9-8.16,2.49-12.87,7.94-14.38,16.65-1.38,7.95-.33,19.97,3.41,38.97,0,.03.01.07.02.1l4.09,19.42,2.71,12.87c-18.14,6.49-36.51,13.22-54.77,20.05-3.66-7.24-6.72-16.17-9.12-26.64-6.71-29.22-4.04-54.9,8.14-78.48,12.24-23.37,29.63-38.76,53.18-47.04,11.49-4.04,22.46-6.09,32.59-6.09m652.23-169.27c-42.04,6.8-84.04,14.31-125.97,22.52-10.98,78.32-21.12,156.58-30.42,234.77,1.96,22.67,3.92,45.33,5.87,68,30.15-6.31,60.34-12.23,90.56-17.76,1.31,20.29,2.61,40.57,3.92,60.86,24.2-4.43,48.43-8.6,72.67-12.52-.95-20.35-1.9-40.7-2.85-61.05,6.47-1.05,12.94-2.07,19.41-3.09-.93-22.02-1.85-44.04-2.78-66.06-6.57,1.03-13.14,2.07-19.72,3.13-3.56-76.27-7.13-152.54-10.7-228.8h0Zm-61.85,72.08c-2.3,34.62-4.5,69.22-6.59,103.82,1.42,21.94,2.83,43.87,4.24,65.81-8.26,1.51-16.52,3.05-24.78,4.62,6.04-57.58,12.47-115.2,19.3-172.84,2.61-.47,5.22-.94,7.83-1.41h0Zm-196.09-26.1c-8.07,0-16.58,1.06-25.51,3.19-25.76,6.14-46.07,21.06-61.11,44.57-15.02,23.77-20.4,51.45-16.21,83.14,1.96,14.87,5.34,26.85,9.84,36.01,22.73-5.96,45.48-11.7,68.26-17.23-1.52-13.31-3.04-26.61-4.57-39.91-3.82-37.82.32-44.62,9.94-46.42.72-.17,1.42-.26,2.1-.26,7.88,0,13.06,11.55,15.56,34.8,3.07,28.7-9.89,59.38-26.86,86.44-8.73,13.71-17.07,27.88-25.29,42.31-16.69,29.17-27.46,67.61-22.31,106.36,2.2,16.66,4.4,33.32,6.59,49.98,55.87-14.72,111.93-28.09,168.12-40.08-1.96-21.83-3.92-43.66-5.89-65.49-32.64,6.97-65.24,14.39-97.78,22.26-2.7-23.5,10.28-52.08,27.88-78.52,8.8-13.1,17.63-26.67,26.75-40.76,17.95-28.12,31.12-64.51,27.97-100.22-2.65-29.79-13.32-51.88-32.31-66.04-13.03-9.4-28.13-14.13-45.17-14.13h0Zm-202.36,53.19c-8.18,0-16.75,1.31-25.69,3.94-25.58,7.53-45.32,23.24-58.45,46.65-13.35,23.74-16.98,51.64-11.19,83.87,9.13,50.93,18.26,101.85,27.39,152.78,5.79,32.24,18.11,54.99,36.68,68.5,12.16,9.14,25.45,13.64,39.84,13.64,7.37,0,15.03-1.18,22.98-3.52,23.46-6.91,41.36-21.56,54.16-44.56,12.59-22.69,16.93-50.34,12.46-82.97-7.08-51.53-14.16-103.06-21.24-154.59-4.47-32.62-16.21-55.99-35.29-70.17-12.54-9.02-26.43-13.56-41.65-13.56h0Zm19.53,306.74c-4.82,0-8.58-5.56-12.46-29.68-9.55-59.43-19.1-118.86-28.65-178.29-4.55-28.3-1.22-33.61,5.28-35.52.93-.27,1.82-.44,2.66-.44,5.04,0,8.64,5.91,12.39,29.97,9.27,59.51,18.54,119.02,27.81,178.54,4.41,28.35,1.71,33.18-4.41,34.98-.91.27-1.77.43-2.61.43h0Zm-211.46-244.29c-11.03,0-22.75,2.17-35.13,6.52-25.34,8.91-44.41,25.87-57.42,50.71-12.97,25.09-15.89,52.98-8.82,83.74,3.31,14.44,7.78,25.87,13.14,34.4,22.32-8.39,44.68-16.58,67.08-24.56-2.73-12.94-5.46-25.89-8.18-38.83-7.25-36.85-3.7-44.02,5.81-46.85,1.01-.36,2-.53,2.96-.53,7.5,0,13.46,10.83,17.89,32.63,5.67,27.95-4.6,59.62-19.22,88.17-7.54,14.48-14.65,29.37-21.62,44.51-14.16,30.6-21.53,69.68-12.86,107.3,3.71,16.18,7.42,32.35,11.13,48.53,54.86-20.72,110-40.1,165.37-58.14-3.94-21.3-7.88-42.59-11.81-63.89-32.16,10.48-64.25,21.4-96.26,32.78-4.82-22.86,5.65-52.47,20.95-80.49,7.67-13.89,15.32-28.23,23.21-43.13,15.51-29.7,25.46-67.03,19.07-101.87-5.35-29.07-18.06-49.66-38.41-61.52-11.24-6.31-23.55-9.48-36.88-9.48h0Z"/>
  </g>
  <polygon class="cls-7" points="729.3 1337.3 920.26 1235.17 1357.73 1176.56 1255.02 764.77 1276.54 635.93 1133.98 681.97 579.03 728.85 768.77 1101.08 729.3 1337.3"/>
  <g>
    <path class="cls-1" d="m696.11,1306.65c-.79,0-1.57-.24-2.23-.72-1.19-.85-1.78-2.3-1.54-3.74l39.25-234.97-189.16-371.1c-.58-1.14-.55-2.48.06-3.6.62-1.11,1.75-1.85,3.02-1.95l554.51-46.85,142.14-45.9c.39-.12.78-.19,1.18-.19.91,0,1.8.32,2.5.93,1.01.87,1.5,2.21,1.27,3.53l-21.38,128.05,102.51,411.02c.26,1.06.06,2.18-.55,3.08-.61.9-1.58,1.5-2.66,1.64l-436.78,58.51-190.34,101.8c-.57.3-1.19.45-1.8.45Z"/>
    <path class="cls-2" d="m1243.34,601.46h0m0,0l-21.52,128.83,102.7,411.79-437.47,58.61-190.95,102.13,39.46-236.22-189.73-372.23,554.95-46.88,142.56-46.04m0-7.66c-.14,0-.28,0-.41.01-.73.04-1.44.18-2.11.41l-141.55,45.71-554.07,46.81c-2.54.21-4.81,1.68-6.05,3.91-1.24,2.23-1.29,4.93-.13,7.2l188.59,369.98-39.05,233.73c-.48,2.88.72,5.78,3.09,7.48,1.33.95,2.89,1.44,4.47,1.44,1.24,0,2.48-.3,3.61-.9l189.73-101.48,436.1-58.42c2.16-.29,4.09-1.48,5.32-3.29s1.62-4.04,1.09-6.15l-102.32-410.25,21.21-127.03c.1-.48.15-.99.15-1.5,0-4.17-3.33-7.56-7.48-7.65-.06,0-.12,0-.18,0h0Zm0,15.31h0,0Z"/>
  </g>
  <g>
    <g>
      <path class="cls-2" d="m830.83,1294.63c-2.93-.38-6.01-.95-9.41-1.74-13.85-3.22-27.27-9.5-39.9-18.67-9.01-6.54-16.03-15.29-22.09-27.52-3.94-7.95-8.41-15.63-13.28-22.81-8.02-11.82-14.83-24.74-20.84-39.52l-2.89-7.12c-5.3-13.09-10.79-26.63-16.69-39.62-10.05-22.11-13-44.91-14.68-66.25-.19-2.48-.43-4.97-.7-7.52-1.61,1.04-3.22,2.04-4.87,2.99-8.11,4.69-16.39,6.53-24.62,5.45-4.24-.55-8.44-1.89-12.49-3.99-4.68-2.41-8.32-6.16-10.55-8.88-3.57-4.35-6.82-9-9.67-13.84-.18-.27-.35-.54-.49-.83l-.09-.17c-.7-1.21-1.32-2.3-1.9-3.42-.39-.74-.65-1.51-.79-2.3-9.17-20.39-8.56-29.05-7.24-33.1-.02-.69-.01-1.38.02-2.07.06-1.33.35-2.52.73-3.56-.35-1.71-.97-3.73-1.6-5.83-1.81-5.98-4.06-13.4-2.73-21.39,1.84-17.17,8.46-30.77,20.22-41.57l.07-.09c2.19-2.48,5.01-4.71,7.31-6.41,9.33-8.39,14.97-15.94,18.26-24.44,1.02-2.64,1.89-5.35,2.65-8.26-1.2-5.61-3.17-11.69-5.24-17.73-1.37-.92-2.47-2.28-3.06-3.93l-1.44-4c-1.02-2.82-2.03-5.65-3.01-8.48l-.27-.8c-4.48-13.03-9.11-26.5-6.65-41.76,1.69-10.43,5.42-19.52,11.12-27.04.56-2.17,1.1-4.46,1.64-6.72,2.18-9.14,3.71-15.22,6.1-19.01.11-.2.22-.4.35-.59.23-.35.43-.71.64-1.07.72-1.22,1.61-2.75,2.98-4.22,5.14-5.54,11.16-9.9,17.89-12.97,3.91-4.77,7.31-9.75,9.79-13.56-.82-3.81.39-8.31,3.28-10.87,1.42-1.25,2.83-2.52,4.24-3.78,3.2-2.86,6.5-5.82,9.88-8.67,5.9-7.4,14.66-18.4,18.51-24.02-.2-2.13.46-4.29,1.92-5.97.64-.74,1.34-1.46,2.13-2.21,5.69-10.41,22.67-36.01,32.7-50.95.08-.15.2-.36.33-.57,1.02-1.59,2.08-3.1,3.15-4.6l.5-.74c.11-.16.22-.32.34-.47,9.17-12.55,21.14-23.65,35.59-32.97,1.93-1.25,4.17-2.02,6.66-2.29,12.74-5.48,40.8-16.62,54.75-14.79l.55.08c.75.12,1.7.29,2.81.5,1.05.06,2.1.15,3.16.29.59.08,1.17.17,1.76.28,27.58,5.06,55.22,10.59,80.98,15.81,3.29.67,6.27,1.27,9.22,1.66,3.01.39,5.56.5,8.01.34,3.1-.2,6.28-.1,9.45.32,7.4.97,14.97,3.57,23.83,8.2,5.35,2.8,11.46,4.64,19.8,6,33.59,5.44,61.98,19.07,84.38,40.52,12.86,12.32,22.08,27.01,31,41.22l2.93,4.65c1.57,2.51,1.33,4.94,1.02,6.33l10.88,27.37c1.23,1.73,2.42,3.51,3.54,5.29,1.2,1.91,2.36,3.86,3.51,5.8l1.54,2.58c2.04,3.39,1.27,7.76-1.79,10.26l-.49.4c.02,6.08.92,16.27,5.95,24.32,7.16,9.23,14.89,18.34,22.36,27.16,2.93,3.46,5.86,6.91,8.77,10.39,16.76,20.02,33.42,42.4,41.81,70.3.08.22.2.49.31.76.88,2.09,2.53,5.97.75,10.25-.53,1.28-1.51,2.88-3.28,4.24l.95,3.59c2.23.51,5.25,1.49,7.36,4.36,7.94,10.83,15.82,22,24.11,34.15,2.5,3.66,4.69,7.46,6.81,11.13.94,1.62,1.88,3.25,2.85,4.88,2.03,3.39,1.26,7.75-1.79,10.24-.43.35-.87.68-1.31.99,5.1,13.01,13.27,35.12,14.57,46.15,2.11,6.54,3.38,13.17,3.77,19.72.14,2.4-.02,4.67-.18,6.86-.07.93-.14,1.89-.19,2.9-.02.35-.06.7-.12,1.05-2.76,15.17-9.94,29.78-21.34,43.43-2.42,2.9-5.79,3.54-7.6,3.89-.25.05-.51.09-.74.15-.77.24-1.56.36-2.35.36-2.17,2.38-4.53,4.97-6.7,7.39-.04.18-.08.36-.13.54l-.24.9c-.28,1.02-.63,2.34-1.03,3.65-3.4,11.19-10.48,19.73-21.05,25.38-4.06,2.17-7.76,4.47-11,6.83-11.05,8.06-24.27,11.66-40.41,11-6.8-.28-13.77-.41-20.51-.53-2.93-.05-5.86-.11-8.79-.18-2.92-.07-5.8-.28-8.58-.64-13.36-1.75-25.21-6.98-35.34-15.58-1.43,1.3-2.92,2.6-4.49,3.83-8.62,6.77-17.42,9.81-26.9,9.3-.66-.04-1.34-.07-2.38,1.85-7.39,13.56-18.72,22.79-28.83,30.02l-.35.27c-1.13.88-3.24,2.52-6.29,2.82-1.35.14-2.72.12-4.03-.05-1.57-.21-3.02-.63-4.32-1.27-2.05,1.29-4.35,2.75-6.8,4.32-.15.45-.34.89-.57,1.31-.19.35-.36.72-.54,1.08-.66,1.36-1.47,3.05-2.88,4.7-1.52,1.78-3.02,3.58-4.52,5.38-4.74,5.68-9.63,11.55-15.14,16.91-3.97,3.87-8.48,6.66-12.84,9.37-1.35.84-2.71,1.68-4.03,2.55-41.11,27.02-83.98,50.61-124.18,72.07-9.09,4.85-19.32,6.45-31.27,4.89Z"/>
      <path class="cls-2" d="m866.38,575.26c.12.02.24.03.35.05.8.12,1.84.31,3.08.56,1.02.04,2.05.12,3.08.26.45.06.91.13,1.37.21,27,4.95,53.92,10.33,80.83,15.78,3.28.66,6.51,1.32,9.77,1.75s6.29.61,9.56.39c2.69-.18,5.32-.07,7.9.27,7.42.97,14.44,3.84,21.17,7.36,7.02,3.67,14.39,5.53,22.21,6.8,30.41,4.92,57.6,16.82,80.15,38.42,13.5,12.92,22.87,28.8,32.71,44.38.11.17-.11.54-.51,2.22-.11-.08-.23-.15-.34-.23l12.44,31.31c1.33,1.83,2.61,3.72,3.83,5.67,1.71,2.72,3.31,5.5,4.96,8.25-.5.41-1.01.82-1.51,1.24-.66-.65-1.34-1.28-2.03-1.92l.41,1.02s-2.46,20.19,7.11,35.12c10.1,13.04,20.96,25.43,31.55,38.08,17,20.31,32.52,41.64,40.3,67.49.72,2.4,3.26,5.71-.48,7.22-.09.04-.19.04-.31.03-1.1-.14-3.38-2.34-4.66-4.21l6.95,26.33.24.28c-.08-.21-.17-.42-.2-.63-.26-1.75.08-3.58.16-5.38,1.91.63,4.63.66,5.59,1.98,8.18,11.16,16.15,22.49,23.96,33.92,3.39,4.97,6.24,10.31,9.41,15.61-1.75,1.43-3.39,2.14-4.87,1.94-.97-.13-1.87-.65-2.69-1.61l-.02.02s16.78,40.52,18.03,54.48c0,.04,0,.08,0,.12,1.98,5.92,3.27,12.11,3.65,18.53.17,2.78-.22,5.6-.37,8.91-2.69,14.81-9.78,27.98-19.62,39.75-.88,1.05-3.02,1.05-4.57,1.53.13-1.44-.18-3.17.43-4.29-4.57,4.96-13.42,14.6-18.13,20.06,1.07-.67,2.13-1.33,3.2-2-.27.98-.71,2.69-1.22,4.37-2.82,9.3-8.61,16.08-17.19,20.67-4.13,2.2-8.16,4.67-11.94,7.42-10.62,7.74-22.58,10-35.4,9.48-9.81-.4-19.63-.49-29.45-.71-2.63-.06-5.21-.25-7.72-.58-13.91-1.82-26.06-7.82-36.31-18.57-3.24,2.92-6.2,5.89-9.46,8.46-6.29,4.94-13.26,8.06-21.57,7.62-4.45-.24-7.65,2.05-9.79,5.98-6.3,11.55-15.99,19.85-26.48,27.36-.89.63-1.81,1.54-2.79,1.64-.71.07-1.47.07-2.21-.02-.77-.1-1.52-.31-2.13-.67-.45-.26-.04-2.48.37-3.66.12-.36.33-.69.52-1.04-2.64,1.65-10.52,6.58-19.65,12.45.39.44.79.89,1.18,1.33-.82,1.49-1.41,3.18-2.5,4.45-6.27,7.36-12.26,15.03-19.16,21.76-4.51,4.39-10.34,7.46-15.68,10.97-39.86,26.19-81.53,49.26-123.56,71.71-8.57,4.58-17.48,5.19-26.49,4.02-2.87-.38-5.76-.93-8.64-1.6-13.56-3.15-25.79-9.2-37.03-17.36-8.83-6.41-14.83-14.91-19.64-24.62-4.06-8.19-8.69-16.17-13.83-23.74-8.12-11.97-14.62-24.69-20.05-38.05-6.4-15.75-12.67-31.57-19.71-47.04-9.21-20.27-12.27-41.74-13.99-63.59-.52-6.64-1.33-13.26-2.1-20.76-5.75,3.75-10.42,7.11-15.38,9.98-6.38,3.69-12.97,5.32-19.61,4.45-3.28-.43-6.58-1.47-9.87-3.17-3.06-1.58-5.84-4.16-8.05-6.86-3.39-4.13-6.46-8.53-9.17-13.19l-.04-.03s-.07-.13-.17-.35c-.63-1.1-1.27-2.2-1.86-3.33.15.12.29.24.44.35-3.37-7.23-10.68-24.37-7.47-30.67,0,0,0-.01,0-.02-.1-.99-.13-2-.09-3.07.04-.9.46-1.79,1-2.67-.6-7.65-6.43-17.43-4.67-27.39,1.63-15.6,7.45-27.53,18.07-37.12.1-.12.2-.25.31-.36,1.61-1.82,3.85-3.64,6.37-5.5,8.67-7.75,16.28-16.44,20.65-27.75,1.4-3.61,2.5-7.26,3.39-10.94-1.48-7.83-4.43-16.37-7.38-24.85-.53.11-1.06.22-1.58.32-1.47-4.13-2.99-8.25-4.42-12.4-4.31-12.54-8.78-25.12-6.59-38.7,1.56-9.64,5.04-17.91,10.54-24.69,2.57-9.58,4.83-22.1,7.51-25.56-.01-.01-.02-.02-.03-.03.92-1.41,1.65-2.99,2.78-4.21,4.92-5.3,10.64-9.23,16.96-11.84,6.59-7.76,11.83-16.17,14.4-20.21,0,0,0,0,0-.01-.66-.27-1.28-.65-1.57-1.06-.54-.77-.18-3.05.59-3.73,4.84-4.28,9.62-8.68,14.58-12.82,10.09-12.65,21.89-27.44,22.12-30.2,0-.07.05-.2.08-.3-.5.05-1,.1-1.49.14.77-.89,1.62-1.7,2.5-2.47,4.86-9.43,24.73-39.26,33.13-51.76.09-.15.16-.31.25-.45.93-1.46,1.92-2.86,2.92-4.26.38-.56.61-.9.61-.9,0,0,.02-.03.03-.04,9.06-12.46,20.53-22.73,33.62-31.17,1.13-.73,2.49-1.1,4.25-1.12,13.23-5.76,40.18-16.27,51.82-14.75m2.06-15.78c-14.43-1.89-39.01,6.84-57.92,14.94-3.22.51-6.18,1.63-8.83,3.34-15.24,9.83-27.9,21.56-37.64,34.87-.2.26-.39.52-.57.79l-.51.75c-1.04,1.47-2.15,3.04-3.23,4.73-.15.23-.3.48-.44.72-9.78,14.58-25.93,38.93-32.3,50.23-.63.63-1.21,1.25-1.76,1.88-2.14,2.46-3.42,5.46-3.79,8.56-4.01,5.56-11.42,14.89-16.37,21.08-3.26,2.76-6.4,5.58-9.46,8.31-1.4,1.25-2.8,2.5-4.2,3.75-4.16,3.68-6.31,9.3-6.21,14.8-1.89,2.82-4.15,6.03-6.65,9.18-6.99,3.45-13.25,8.13-18.67,13.96-1.95,2.1-3.19,4.21-4.01,5.6-.15.25-.29.51-.45.76-.17.27-.34.54-.5.82-2.99,4.78-4.62,11.2-7.02,21.28-.41,1.7-.82,3.44-1.23,5.1-5.93,8.29-9.84,18.1-11.64,29.23-2.78,17.23,2.4,32.31,6.98,45.61l.27.8c1,2.92,2.05,5.82,3.1,8.73l1.38,3.85c.81,2.28,2.1,4.27,3.72,5.89,1.5,4.44,2.89,8.83,3.87,12.91-.56,1.93-1.18,3.78-1.87,5.57-2.78,7.2-7.7,13.74-15.89,21.15-2.49,1.86-5.5,4.27-8.04,7.09-12.99,12.06-20.33,27.14-22.4,46.06-1.56,9.72,1.07,18.4,3,24.77.33,1.07.69,2.28.99,3.36-.25,1.11-.4,2.24-.45,3.37-.02.49-.03.98-.04,1.48-1.62,6.64-.99,17.18,7.61,36.55.3,1.19.75,2.37,1.34,3.5.62,1.18,1.27,2.33,1.93,3.48.26.51.54,1,.85,1.47,3.03,5.12,6.48,10.05,10.26,14.65,2.71,3.3,7.17,7.86,13.05,10.9,4.87,2.51,9.95,4.13,15.1,4.8,7.97,1.04,15.91-.12,23.69-3.46,1.77,19.92,5.17,42.62,14.98,64.19,5.84,12.85,11.29,26.32,16.57,39.34l2.88,7.11c6.22,15.29,13.29,28.7,21.62,40.99,4.67,6.89,8.96,14.25,12.74,21.88,6.66,13.43,14.46,23.1,24.55,30.43,13.5,9.8,27.89,16.53,42.78,19.99,3.65.85,6.98,1.46,10.18,1.88,13.66,1.79,25.45-.1,36.05-5.76,40.37-21.55,83.42-45.25,124.81-72.44,1.27-.83,2.57-1.64,3.87-2.44,4.5-2.79,9.6-5.96,14.18-10.43,5.79-5.65,10.82-11.67,15.68-17.5,1.49-1.78,2.97-3.56,4.48-5.33,2.08-2.43,3.23-4.83,3.99-6.41.06-.13.12-.25.18-.38.55-.35,1.09-.69,1.62-1.03.73.17,1.48.3,2.24.4,1.92.25,3.89.28,5.87.08,5.31-.54,8.84-3.28,10.35-4.46l.19-.14c10.18-7.29,21.65-16.6,29.77-30.28,9.92-.29,19.44-3.94,28.34-10.88,10.05,7.14,21.46,11.57,34.09,13.22,3.06.4,6.23.64,9.43.71,2.92.07,5.84.12,8.77.17,6.71.12,13.66.25,20.39.53,18.01.73,32.86-3.36,45.42-12.52,2.95-2.15,6.34-4.25,10.06-6.24,12.5-6.68,20.88-16.8,24.91-30.08.38-1.24.72-2.48,1-3.51,1.14-1.27,2.32-2.56,3.48-3.84.11-.03.22-.06.33-.09l.27-.05c2.38-.45,7.97-1.52,12.22-6.6,12.3-14.72,20.06-30.57,23.07-47.11.13-.69.21-1.4.24-2.1.04-.94.11-1.83.17-2.69.17-2.34.36-4.98.19-7.91-.42-6.99-1.73-14.05-3.92-21-1.52-10.84-7.99-29.16-13.05-42.42,3.52-5.03,3.91-11.8.62-17.3-.95-1.59-1.87-3.19-2.79-4.78-2.19-3.8-4.46-7.73-7.13-11.63-8.34-12.22-16.28-23.46-24.27-34.36-1.28-1.75-2.74-3.09-4.23-4.13.04-.1.09-.2.13-.31,3.06-7.37.28-13.93-.77-16.41l-.13-.3c-8.84-29.11-25.99-52.17-43.23-72.77-2.92-3.49-5.86-6.96-8.8-10.43-7.32-8.64-14.89-17.57-21.88-26.55-2.99-4.98-4.13-11.44-4.46-16.62,3.93-5.09,4.48-12.2,1.05-17.92-.51-.84-1.01-1.69-1.51-2.54-1.19-2-2.38-4-3.62-5.98-1.03-1.64-2.11-3.27-3.23-4.87l-9.78-24.6c.25-4.17-1.08-7.39-2.44-9.53-.98-1.55-1.95-3.09-2.92-4.64-9.18-14.62-18.67-29.74-32.24-42.74-23.58-22.59-53.4-36.93-88.61-42.63-7.46-1.21-12.83-2.81-17.39-5.19-9.71-5.07-18.13-7.94-26.48-9.04-3.69-.48-7.39-.61-11.01-.37-1.92.13-3.97.03-6.46-.29-2.67-.35-5.51-.93-8.53-1.54l-.14-.03c-25.82-5.23-53.51-10.77-81.12-15.84-.73-.13-1.46-.25-2.18-.34-1.03-.13-2.09-.24-3.2-.31-1-.19-1.86-.34-2.57-.45-.25-.04-.5-.07-.75-.11h0Z"/>
    </g>
    <g>
      <path class="cls-3" d="m776.27,1247.56l-28.18-46.08-26.04-62.43-17.13-69.66,8.32-85.16,26.76-115.12,21.81-73.2,15.91-46.92,29.09-23.96,79.97-43.25,61.95-.8,94.38,18.64,77.76,47.89,11.67,118.57-4.04,66.08,67.36,66.85-3.19,70.07-70.78,43.29-6.66-10.01-18.32,18.27-30.88,3.27-17.54,30.24-9.83,5.32s-38.38,23.85-53.06,34.99c-14.69,11.14-34.72,33.06-34.72,33.06l-55.93,28.7-51.62,22.59-50.98-13.17-16.08-18.09Z"/>
      <path class="cls-3" d="m770.54,1011.86s-19.19,4.05-22.02,11.06c-2.83,7.01-7.86,17.94-8.45,23.14s-1.5,9.76,1.43,12.37,11.27,19.51,20.02,22.41c8.76,2.9,19.33,2.62,24.53,3.21,5.2.59,8.14-3.15,19.14,1.45,10.99,4.6,10.21,15.13,15.63,15.75,5.42.61,13.63-3.09,16.41-2.77,2.78.31,15.01,2.31,24.68,1.47,9.67-.84,43.38-2.06,42.6,4.87-.78,6.92,12.76,19.76,12.76,19.76,0,0,13.65-12.17,14.21-24.9.52-11.88,2.16-15.95-1.93-21.08-4.09-5.13-16.11-12.08-16.11-12.08l-18.49-22.5s-39.06-3.61-56.61-10.12c-17.55-6.51-34.85-11.23-34.85-11.23l-15.23-8.46s-16.67-3.14-17.71-2.31Z"/>
      <path class="cls-3" d="m964.61,694.88c-11.19-3.05-25.06-9.68-26.46-11.43s-24.95,4.98-27.57,7.08-13.03,10.91-20.54,13.87c-7.51,2.96-11.14,5.26-19.18,7.76-9.97,3.11-9.85,8.22-16.18,8.42-18.19.59-26.28,6.9-40.45,12.48-1.8.71-16.15,2.52-18.81,6.56-2.66,4.03-7.81,5.37-7.81,5.37l-17.36,28.99-19.17,49.85-23.83,85.5-27.81,126.74-15.97,18.23-27.72,4.17-21.02-17.31s-13.18-25.93-9.06-34c4.11-8.07-5.99-20.47-3.74-33.14,2.25-12.67,10.4-28.43,18.38-37.48,7.98-9.05,31.07-17.73,31.4-34.1.33-16.37-10.9-38.44-15.09-56.55-4.19-18.12-5.33-38.43-.05-42.64,5.28-4.21,8.53-35.76,13.23-37.62,14.7-5.81,28.4-28.01,33.13-35.45,4.74-7.44,35.36-43.38,35.73-47.83.38-4.45,37.99-60,37.99-60,0,0,23.03-25.53,33.56-30.4,10.54-4.87,43.65-18.65,56.51-16.64,12.87,2.01,88.87,20.83,88.87,20.83l29.11,3.1,34.96,12.07,29.36,4.78,42.98,24.12,27.93,30.12,11.72,16.06,5.56,5.85,18.6,46.79s-2.47,20.23,7.14,35.17c9.71,15.09,40.82,53.97,40.82,53.97l20.25,36.85,5.3,17.73,6.95,26.33,35.09,41.77-3.51,4.36s16.78,40.52,18.03,54.48c1.25,13.96-2.48,37.13-2.48,37.13l-15.09,24.29s-22.59,24.37-24.11,26.98-43.32,31.63-43.32,31.63l-24.23.81-29.1-3.29-25.68-14.88-.72-24.92,21.71-47.72,17.74-26.53-.71-17.9-18.39-8.03-20.24-22.56-23.96-22.4s-13.33-24.74-7.02-65.51c6.31-40.76,11.37-40.79,11.55-59.57.18-18.78,1.22-30.03,1.22-30.03,0,0-9.64-18.53-12.4-26.83-5.7-17.07-21-27.8-28.69-36.02-12.98-13.88-31.64-12.54-48.2-15.9"/>
      <g>
        <path class="cls-2" d="m696.87,1049.97c-5.75,3.75-10.42,7.11-15.38,9.98-9.54,5.52-19.54,6.41-29.48,1.28-3.06-1.58-5.84-4.16-8.05-6.86-4.28-5.21-8.06-10.83-11.25-16.9,4.69,3.72,9.29,7.55,14.08,11.14,14.48,10.84,34.03,4.73,43.72-3.92,3.08-2.76,5.38-7.44,6.1-11.59,1.93-11.06,2.81-22.31,4.09-33.49.08-.69-.05-1.41-.93-2.46-1.16,1.91-2.53,3.73-3.46,5.75-7.59,16.4-22.2,20.68-38.24,21.12-7.15.2-14.58-1.74-21.52-3.89-7.73-2.39-11.3-8.2-10.94-16.07.09-1.96,1.95-3.85,3-5.77,1.53,1.25,3.67,2.18,4.51,3.79,6.58,12.65,18.6,17.97,32.67,13.9,15.66-4.54,25.28-14.75,29.88-30.55,7.64-26.22,11.12-53.11,14.27-80.08.05-.41-.12-.84-1.35-1.61-1.37,4.27-2.46,8.65-4.15,12.79-4.27,10.48-8.02,21.3-13.48,31.15-4.97,8.98-14.03,14.08-23.53,17.72-1.36.52-3.45-.86-5.21-1.36.74-1.43,1.15-3.73,2.27-4.17,16.76-6.47,24.82-20.02,30.1-36.05,2.04-6.2,4.62-12.23,6.94-18.34,4.36-11.49,8.47-23.08,13.16-34.43,1.82-4.4,4.29-8.92,7.62-12.22,6.02-5.99,8.88-13.33,11.67-20.98,5.88-16.12,12.04-32.14,18.07-48.2.46-1.21.8-2.47,1.59-4.91-9.9,6.02-17.01,13.08-23.14,21.18-10.97,14.47-17.79,31.04-24.09,47.86-1.14,3.05-1.86,6.31-3.4,9.13-.75,1.37-2.94,1.95-4.48,2.88-.7-1.51-2.15-3.12-1.97-4.52,2.66-20.98,10.05-40.18,19.73-59.07,10.7-20.88,26.38-36.51,44.29-50.62.49-.39.96-.81,1.38-1.26.2-.21.27-.54.76-1.58-2.32.38-4.27.42-6.03,1.02-17.46,6.03-35.49,8.05-53.87,8.44-11.69.25-23.42,1.23-33.27,9.04-.26-.28-.51-.56-.77-.84.92-1.41,1.65-2.99,2.78-4.21,8.09-8.71,18.28-13.75,29.87-15.26,17.28-2.26,34.57-3.76,51.68-7.78,15.41-3.62,31.43-4.7,47.22-6.59,4.04-.49,8.21.16,12.33.29.11.39.22.77.33,1.16-7.4,3.92-14.8,7.85-22.2,11.77l.43,1.36c20.02-3.11,39.15-13.87,61.83-7.27-2.57,1.13-3.98,1.95-5.49,2.38-13.65,3.82-27.29,7.7-41,11.31-13.95,3.67-23.42,12.41-29.7,25.12-2.38,4.83-5.14,9.47-7.72,14.19.26.42.52.85.79,1.27,2.12-.52,4.46-.63,6.31-1.64,11.38-6.16,23.68-6.11,36.05-5.62,1.27.05,2.5.9,3.75,1.38.08.44.15.87.23,1.31-1.51.63-2.96,1.54-4.53,1.84-6.09,1.19-12.33,1.79-18.31,3.35-6.43,1.68-11.13,6-15.11,13.02,4.49-.95,8.19-1.21,11.48-2.52,20.19-8.01,28.28,2.83,37.18,15.46,1.54,2.18,2,5-1.48,6.65-.79.37-1.37,1.55-1.7,2.48-1.65,4.6-2.35,4.92-6.68,2.43-3.09-1.77-6.11-3.66-9.16-5.5-3.55,6.25-3.85,6.47-10.33,3-5.53-2.96-11.17-3.18-15.96.45-14.28,10.83-27.66,22.8-34.54,39.87-3.46,8.6-6.14,17.81-7.3,26.99-2.99,23.51-9.79,46.03-15.73,68.82-5.99,22.99-10.91,46.22-11.58,70.1-.35,12.47-.69,24.95-.47,37.42.26,14.27,5.7,27.45,10.01,40.78,6.04,18.72,12.68,37.24,19.12,55.82.54,1.55,1.46,2.96,3.29,4.13-1.1-7.49-2.12-15-3.33-22.47-3.74-23.1-7.66-46.16-11.27-69.28-.93-5.98-1.1-12.09-1.32-18.15-.06-1.59,1.02-3.22,1.58-4.83.41.04.82.07,1.23.11.59,1.53,1.45,3.01,1.74,4.6,7.04,37.38,14.02,74.77,21.01,112.16,4.13,22.07,9.5,43.81,22.15,62.74,14.22,21.28,33.96,33.62,60.18,33.97,8.89.12,17.33-2.1,25.29-5.99,12.91-6.31,25.76-12.72,38.63-19.12,13.72-6.82,21.97-18.3,28.31-31.87,9.37-20.06,19.4-39.81,29.24-59.65.85-1.71,2.31-3.1,3.49-4.64.47.17.95.34,1.42.51-.21,1.64-.11,3.41-.69,4.9-7.58,19.31-15.26,38.59-22.93,57.86-1.41,3.54-2.93,7.03-4.4,10.55.32.34.64.67.96,1.01,4.07-2.14,8.31-4.01,12.18-6.47,23.4-14.84,40.12-35.85,54.16-59.24,3.2-5.33,5.67-11.1,8.76-16.51.77-1.35,2.65-2.07,4.01-3.08-.03,1.68.5,3.62-.16,4.99-5.84,12.07-11.9,24.03-17.87,36.03-.32.63-.43,1.37-.82,2.62,7.71-4.35,14.88-8.39,22.05-12.43.4.45.8.9,1.2,1.35-.82,1.49-1.41,3.18-2.5,4.45-6.27,7.36-12.26,15.03-19.16,21.76-4.51,4.39-10.34,7.46-15.68,10.97-39.86,26.19-81.53,49.26-123.56,71.71-11.31,6.04-23.2,5.18-35.13,2.41-13.56-3.15-25.79-9.2-37.03-17.36-8.83-6.41-14.83-14.91-19.64-24.62-4.06-8.19-8.69-16.17-13.83-23.74-8.12-11.97-14.62-24.69-20.05-38.05-6.4-15.75-12.67-31.57-19.71-47.04-9.21-20.27-12.27-41.74-13.99-63.59-.52-6.64-1.33-13.26-2.1-20.76Z"/>
        <path class="cls-2" d="m781.06,630.89c-4.61,10.97-5.91,21.75,1.23,31.97,7.26,10.41,13.13,21.95,24.82,28.71,9.58,5.54,18.69,11.9,28.11,17.72,6.05,3.73,12.29,7.15,19.45,11.29-8.15.99-14.53-1.19-20.8-3.75-12.96-5.29-24.47-12.99-35.66-21.31-10.72-7.97-22.18-15.07-36.04-15.34-8.42-.16-16.87,1.3-24.91,2,4.99-5.74,12.3-8.88,20.29-11.17,8.46-2.42,16.24-.1,25.43,3.25-1.36-2.1-1.84-3.08-2.53-3.9-6.36-7.49-10.48-16.22-10.97-25.88-.28-5.65.71-12.37,3.67-16.98,9.52-14.85,22.31-26.78,37.18-36.37,1.15-.74,2.53-1.11,4.32-1.13-1.84,1.91-3.61,3.89-5.53,5.71-8.87,8.45-13.49,19.05-15.04,30.94-.34,2.63.96,5.83,2.38,8.27,5.86,10.04,15.57,15.49,25.52,20.53,1.66.84,3.42,1.49,6.24,2.71.34-2.59.92-4.89.89-7.17-.15-9.96-.6-19.92-.67-29.88-.02-3.2.77-6.41,1.19-9.61-.36-.31-.73-.62-1.09-.94-3.13,3.79-6.38,7.5-9.32,11.43-1.28,1.71-1.61,4.18-2.98,5.79-1.19,1.39-3.23,2.06-4.9,3.05-.54-1.84-1.82-3.82-1.51-5.51,2.03-11.09,9.41-18.8,17.46-25.83,6.35-5.54,13.02-10.74,19.72-15.86,8.04-6.15,17.32-9.12,27.28-7.29,27,4.95,53.92,10.33,80.83,15.78,6.42,1.3,12.66,2.58,19.33,2.14,10.41-.68,20,2.89,29.08,7.63,7.02,3.67,14.39,5.53,22.21,6.8,30.41,4.92,57.6,16.82,80.15,38.42,13.5,12.92,22.87,28.8,32.71,44.38.11.17-.11.54-.51,2.22-5.72-4.13-12.57-6.91-15.96-12-5.67-8.51-12.88-14.72-21.13-20.1-25.31-16.53-52.81-24.17-82.87-18.16-21.5,4.3-38.54,15.24-46.43,37.02-1.21,3.34-1.81,6.93-2.46,10.45-.44,2.37-1.05,4.53-3.93,4.13-2.88-.4-2.92-2.6-2.61-5.03,2.76-21.73,15.01-36.61,33.99-46.25,18.67-9.48,38.54-10.48,58.88-7.04,12.4,2.1,24.19,5.96,35.37,11.7.79.4,1.69.58,3.21-.07-2.02-1.71-3.98-3.5-6.08-5.1-18.05-13.81-38.01-23.33-60.76-26.05-5.83-.7-11.85.3-17.73-.15-31.58-2.43-58.35,16.68-66.31,47.63-1.61,6.27-2.99,12.61-5.1,18.78-4.69-18.34-.92-34.86,11.08-49.46,11.83-14.39,27.86-21.62,45.79-25.85-3.33-2.2-8.13-2.04-15.38-1.33-15.11,1.5-26.44,10.57-38.55,18.2-7.1,4.47-13.25,9.9-17.71,17.09-1.17,1.89-2.71,4.27-5,2.3-1.14-.98-1.66-4.31-.87-5.63,4.99-8.41,10.28-16.65,15.8-24.73,1.95-2.86,4.81-5.11,7.26-7.64-.12-.47-.23-.95-.35-1.42-5.76.37-11.57.34-17.26,1.17-20.62,3.02-37.33,13.35-49.96,29.52-10.38,13.29-8.21,27.69.36,41.1,4.6,7.19,10.5,13.55,15.8,20.3,1.54,1.97,4.76,3.89,1.85,6.61-2.67,2.49-4.93.16-6.58-2.03-6.29-8.34-13.11-16.36-18.58-25.22-10.31-16.68-8.36-34.12,5.01-48.65,14.6-15.86,32.42-26.21,53.86-29.88.4-.07.75-.4,2.37-1.3-4.45-1.25-7.89-2.13-11.28-3.17-15.16-4.64-30.7-5.35-46.28-3.76-16.84,1.72-25.7,13.14-31.75,27.66-3.49,8.36-1.2,16.72-.16,24.94,3.23,25.33,12.35,47.97,31.65,65.66.99.91,1.09,2.79,1.6,4.21-1.66.53-3.73,1.94-4.91,1.4-3.19-1.45-6.5-3.28-8.87-5.8-3.92-4.18-7.58-8.75-10.58-13.63-10.46-17.02-25.59-28.8-42.36-38.91-9.83-5.93-19.17-12.45-23.09-24.34Z"/>
        <path class="cls-2" d="m791.21,1228.16c-6.9-4.85-10.64-11.81-13.52-19.22-5.89-15.17-8.21-31.03-8.09-47.22.08-10.13,1.3-20.28,1.01-30.39-.17-5.74-1.21-12.05-3.89-17.01-6.74-12.48-14.31-24.55-22.17-36.37-7.53-11.33-3.18-22.53,2.19-29.99.42-.58,1.22-.89,3.27-2.32.33,5.66.6,10.32.92,15.85,2.65-3.23,4.8-5.86,7.65-9.33,1.53,3.77,2.65,6.55,3.86,9.52,1.51-.26,2.97-.51,4.5-.77,3.4,6.06-2.69,13.66,3.64,19.31.89-1.19,1.69-2.24,2.66-3.53,2.46,1.59,4.81,3.2,7.78.45.79-.73,3.51.62,5.55,1.06,1.04-3.63,2.16-7.53,3.28-11.42.61-.07,1.22-.14,1.83-.2,3.67,7.37,7.06,15.05,17.42,15.58.29-4.13.58-8.29.87-12.44.55-.14,1.1-.29,1.65-.43,3.78,8.79,7.56,17.59,11.33,26.38.53.05,1.06.1,1.59.15,2.71-4.05,5.43-8.1,8.45-12.61,1.71,2.4,2.87,4.02,4.21,5.91,5.04-4.07,5.91,1.17,8.38,4.17,4.88-4.39,9.64-8.68,14.4-12.97.59.31,1.18.61,1.77.92-.72,3.2-1.44,6.4-2.29,10.16,1.36-.45,2.43-.79,3.48-1.16,3.4-1.18,6.7-2.47,10.29-.28,2.42,1.48,4.16.5,5.77-1.91,1.73-2.59,4.16-4.72,6.28-7.06.54.18,1.09.36,1.63.55.42,2.65.63,5.36,1.36,7.91.32,1.1,1.92,2.82,2.59,2.68,4.65-1.01,7.12,1.72,9.01,5.06,1.72,3.05,3.62,4.11,7.37,4.12,2.59.01,5.49,2.75,7.56,4.92.7.73-.6,3.55-1.27,5.32-.46,1.24-1.39,2.3-2.22,3.61,2.66,1.59,7.33,1.51,4.22,6.4,1.37.51,2.49.92,3.77,1.4-.24.67-.29,1.42-.68,1.77-2.16,1.9-2.43,3.43-.17,5.76,2.5,2.58-1.52,12.99-5.1,13.14-1.28.05-3.14-2.15-3.91-3.72-3.9-7.96-3.86-8.08-11.08-2.33-7.37,5.88-13.86,12.54-18.13,22.39,6.99-2.34,13.23-4.43,19.47-6.51.36.54.72,1.07,1.07,1.61-1.43,1.8-2.62,3.86-4.33,5.35-11.77,10.26-23.65,20.39-35.48,30.59-.52.45-.84,1.13-.81,2.68,6.64-1.92,13.24-3.99,19.94-5.67,2.44-.61,5.12-.3,7.68-.41-1.88,1.75-3.49,4.01-5.67,5.18-15.4,8.23-29.02,18.93-42.42,29.97-4.09,3.37-8.31,6.62-12.64,9.66-6.23,4.38-10.2,3.74-16.13-2.6,14.49,1.04,19.33-10.24,25.87-19.34,18.18-25.28,32.82-52.65,47.5-80.01,1.75-3.26,4.38-6.03,6.6-9.04,3.57-4.84,2.65-7.37-3.17-7.92-13.37-1.27-26.76-2.4-40.15-3.45-5.45-.42-9.35,2.47-11.73,7.05-6.5,12.56-10.2,26.09-13.02,39.86-1.47,7.18-2.53,14.45-3.94,21.65-.27,1.36-1.29,2.57-1.97,3.85-.53-.02-1.06-.03-1.6-.05-.41-2.06-1.44-4.22-1.11-6.16,1.37-8.15,3.35-16.2,4.73-24.36,2.22-13.09,4.09-26.23,6.23-39.33.59-3.59-.61-5.82-3.69-7.74-3.41-2.13-6.37-4.96-9.66-7.31-9.32-6.66-16.39-6.2-22.3,2.03-4.56,6.34-6.86,13.35-6.89,21.37-.03,9.19-1.45,18.38-1.52,27.57-.07,8.39.83,16.79,1.37,25.18.38,5.89,1.25,11.77,1.24,17.65-.03,12.07,3.37,23.39,6.82,34.74.21.71.45,1.41.68,2.11Z"/>
        <path class="cls-2" d="m1101.48,1076.16c4.28-8.11,3.62-15.38-3.4-22.6-7.56,9.97-14.92,19.66-22.27,29.35-.59-.21-1.19-.41-1.78-.62.24-1.8.05-3.79.77-5.37,5.36-11.72,10.69-23.47,16.44-35,4.08-8.2,7.08-16.61,8.11-25.73.88-7.77,1.93-15.52,3.02-23.26.38-2.71,1.13-5.36,1.94-9.1,5.83,5.06,10.27,10.04,10.97,16.63.78,7.36,2.74,15.15-2.05,22.15-.34.49.19,1.5.07,2.23-.66,3.92-1.12,7.91-2.19,11.73-1.18,4.23-2.65,8.3.09,13.71,2.68-3.29,5.14-5.97,7.22-8.91,10.86-15.31,15.78-32.37,14.6-51.1-.14-2.24-.88-4.75-2.16-6.55-4.32-6.1-8.83-12.08-13.59-17.84-6.16-7.47-12.62-14.68-18.94-22.01-.41-.47-.97-.99-1.03-1.54-.24-2.08-.31-4.17-.45-6.26,2.03.73,4.73.87,5.99,2.28,7.07,7.92,14.33,15.75,20.49,24.36,8.44,11.8,19.46,19.41,32.24,26.08,18.17,9.47,31.78,24.04,37.7,44.44.68,2.34.84,4.97.6,7.41-1.24,12.67-3.83,25-10.3,36.18-6.05,10.45-15.36,15.08-25.68,12.89-5.95-1.26-11.29-6.82-11.19-12.24.03-1.49,1.64-2.95,2.53-4.43,1.31,1.04,3.41,1.85,3.79,3.16,2.36,8.1,9.56,10.83,16.46,5.87,6.64-4.77,10.2-11.74,12.87-19.14,5.32-14.78,1.19-28.36-6.46-41.02-3.61-5.98-13.22-5.73-17.4-.23-12.5,16.43-24.47,33.18-31.48,52.87-1.36,3.81-2.53,7.71-3.44,11.64-6.07,26.16,19.81,40.82,39.21,36.59,12.99-2.83,21.88-10.71,27.64-22.49,2.75-5.63,5.71-11.17,8.98-16.65,1.89,15.38-3.71,29.58-6.54,44.8,19.18-12.02,38.36-24.04,57.63-36.12-.27.98-.71,2.69-1.22,4.37-2.82,9.3-8.61,16.08-17.19,20.67-4.13,2.21-8.16,4.67-11.94,7.42-10.62,7.74-22.58,10-35.4,9.48-9.81-.4-19.63-.49-29.45-.71-17.18-.38-31.93-6.45-44.03-19.15-3.24,2.92-6.2,5.89-9.46,8.46-6.29,4.94-13.26,8.06-21.57,7.62-4.45-.24-7.65,2.05-9.79,5.98-6.3,11.55-15.99,19.85-26.48,27.36-.89.63-1.81,1.54-2.79,1.64-1.45.15-3.14,0-4.34-.69-.45-.26-.04-2.48.37-3.66.4-1.14,1.16-2.26,2.02-3.12,10.97-10.93,17.69-24.43,23.62-38.45,1.62-3.83,3.69-7.47,5.72-11.56,2.43,2.23,4.45,4.1,6.5,5.95,8.59,7.73,18.85,7.48,25.56-1.91,6.94-9.72,12.83-20.22,18.67-30.67,7.3-13.04,14.15-26.34,21.05-39.6,5.17-9.94,10.56-19.8,14.98-30.08,2.85-6.63-.14-12.51-6.6-14.68-1.64-.55-5.7.98-5.89,2.04-4.69,26.5-21.2,46.92-34.91,68.77-1.76,2.81-3.45,5.67-5.17,8.5-.43-.04-.86-.09-1.29-.13Z"/>
        <path class="cls-2" d="m804.58,1039.68c.11-2.02.19-3.32.3-5.18-4.08,1.72-7.68,3.24-11.79,4.98-.13-6.59,5.81-8.13,7.91-12.22-9.64-11.03-14.18-11.04-24.64-4.47-4.13,2.6-8.09,5.48-12.12,8.24-.47-.37-.94-.74-1.42-1.11.54-1.57.76-3.35,1.65-4.69,13.74-20.62,27.71-41.1,41.3-61.82,3.53-5.38,6.58-11.27,8.68-17.32,1.5-4.3-.53-5.61-5.07-4.67-3.29.68-6.61,1.27-9.91,1.89-.15-.4-.31-.79-.46-1.19,1.08-.65,2.11-1.38,3.23-1.95,10.04-5.12,19.75-10.65,27.45-19.19,13.21-14.66,12.3-32.25,1.93-47.66-2.77-4.12-6.01-7.92-9.02-11.85,4.59-5.17,17.17-3.31,22.64,2.05,8.61,8.45,11.51,19.14,9.06,30.46-1.85,8.55-6.23,16.53-9.16,24.87-5.39,15.32-15.03,27.93-25.1,40.3-7.01,8.61-13.84,17.28-16.66,28.4-4.18,16.52,2.7,31.72,18.1,38.85,7.63,3.54,15.42,2.33,23.28.26,6.6-1.74,13.36-2.91,20.11-4,3.02-.49,6.73,3.54,6.27,6.49-.12.74-1.43,1.97-1.99,1.87-12.47-2.29-24,3.05-36.01,4.38-7.74.86-15.4,2.42-23.09,3.63-1.65.26-3.32.38-5.47.62Z"/>
        <path class="cls-2" d="m1006.75,852.53c-.26,5-2.76,5.78-6.09,4.16-11.14-5.44-22.68-4.75-34.38-2.68-4.48.79-8.96,1.48-12.9-1.88-.64-.54-1.9-.96-2.63-.71-4.87,1.7-8.07-1.38-11.18-4.02-6.93-5.88-14.96-7.91-23.56-6.16-3.12.63-5.6,4.08-8.55,5.98-1.63,1.05-3.62,1.54-5.45,2.28-.46-1.79-1.54-3.69-1.28-5.37,1.4-8.81,9.49-15.43,20.29-16.49,12.87-1.27,25.77-2.22,38.66-3.3,2.8-.24,4.01,1.48,3.22,3.74-1.25,3.6.65,4.02,3.32,4.23,6.53.52,13.14.6,19.57,1.73,9.87,1.73,19.61,4.2,29.8,6.44-1.76-2.54-3.51-5.52-5.69-8.14-8.71-10.44-20.25-16.35-33.04-20.13-8.5-2.51-17.05-4.89-25.57-7.34-.75-.22-1.74-.29-2.16-.8-1.04-1.28-1.82-2.77-2.7-4.18,1.46-.82,3.11-2.57,4.35-2.31,7.77,1.59,15.55,3.29,23.13,5.59,15.23,4.63,29.29,11.5,40.66,23.03,12.24,12.42,17.92,27.66,18.52,44.78.37,10.57-.18,21.18-.43,31.77-.06,2.57-.52,5.31-4.09,5.02-3.68-.31-4.13-3.21-3.56-5.89,2.63-12.44-1.21-23.8-5.48-35.1-2.28-6.03-6.32-10.58-12.76-14.24Z"/>
        <path class="cls-2" d="m919.95,894.56c4.2-2.38,8.1-4.6,12-6.82q-3.29-4.33,1.84-6.97c25.47-13.05,52.92.19,58.78,29.37-2.03-2.12-3.3-3.74-4.84-5.01-5.03-4.16-9.92-8.57-15.33-12.18-6.99-4.66-19.8-2.61-24.99,3.34,2.39.6,4.56,1.13,6.71,1.7,8.91,2.36,16.16,7.38,22,14.34,4.51,5.38,8.65,11.07,12.79,16.74.7.95,1.17,2.88.67,3.67-.55.87-2.35,1.34-3.6,1.33-4.58-.04-8.06-2.11-10.12-6.32-.81-1.65-1.65-3.29-2.92-5.81-1.06,2.06-1.77,3.35-2.39,4.68-3.09,6.66-7.9,9.84-14.61,9.62-7.18-.23-13-4.33-15.4-10.99-2.37-6.6-.28-11.84,5.07-16.04.32-.25.46-.76.95-1.62-5.67-.39-10.3,1.13-14.21,4.7-2.92,2.67-6.05,3.72-10.17,3.53-8.38-.39-16.36-1.69-23.67-6.81-1.84,3.49-3.43,6.5-5.03,9.52-.45-.1-.9-.19-1.35-.29-.1-1.71-.43-3.44-.24-5.12,1.09-9.59,10.99-19.96,20.44-21.35,2.96-.43,6.24-1.15,7.61,2.79Z"/>
        <path class="cls-2" d="m1156.14,776.98c-5.99-9.97-13.85-18.12-22.79-25.18-15.16-11.98-32.06-20.37-51.26-23.71-6.72-1.17-13.48-2.21-20.12-3.73-1.51-.35-2.62-2.48-3.91-3.79,1.6-.99,3.22-2.86,4.8-2.82,7.79.17,15.63.42,23.36,1.41,28.07,3.59,50.24,17.57,66.12,40.58,12.81,18.56,27.73,35.28,42.14,52.49,17,20.31,32.52,41.64,40.3,67.49.72,2.4,3.26,5.71-.48,7.22-1.03.41-4.35-2.86-5.49-5.04-7.67-14.63-13.82-30.21-22.76-44-18.16-28.02-43.94-47.32-74.88-59.74-6.06-2.43-12.19-4.72-18.23-7.2-2.29-.94-5.07-2.12-3.63-5.35,1.22-2.74,3.46-2.02,5.98-1.21,13.42,4.3,26.92,8.33,40.84,12.59Z"/>
        <path class="cls-2" d="m1289.19,1037.26c-2.69,14.81-9.78,27.98-19.62,39.75-.88,1.05-3.02,1.05-4.58,1.53.14-1.5-.23-3.32.49-4.44,5.73-8.78,9.41-18.46,10.88-28.67,4.04-28.07-3.19-52.48-24.53-72.14-6.88-6.34-13.16-13.32-19.55-20.18-12.73-13.67-18.95-30.78-24.05-48.16-5.82-19.84-16.48-36.94-27.62-53.94-.86-1.31-.03-3.73,0-5.63,1.67.55,4.09.56,4.9,1.72,10.5,14.98,21.27,30.08,26.15,47.87,6.01,21.87,18.83,39.01,33.42,55.59,11.11,12.63,21.81,25.79,31.17,39.74,7.53,11.23,12.46,24.12,13.29,38.03.17,2.78-.22,5.6-.37,8.91Z"/>
        <path class="cls-2" d="m658.19,992.77c-20.07-.23-26.73-12.63-26.34-31.42-.45.05-.89.1-1.34.15-2.62,3.81-5.23,7.62-8.58,12.5,1.73-16.56,8.11-29,20.01-38.88,10.6-8.8,20.24-18.51,25.39-31.84,5.75-14.87,6.7-30.31,6.85-46,.15-14.78.79-29.57,1.82-44.31.26-3.64,2.43-7.44,4.56-10.59,6.02-8.91,14.99-14.24,24.87-18.46-1.67,1.66-3.29,3.38-5.02,4.98-13.24,12.23-16.07,28.33-16.82,45.19-.43,9.65-.33,19.35-1.33,28.94-1.65,15.8-3.13,31.71-6.37,47.23-2.13,10.21-8.25,19.08-17.01,25.59-6.34,4.72-13.09,8.81-16.5,16.74-5.61,13.07.38,30.67,13.22,37.05,1.17.58,2.31,1.22,3.46,1.83-.3.43-.6.87-.91,1.3Z"/>
        <path class="cls-2" d="m820.18,909.69c-2.52-4.97-5.05-9.96-7.58-14.94-.42.02-.85.05-1.27.07-2.54,6.96-4.03,15.13-13.08,16.08-3.41.36-7.5-.57-10.46-2.3-5.09-2.98-6.78-8.7-5.27-13.94,1.34-4.62,4.92-8.59,7.48-12.8-5.02-2.44-12.56.57-16.58,6.93-.92,1.45-3.16,3.43-4.19,3.12-1.77-.53-3.8-2.41-4.4-4.17-1.08-3.18-1.17-6.69-1.73-10.42-1.24.27-2.48.54-3.71.81-2.02-5.2,4.04-16.83,10.86-20.95,11.22-6.79,24.08-3.84,34.05,8.43-10.91-5.24-20.19-3.29-28.39,6.04,3.48.13,6.5.46,9.49.32,12.34-.59,21.99,4.53,29.67,13.79,3.08,3.72,5.9,7.67,8.68,11.63,4.4,6.26,3.79,8.32-3.57,12.31Z"/>
        <path class="cls-2" d="m888.42,986.72c1.17.93,2.51,1.71,3.47,2.82,12.81,14.74,25.65,29.45,34.22,47.26.74,1.55,1.85,3.04,2.1,4.67.18,1.18-.5,2.85-1.38,3.68-.42.4-2.8-.27-3.26-1.06-3.61-6.19-6.96-12.54-10.4-18.83-1.7-3.11-3.43-6.2-5.84-10.55-2.56,9.97-5.07,18.65-15,23.16,4.19,2.16,7.82,3.34,10.51,5.61,3.05,2.57,5.27,6.12,7.84,9.26,1.08,1.32,1.99,2.79,3.2,3.97,4.56,4.48,9.17,8.92,13.85,13.28,3.19,2.97,4.68,6.47,4.01,12.25-4.23-2.25-7.97-4.24-12.48-6.64l-1.16,8.91c-.49.09-.98.18-1.47.27-1.11-1.76-2.29-3.48-3.3-5.29-1-1.81-1.82-3.71-2.83-5.82-.66.74-.87.94-1.03,1.16-.9,1.25-1.79,2.51-2.69,3.76-.74-1.4-1.68-2.74-2.19-4.23-1.81-5.28-2.89-10.91-5.34-15.86-3.15-6.37-7.78-11.68-15.17-13.73-1.27-.35-2.34-1.41-4.34-2.66,21.91-15.67,14.11-35.46,7.13-55.15.52-.08,1.04-.17,1.56-.25Z"/>
        <path class="cls-2" d="m975.13,753.35c16.84,4.35,34.69,6.37,50.33,15.66,11.75,6.97,20.96,16.64,29.4,27.16,3.03,3.77,5.99,7.6,8.86,11.5,1.76,2.4,4.85,4.95,1.26,8-3.25,2.76-5.96.9-8.47-1.68-6.22-6.36-12.47-12.7-18.82-18.93-12.36-12.12-25.93-22.59-42.48-28.31-7.33-2.53-15.05-3.89-22.6-5.79-1.35-.34-3.01-.32-3.98-1.13-.99-.82-1.94-2.56-1.75-3.7.2-1.15,1.66-2.6,2.85-2.95,1.55-.45,3.37.06,5.4.17Z"/>
        <path class="cls-2" d="m1257.95,1044.88c-2.86,16.83-11.34,31.21-25.92,41.92-2.36,1.73-4.88,2.35-6.39-.3-.53-.94,1.06-3.96,2.46-4.97,12.93-9.39,20.96-22.04,22.97-37.66,2.12-16.44-2.56-31.62-12.99-44.6-7.92-9.85-16.6-19.09-24.59-28.89-7.58-9.3-13.28-19.65-15.02-31.78-.13-.92-.56-1.95-.3-2.74.46-1.38,1.36-2.61,2.08-3.9,1.32.99,3.7,1.86,3.81,2.98,1.78,17.23,12.02,29.76,22.71,42.16,7.33,8.5,14.87,16.9,21.43,25.98,8.76,12.11,11.6,26.03,9.74,41.81Z"/>
        <path class="cls-2" d="m1105.98,782.01c1.74,1.08,3.1,1.83,4.36,2.71,14.64,10.26,23.43,24.77,29.73,41.07,5.11,13.23,9.96,26.56,15.36,39.68,6.03,14.65,14.15,28.12,24.25,40.38,1.01,1.23,1.88,3.5,1.43,4.82-1.04,3.05-4.02,2.89-6.55-.15-13.72-16.48-23.98-34.93-31.38-55.03-4.47-12.13-8.76-24.36-13.95-36.19-5.46-12.45-13.59-23.06-25.11-30.8-1.06-.71-1.85-2.88-1.6-4.13.2-.97,2.22-1.57,3.47-2.36Z"/>
        <path class="cls-2" d="m1157.45,739.93c-4.02-3.99-8.62-7.54-11.94-12.04-10.69-14.46-24.86-20.99-42.68-20.91-18.52.09-37.04-.41-55.56-.6-12.93-.13-25.85-.08-38.78-.37-1.54-.03-3.04-1.63-4.56-2.51,1.61-1.16,3.16-3.22,4.85-3.33,6.81-.46,13.66-.36,20.49-.4,15.08-.08,30.18-.58,45.23-.04,14.63.52,29.35,1.24,43.79,3.48,16.37,2.53,27.2,13.69,35.71,27.24,1.71,2.72,3.31,5.5,4.96,8.25-.5.41-1.01.82-1.51,1.24Z"/>
        <path class="cls-2" d="m1165.96,924.98c4.28-.16,6.53,1.48,7.32,4.75,2.17,9.06,4.77,18.07,6.16,27.26,2.49,16.44,9.32,30.9,18.09,44.74,6.51,10.28,13.08,20.72,15.16,32.95,1.05,6.19.71,12.67.47,19-.05,1.26-2.45,2.43-3.76,3.65-.95-1.39-2.91-2.94-2.71-4.15,2.8-17.25-4.95-31.25-13.43-45.1-3.91-6.39-7.7-12.85-11.47-19.31-6.52-11.18-8.15-23.73-10.27-36.2-1.19-7.03-3.32-13.91-4.87-20.89-.48-2.13-.46-4.37-.69-6.71Z"/>
        <path class="cls-2" d="m783.1,707.94c-6.61-.86-12.06-1.94-17.56-2.23-16.48-.84-30.8,4.58-43.66,14.88-5.01,4.02-11.05,6.79-16.78,9.83-.84.45-3.08-.4-3.73-1.32-.54-.77-.18-3.05.59-3.73,7.24-6.41,14.3-13.12,22.12-18.76,11.44-8.24,24.61-10.51,38.67-9.97,8.62.33,14.52,3.99,20.34,11.3Z"/>
        <path class="cls-2" d="m1097.22,676.46c-7.61-1-15-2.11-22.43-2.9-18.52-1.99-36.75-.75-54.28,6.01-5.21,2.01-10.14,4.78-15.17,7.25-1.68.82-3.2,2.08-4.95,2.63-2.13.67-4.79,3.21-6.55-.13-1.78-3.36,1.76-4.18,3.59-5.45,16.38-11.35,34.71-16.59,54.51-17.31,14.23-.52,28.3.05,42.19,3.59,3.45.88,4.47,2.37,3.09,6.3Z"/>
        <path class="cls-2" d="m1143.07,914.46c-.89.83-1.56,1.93-2.09,1.86-1.56-.18-3.69-.34-4.48-1.36-3.14-4.07-6.03-8.37-8.7-12.77-15.85-26.1-24.64-54.41-25.94-84.94-.05-1.28,1.79-2.63,2.75-3.95,1.07,1.42,2.97,2.77,3.08,4.26,1.08,14.21,3.32,28.17,7.57,41.8,5.49,17.59,13.57,33.87,24.2,48.9,1.33,1.87,2.33,3.97,3.62,6.2Z"/>
        <path class="cls-2" d="m978.58,777.21c.99.42,1.43.58,1.84.79,18.08,9.14,36.61,17.59,51.76,31.46,5.85,5.36,11.22,11.28,16.35,17.34,1.17,1.39.43,4.41.56,6.67-2-.7-4.82-.78-5.89-2.18-13.98-18.46-32.8-30.35-53.33-40.04-4.08-1.93-8.18-3.92-11.93-6.39-1.36-.9-2.19-3.26-2.35-5.04-.07-.82,2.05-1.84,2.99-2.61Z"/>
        <path class="cls-2" d="m661.76,867.82c-1.47-4.13-2.99-8.25-4.42-12.4-4.31-12.54-8.78-25.12-6.59-38.7,2.93-18.12,12.57-31.44,29.84-38.99-1.84,2.09-3.62,4.24-5.53,6.27-15.28,16.17-20.13,34.65-14.24,56.47,2.33,8.61,1.8,17.99,2.58,27.02-.55.11-1.1.22-1.64.34Z"/>
        <path class="cls-2" d="m978.72,981.71c-1.34-.28-2.8-.32-4.02-.89-9.17-4.22-18.16-8.87-27.47-12.76-12.12-5.06-24.05-10.35-34.02-19.13-3.5-3.08-6.85-6.39-9.88-9.93-.92-1.07-.53-3.27-.73-4.95,1.54.17,3.35-.11,4.57.61,2.39,1.42,4.9,3.04,6.57,5.2,8.89,11.53,21.99,16.53,34.36,22.71,9.32,4.65,18.61,9.37,27.82,14.22,1.37.72,2.27,2.32,3.38,3.51-.19.47-.38.93-.57,1.4Z"/>
        <path class="cls-2" d="m1092.86,872.21c1.86,2.61,3.15,3.81,3.67,5.29,1.19,3.37,2.22,6.83,2.95,10.33,3.71,17.97,13.59,32.68,24.54,46.85,1.23,1.59,2.58,3.24,3.21,5.09.42,1.24-.33,2.87-.56,4.33-1.41-.37-3.44-.26-4.15-1.18-13.53-17.48-26.04-35.53-30.39-57.86-.48-2.44-1.8-4.77-1.93-7.2-.08-1.47,1.35-3.02,2.66-5.65Z"/>
        <path class="cls-2" d="m1275.44,954.86c-3.09,2.53-5.87,2.85-7.97-.17-9.85-14.19-19.55-28.49-29.29-42.77-.7-1.03-1.68-2.06-1.85-3.2-.26-1.75.08-3.58.16-5.38,1.91.63,4.63.66,5.59,1.98,8.18,11.16,16.15,22.49,23.96,33.92,3.39,4.97,6.24,10.31,9.41,15.61Z"/>
        <path class="cls-2" d="m932.91,1163.9c-3.58-7.04-3.82-14.18-1.77-21.43.89-3.13,2.1-6.2,3.46-9.16,3.52-7.66,2.41-14.86-1.68-21.92-.79-1.36-1.22-2.93-1.96-4.75,1.46-.08,1.82-.22,2.06-.1,5.91,3.03,12.57,18.39,10.56,24.66-3.46,10.81-7.04,21.58-10.68,32.69Z"/>
        <path class="cls-2" d="m900.89,640.23c-.52,6.43-1.29,12.95-1.52,19.48-.32,9.44,2.66,17.76,9.52,24.49.56.55,1.43,1.07,1.53,1.71.25,1.5.12,3.07.15,4.61-1.5-.08-3.48.44-4.42-.32-6.79-5.51-10.68-12.82-12.39-21.36-1.89-9.48.46-18.12,5.05-26.34.45-.8,1.09-1.5,1.7-2.18.16-.18.57-.12.38-.09Z"/>
        <path class="cls-2" d="m776.11,916.29c-4.56-1.6-7.98-3.07-11.54-3.97-4.26-1.07-7.07.94-7.77,5.21-.49,3.04-.23,6.2-.59,9.27-.16,1.37-1.02,2.65-1.57,3.97-1.09-.75-2.48-1.27-3.2-2.28-3.94-5.52-3.5-11.64-.92-17.32,1.88-4.14,5.13-7.66,7.88-11.63,5.97,5.64,11.44,10.81,17.71,16.73Z"/>
        <path class="cls-2" d="m1002.08,952.2c-8.61,7.73-24.98,10.86-27.96,3.2,9.05-1.06,17.71-4.15,27.96-3.2Z"/>
        <path class="cls-2" d="m934.99,942.51c-5.6-4.42-11.19-8.84-16.79-13.26,4.02-1.42,7.42-2.24,9.43,2.31,1.75,3.97,3.98,7.74,5.99,11.59.46-.21.91-.43,1.37-.64Z"/>
      </g>
    </g>
  </g>
  <g>
    <path class="cls-2" d="m1185.03,1095.8c-1.69-1.23-3.9-1.83-6.63-1.83s-5.08.6-7.08,1.83c-1.98,1.21-3.29,2.75-3.87,4.58h20.45c-.22-1.83-1.18-3.36-2.87-4.58Zm0,0c-1.69-1.23-3.9-1.83-6.63-1.83s-5.08.6-7.08,1.83c-1.98,1.21-3.29,2.75-3.87,4.58h20.45c-.22-1.83-1.18-3.36-2.87-4.58Zm0,0c-1.69-1.23-3.9-1.83-6.63-1.83s-5.08.6-7.08,1.83c-1.98,1.21-3.29,2.75-3.87,4.58h20.45c-.22-1.83-1.18-3.36-2.87-4.58Zm0,0c-1.69-1.23-3.9-1.83-6.63-1.83s-5.08.6-7.08,1.83c-1.98,1.21-3.29,2.75-3.87,4.58h20.45c-.22-1.83-1.18-3.36-2.87-4.58Zm0,0c-1.69-1.23-3.9-1.83-6.63-1.83s-5.08.6-7.08,1.83c-1.98,1.21-3.29,2.75-3.87,4.58h20.45c-.22-1.83-1.18-3.36-2.87-4.58Zm0,0c-1.69-1.23-3.9-1.83-6.63-1.83s-5.08.6-7.08,1.83c-1.98,1.21-3.29,2.75-3.87,4.58h20.45c-.22-1.83-1.18-3.36-2.87-4.58Zm0,0c-1.69-1.23-3.9-1.83-6.63-1.83s-5.08.6-7.08,1.83c-1.98,1.21-3.29,2.75-3.87,4.58h20.45c-.22-1.83-1.18-3.36-2.87-4.58Zm0,0c-1.69-1.23-3.9-1.83-6.63-1.83s-5.08.6-7.08,1.83c-1.98,1.21-3.29,2.75-3.87,4.58h20.45c-.22-1.83-1.18-3.36-2.87-4.58Zm0,0c-1.69-1.23-3.9-1.83-6.63-1.83s-5.08.6-7.08,1.83c-1.98,1.21-3.29,2.75-3.87,4.58h20.45c-.22-1.83-1.18-3.36-2.87-4.58Zm0,0c-1.69-1.23-3.9-1.83-6.63-1.83s-5.08.6-7.08,1.83c-1.98,1.21-3.29,2.75-3.87,4.58h20.45c-.22-1.83-1.18-3.36-2.87-4.58Zm112.54-22.06c-1.46-1.64-3.55-2.59-5.74-2.59h-8c1.2-1.07,2.29-2.24,3.29-3.48,3.28-4.1,5.26-8.69,5.88-13.65.26-2.18-.41-4.38-1.87-6.03-1.46-1.64-3.56-2.58-5.76-2.58h-17.9c-2.36,0-4.5,1.08-5.91,2.78-.06-.06-.11-.12-.17-.18-1.46-1.66-3.55-2.59-5.76-2.59h-3.91l4.05-33.02c.28-2.18-.41-4.38-1.86-6.02-1.46-1.65-3.56-2.58-5.76-2.58h-7.98c1.18-1.09,2.27-2.26,3.28-3.5,3.29-4.1,5.25-8.69,5.87-13.65.26-2.18-.42-4.38-1.88-6.02-1.46-1.66-3.55-2.59-5.74-2.59h-17.92c-2.36,0-4.5,1.08-5.91,2.78-.05-.06-.11-.12-.17-.18-1.46-1.66-3.55-2.59-5.74-2.59h-17.92c-3.87,0-7.14,2.89-7.62,6.74-.63,5.18.29,10.03,2.75,14.45.92,1.66,2.03,3.18,3.3,4.58h-11.76c-3.89,0-7.14,2.89-7.62,6.74l-1.18,9.58c-3.15-5.56-7.98-9.99-14.38-13.16-6.19-3.05-13.57-4.6-21.95-4.6-7.11,0-13.85,1.12-20.01,3.32-6.28,2.24-11.7,5.39-16.15,9.35-2.99,2.67-3.42,7.2-1,10.39l8.86,11.61c.28.35.57.68.91.98-.63.34-1.21.77-1.73,1.29l-11.7,11.61c-2.9,2.87-3.04,7.54-.31,10.58,2.21,2.46,4.83,4.61,7.86,6.45.49.31.81.86.81,1.49,0,.97-.78,1.75-1.75,1.75h-25.21c-3.87,0-7.14,2.9-7.62,6.74l-6.65,54.17c-.28,2.19.41,4.38,1.87,6.03,1.44,1.64,3.55,2.58,5.74,2.58h25.21c3.87,0,7.14-2.89,7.62-6.74l.58-4.78,5.42,8.11c1.43,2.13,3.82,3.41,6.39,3.41h28.08c2.84,0,5.45-1.57,6.79-4.1.11-.22.21-.43.29-.65.89.54,1.81,1.03,2.76,1.49,6.25,3.04,13.8,4.59,22.46,4.59,5.97,0,11.68-.68,16.95-2.01,5-1.26,9.64-2.96,13.73-5.3,1.8-1.03,3.92-.48,5.07,1.7.32.6.69,1.17,1.13,1.69,1.46,1.64,3.55,2.58,5.74,2.58h21.34c2,0,3.9-.77,5.34-2.15l8.23-7.97-.18,1.51c-.28,2.19.41,4.38,1.87,6.03,1.44,1.64,3.55,2.58,5.74,2.58h25.09c3.88,0,7.16-2.89,7.63-6.74l6.65-54.17c.26-2.18-.42-4.38-1.87-6.02Zm-41.95-20.67c-.18,1.55.23,2.86,1.25,3.92,1,1.08,2.36,1.61,4.05,1.61s3.16-.54,4.39-1.61c1.25-1.06,1.95-2.36,2.15-3.92h17.9c-.43,3.53-1.84,6.8-4.24,9.78-2.39,2.98-5.5,5.34-9.32,7.08-3.84,1.73-8.03,2.59-12.59,2.59s-8.27-.78-11.56-2.35c-.17-.08-.34-.15-.51-.25-1.01-.52-1.95-1.09-2.81-1.73-1.08-.77-2.01-1.64-2.84-2.59h0c-.75-.86-1.4-1.76-1.94-2.75-1.66-2.98-2.27-6.25-1.84-9.78h17.9Zm-61.58-67.38h17.92c-.2,1.55.22,2.85,1.23,3.91,1.01,1.08,2.36,1.61,4.05,1.61s3.16-.54,4.41-1.61c1.23-1.06,1.95-2.36,2.14-3.91h17.92c-.45,3.53-1.86,6.8-4.25,9.78-2.38,2.99-5.5,5.34-9.32,7.08-3.82,1.74-8.01,2.6-12.59,2.6s-8.66-.86-12.07-2.6c-3.39-1.73-5.93-4.08-7.58-7.08-1.66-2.98-2.27-6.25-1.84-9.78Zm-13.33,25.76h25.21l-2.75,22.32h.55l23.2-22.32h21.22l-4.16,33.94h-6.26c-3.88,0-7.14,2.89-7.62,6.74-.6,4.79.17,9.32,2.24,13.46h-15.94l2.75-22.43h-.55l-23.2,22.43h-21.34l6.65-54.15Zm-12.22,59.43c-3.67.73-7.14,1.86-10.38,3.33-.91.42-1.78.85-2.64,1.29-1.23-2.6-3.82-4.28-6.73-4.35.85-.32,1.68-.66,2.49-1.03,6.49-2.87,11.85-6.8,15.98-11.68l-.77,6.23c-.28,2.18.41,4.38,1.86,6.02.06.06.12.14.18.19Zm-68.34-14.56l11.7-11.61c1.36,1.53,3.51,2.92,6.46,4.15,2.95,1.21,6.11,1.83,9.5,1.83s6.14-.57,8.49-1.66c2.35-1.12,4.15-2.58,5.4-4.44h-21l1.51-12.16h21c-1.87-4.04-6-6.08-12.42-6.08-3.32,0-6.52.6-9.66,1.78-3.13,1.18-5.73,2.58-7.75,4.19l-8.86-11.61c3.72-3.32,8.26-5.93,13.62-7.85,5.36-1.92,11.16-2.87,17.43-2.87,7.23,0,13.4,1.27,18.55,3.81,5.14,2.55,8.9,5.99,11.29,10.33,2.38,4.36,3.24,9.15,2.59,14.37-.65,5.23-2.69,10.01-6.13,14.32-3.44,4.32-8.02,7.74-13.74,10.27-5.74,2.55-12.25,3.82-19.54,3.82-6.34,0-11.93-.97-16.78-2.87-4.85-1.92-8.73-4.5-11.65-7.74Zm14.57,76.66l-12.05-18.01-6.39,5.19-1.57,12.82h-25.21l6.65-54.16h25.21l-2.09,16.92,19.88-16.92h29.4l-27.51,22.45,21.75,31.72h-28.08Zm97.2-28.51c-.35,2.87-.88,5.08-1.58,6.63h-44c.54,1.61,1.87,3.09,3.99,4.42,2.12,1.32,5.25,1.98,9.38,1.98,2.95,0,6.03-.38,9.26-1.15,3.22-.78,6.06-1.78,8.49-3.04l5.33,14.26c-3.73,2.14-7.92,3.79-12.6,4.98-4.67,1.17-9.7,1.76-15.08,1.76-7.52,0-13.89-1.27-19.1-3.82-5.22-2.53-9.05-5.96-11.45-10.27-2.43-4.31-3.3-9.09-2.67-14.32.64-5.22,2.64-10.01,5.97-14.37,3.33-4.35,7.82-7.79,13.43-10.33,5.62-2.54,11.99-3.81,19.15-3.81s13.31,1.23,18.28,3.7c4.96,2.47,8.55,5.77,10.78,9.89,2.21,4.13,3.02,8.63,2.43,13.5Zm4.83-26.59l-1.04,8.52c-2.99-5.1-7.55-9.2-13.59-12.19-1.18-.58-2.39-1.11-3.67-1.58.85-.35,1.61-.86,2.27-1.5l8.23-7.97-.18,1.52c-.26,2.18.42,4.38,1.87,6.02,1.46,1.64,3.55,2.58,5.76,2.58h2.69c-1.24,1.17-2.12,2.78-2.34,4.6Zm68.4,55.1h-25.09l2.76-22.43h-.57l-23.2,22.43h-21.34l6.66-54.16h25.19l-2.74,22.34h.55l23.18-22.34h21.23l-6.66,54.16Zm-100.13-37.19c-1.69-1.23-3.9-1.83-6.63-1.83s-5.08.6-7.08,1.83c-1.98,1.21-3.29,2.75-3.87,4.58h20.45c-.22-1.83-1.18-3.36-2.87-4.58Zm0,0c-1.69-1.23-3.9-1.83-6.63-1.83s-5.08.6-7.08,1.83c-1.98,1.21-3.29,2.75-3.87,4.58h20.45c-.22-1.83-1.18-3.36-2.87-4.58Zm0,0c-1.69-1.23-3.9-1.83-6.63-1.83s-5.08.6-7.08,1.83c-1.98,1.21-3.29,2.75-3.87,4.58h20.45c-.22-1.83-1.18-3.36-2.87-4.58Zm0,0c-1.69-1.23-3.9-1.83-6.63-1.83s-5.08.6-7.08,1.83c-1.98,1.21-3.29,2.75-3.87,4.58h20.45c-.22-1.83-1.18-3.36-2.87-4.58Zm0,0c-1.69-1.23-3.9-1.83-6.63-1.83s-5.08.6-7.08,1.83c-1.98,1.21-3.29,2.75-3.87,4.58h20.45c-.22-1.83-1.18-3.36-2.87-4.58Zm0,0c-1.69-1.23-3.9-1.83-6.63-1.83s-5.08.6-7.08,1.83c-1.98,1.21-3.29,2.75-3.87,4.58h20.45c-.22-1.83-1.18-3.36-2.87-4.58Zm0,0c-1.69-1.23-3.9-1.83-6.63-1.83s-5.08.6-7.08,1.83c-1.98,1.21-3.29,2.75-3.87,4.58h20.45c-.22-1.83-1.18-3.36-2.87-4.58Z"/>
    <path class="cls-3" d="m1285.36,1053.08c-.43,3.53-1.84,6.8-4.24,9.78-2.39,2.98-5.5,5.34-9.32,7.08-3.84,1.73-8.03,2.59-12.59,2.59s-8.27-.78-11.56-2.35c-.17-.08-.34-.15-.51-.25-1.01-.52-1.95-1.09-2.81-1.73-1.08-.77-2.01-1.64-2.84-2.59h0c-.75-.86-1.4-1.76-1.94-2.75-1.66-2.98-2.27-6.25-1.84-9.78h17.9c-.18,1.55.23,2.86,1.25,3.92,1,1.08,2.36,1.61,4.05,1.61s3.16-.54,4.39-1.61c1.25-1.06,1.95-2.36,2.15-3.92h17.9Zm-14.77,25.75l-23.18,22.34h-.55l2.74-22.34h-25.19l-6.66,54.16h21.34l23.2-22.43h.57l-2.76,22.43h25.09l6.66-54.16h-21.23Zm-58.66,25.65c-.35,2.87-.88,5.08-1.58,6.63h-44c.54,1.61,1.87,3.09,3.99,4.42,2.12,1.32,5.25,1.98,9.38,1.98,2.95,0,6.03-.38,9.26-1.15,3.22-.78,6.06-1.78,8.49-3.04l5.33,14.26c-3.73,2.14-7.92,3.79-12.6,4.98-4.67,1.17-9.7,1.76-15.08,1.76-7.52,0-13.89-1.27-19.1-3.82-5.22-2.53-9.05-5.96-11.45-10.27-2.43-4.31-3.3-9.09-2.67-14.32.64-5.22,2.64-10.01,5.97-14.37,3.33-4.35,7.82-7.79,13.43-10.33,5.62-2.54,11.99-3.81,19.15-3.81s13.31,1.23,18.28,3.7c4.96,2.47,8.55,5.77,10.78,9.89,2.21,4.13,3.02,8.63,2.43,13.5Zm-24.03-4.1c-.22-1.83-1.18-3.36-2.87-4.58-1.69-1.23-3.9-1.83-6.63-1.83s-5.08.6-7.08,1.83c-1.98,1.21-3.29,2.75-3.87,4.58h20.45Zm-39.34-21.55h-29.4l-19.88,16.92,2.09-16.92h-25.21l-6.65,54.16h25.21l1.57-12.82,6.39-5.19,12.05,18.01h28.08l-21.75-31.72,27.51-22.45Zm75.22-93.13c-.19,1.55-.91,2.85-2.14,3.91-1.24,1.08-2.7,1.61-4.41,1.61s-3.04-.54-4.05-1.61c-1.01-1.06-1.43-2.36-1.23-3.91h-17.92c-.43,3.53.18,6.8,1.84,9.78,1.66,2.99,4.19,5.34,7.58,7.08,3.41,1.74,7.43,2.6,12.07,2.6s8.77-.86,12.59-2.6c3.82-1.73,6.94-4.08,9.32-7.08,2.39-2.98,3.81-6.25,4.25-9.78h-17.92Zm3.15,25.76l-23.2,22.32h-.55l2.75-22.32h-25.21l-6.65,54.15h21.34l23.2-22.43h.55l-2.75,22.43h15.94c-2.07-4.15-2.84-8.67-2.24-13.46.48-3.85,3.73-6.74,7.62-6.74h6.26l4.16-33.94h-21.22Zm-61.52,12.7c-2.38-4.35-6.14-7.79-11.29-10.33-5.14-2.54-11.31-3.81-18.55-3.81-6.26,0-12.07.95-17.43,2.87-5.36,1.92-9.9,4.53-13.62,7.85l8.86,11.61c2.03-1.61,4.62-3.01,7.75-4.19,3.13-1.18,6.34-1.78,9.66-1.78,6.42,0,10.55,2.04,12.42,6.08h-21l-1.51,12.16h21c-1.26,1.86-3.05,3.32-5.4,4.44-2.35,1.09-5.18,1.66-8.49,1.66s-6.56-.62-9.5-1.83c-2.95-1.23-5.1-2.61-6.46-4.15l-11.7,11.61c2.92,3.24,6.8,5.82,11.65,7.74,4.85,1.91,10.44,2.87,16.78,2.87,7.29,0,13.8-1.28,19.54-3.82,5.73-2.53,10.3-5.96,13.74-10.27,3.44-4.31,5.48-9.09,6.13-14.32.64-5.22-.22-10.01-2.59-14.37Z"/>
  </g>
  <g>
    <path class="cls-2" d="m935.41,1806.63c16.92,13.43,36.96,23.71,58.94,24.35,10.78.31,21.91-1.75,31.52-6.78,4.67-2.45,8.76-5.89,11.49-10.44,2.64-4.4,4.04-9.48,4.83-14.52,1.62-10.45,1.22-22.18-4.89-31.24-2.85-4.23-7.11-7.81-12.43-7.97-5.04-.15-9.95,3-11,8.09-.55,2.69-.41,5.54-.33,8.26s.27,5.21.59,7.8c.65,5.28,1.73,10.5,3.62,15.49,3.65,9.63,9.89,18.09,18.82,23.42,8.93,5.33,19.42,6.56,29.23,3.01,5.21-1.88,10.04-4.62,14.79-7.43,4.78-2.82,9.43-5.85,13.8-9.29,15.85-12.49,24.64-31.45,27.2-51.18.62-4.76.92-9.62.73-14.42-.18-4.4-.91-9.21-3.55-12.87-3.05-4.23-7.86-6.05-12.96-5.13-4.86.88-9.01,4.3-11.37,8.54-2.56,4.59-3.35,9.9-3.63,15.08-.31,5.86.12,11.74,1.17,17.51,1,5.51,2.63,10.92,4.91,16.04,2.13,4.75,5.29,9.15,9.85,11.81,4.71,2.75,10.4,3.94,15.64,5.27,5.63,1.43,11.45,2.58,17.28,2.57,5.76-.02,11.34-1.33,16.47-3.97,4.53-2.33,8.66-5.54,12.39-8.98,14.31-13.2,22.47-31.54,28.71-49.63,1.51-4.38,2.92-8.8,4.29-13.23,1.22-3.93-4.94-5.61-6.15-1.7-5.18,16.69-10.85,33.58-20.92,48.03-4.78,6.86-10.79,13.26-17.87,17.86-3.97,2.58-8.34,4.5-13.08,5.02-5.14.57-10.31-.08-15.33-1.17-5-1.08-10.12-2.33-14.93-4.07-4.08-1.48-7.08-4.13-9.24-7.87-2.38-4.13-3.84-8.81-4.97-13.42-1.22-5-1.87-10.09-1.94-15.24-.07-4.66.14-9.42,1.61-13.86.59-1.8,1.47-3.61,2.73-5.03,1.19-1.34,2.76-2.45,4.29-2.97,1.73-.59,3.13-.7,4.72-.23,1.27.37,2.52,1.47,3.21,2.53,1.94,3.01,2.27,6.68,2.32,10.37.25,17.13-4.37,34.87-14.93,48.64-5.85,7.62-13.52,13.32-21.67,18.26-7.97,4.83-16.68,10.3-26.36,9.84-8.14-.38-15.92-4.92-21.45-11.02-6.11-6.74-9.3-15.7-10.76-24.58-.76-4.63-.99-9.36-.92-14.05.02-1.08,0-2.18.36-3.22.27-.8.44-1.01,1.13-1.57-.31.25.13-.08.17-.1.19-.12.39-.23.59-.34.04-.02.55-.24.18-.09.21-.08.44-.15.66-.21s.45-.12.68-.16c.05-.01.61-.07.19-.03.52-.05,1.05-.05,1.57,0,.38.04.09.02.02,0,.23.04.45.09.68.16.46.13.66.19,1.02.36.94.44,1.67.94,2.38,1.6,1.57,1.43,2.68,3.07,3.68,4.96,2.09,3.93,3.12,8.41,3.4,12.83.29,4.66-.08,9.38-1.01,13.95-.87,4.26-2.24,8.53-4.88,12.04-2.72,3.62-6.84,5.98-10.92,7.74-4.42,1.91-9.15,3.15-13.9,3.89-19.24,2.98-38.57-3.62-54.66-13.84-3.89-2.47-7.64-5.15-11.25-8.01-1.35-1.07-3.2-1.32-4.51,0-1.11,1.11-1.36,3.43,0,4.51h0Z"/>
    <line class="cls-5" x1="1483.95" y1="1469.34" x2="1561.69" y2="1585.04"/>
    <line class="cls-5" x1="1522.82" y1="1446.28" x2="1561.69" y2="1480.16"/>
    <line class="cls-5" x1="1503.67" y1="1385.59" x2="1609.03" y2="1446.39"/>
    <path class="cls-2" d="m1353.69,851.41c9.98,3.41,20.61,4.46,31.1,4.6,9,.12,18.34-.36,26.6-4.29,8.04-3.83,13.58-11.26,14.66-20.13.97-7.96-2.59-16.18-9.87-19.93-6.79-3.49-15.83-3.3-21.45,2.34-7.02,7.03-6.4,18.44-2.74,26.91,7.36,17.02,27.22,25.13,44.67,26.27,16.03,1.05,32.98-3.83,44.62-15.22,1.39-1.36,2.68-2.81,3.88-4.34,1.06-1.35,1.32-3.19,0-4.51-1.11-1.11-3.44-1.36-4.51,0-4.48,5.69-9.76,9.75-16.29,12.83-6,2.83-13.34,4.53-19.99,4.9-7.46.42-14.21-.38-21.28-2.58-7.8-2.43-15.31-6.42-20.71-12.66-4.94-5.71-8.03-13.87-6.24-21.2.43-1.76,1.09-3.43,2.15-4.84.47-.62,1.04-1.15,1.61-1.68.07-.06.47-.37.06-.06.16-.12.33-.23.49-.34.33-.22.68-.42,1.03-.61.18-.1.88-.42.7-.35-.16.07.7-.24.88-.3.33-.1.67-.19,1.01-.27.21-.05,1.21-.22.64-.15.75-.1,1.52-.13,2.28-.12.36,0,.72.02,1.07.05.2.02.41.04.61.06-.58-.07.11.03.22.05.76.16,1.51.33,2.25.57.34.11.68.24,1.02.37.49.19-.38-.18.09.04.23.11.47.22.7.34.64.33,1.26.7,1.85,1.11.17.12.34.24.5.36-.12-.09-.37-.33.08.08.3.28.61.54.9.83s.56.6.83.91c0,0,.32.41.13.16-.21-.28.16.24.2.3.5.76.95,1.54,1.31,2.37.15.34.04.1,0,.03.08.21.16.43.23.64.13.38.24.76.34,1.14.12.44.22.88.3,1.33.03.17.06.34.09.51-.07-.45.02.26.03.34.08.86.09,1.72.05,2.58-.02.4-.05.8-.09,1.21-.05.57.07-.38-.02.18-.04.29-.09.57-.15.86-.16.8-.36,1.59-.6,2.37-.3.94-.51,1.49-.84,2.17-1.54,3.22-3.63,5.7-6.61,7.68-6.48,4.3-14.43,5.16-22.09,5.31-9.14.17-18.43-.32-27.34-2.44-2.26-.54-4.49-1.18-6.69-1.94-1.63-.56-3.49.64-3.92,2.23-.48,1.75.59,3.36,2.23,3.92h0Z"/>
    <line class="cls-5" x1="589.51" y1="1807.2" x2="621.82" y2="1722.95"/>
    <line class="cls-5" x1="555.86" y1="1765.07" x2="581.44" y2="1722.95"/>
    <line class="cls-5" x1="555.86" y1="1562.89" x2="579.03" y2="1539.08"/>
    <line class="cls-5" x1="512.12" y1="1570.97" x2="555.86" y2="1527.22"/>
    <line class="cls-5" x1="470.39" y1="1116.01" x2="621.4" y2="1049.82"/>
    <line class="cls-5" x1="518.17" y1="1022.46" x2="613.65" y2="986.72"/>
    <line class="cls-5" x1="488" y1="986.61" x2="341.17" y2="1025.15"/>
    <line class="cls-5" x1="619.34" y1="952.14" x2="552.76" y2="969.62"/>
    <line class="cls-5" x1="341.17" y1="931.2" x2="427.99" y2="922.85"/>
    <line class="cls-5" x1="611.72" y1="208.11" x2="652.1" y2="289.68"/>
    <line class="cls-5" x1="652.1" y1="175.13" x2="693.16" y2="316.46"/>
    <line class="cls-5" x1="699.21" y1="208.11" x2="709.31" y2="289.68"/>
    <line class="cls-5" x1="1396.46" y1="136.09" x2="1360.79" y2="220.89"/>
    <line class="cls-5" x1="1378.63" y1="216.18" x2="1469.34" y2="91"/>
    <line class="cls-5" x1="1496.15" y1="485.39" x2="1542.51" y2="453.76"/>
    <line class="cls-5" x1="1478.57" y1="545.29" x2="1625.29" y2="438.28"/>
    <line class="cls-5" x1="1261.48" y1="825.94" x2="1392.42" y2="782.01"/>
    <path class="cls-2" d="m1337.88,1113.74c10.95-1.88,21.71-4.97,31.93-9.33,9.34-3.98,18.29-9.74,23.56-18.67,4.86-8.23,5.8-18.63.64-26.96-2.49-4.01-6.16-7.12-10.63-8.67-4.12-1.43-8.82-1.23-12.94.11-9.38,3.07-15.75,10.86-18.76,20.03-1.63,4.95-2.29,10.21-2.59,15.4-.3,5.33-.33,10.75.13,16.08s1.34,11.09,3.99,15.93c2.49,4.56,6.68,7.46,11.44,9.29,4.66,1.79,9.74,2.51,14.66,3.23,5.8.85,11.63,1.45,17.48,1.74,10.88.54,21.96.22,32.72-1.55,8.82-1.45,17.75-4.39,24.49-10.47,1.68-1.52,3.13-3.25,4.45-5.1,1-1.4.25-3.55-1.14-4.36-1.6-.94-3.36-.26-4.36,1.14-2.07,2.9-4.98,5.34-8.18,7.17-3.46,1.98-6.91,3.2-10.88,4.21-8.9,2.26-18.07,2.73-27.41,2.79-10.54.07-21.08-.81-31.45-2.7-4.02-.73-8.11-1.61-11.52-3.65-3.51-2.1-5.49-5.59-6.56-9.63-1.29-4.85-1.59-9.89-1.64-14.89-.05-4.77.02-9.57.62-14.3.53-4.24,1.57-8.62,3.47-12.49,1.74-3.55,4.12-6.62,7.17-8.79.73-.52,1.5-1,2.28-1.44s1.79-.92,2.3-1.12c.88-.33,1.77-.61,2.69-.83.45-.11.91-.2,1.37-.27-.14.02-.5.05.18-.02.29-.03.57-.05.86-.07,2.07-.12,3.21,0,5.12.62.92.3,1.22.43,2.13.95.83.47,1.55.99,2.04,1.42,2.74,2.4,4.38,5.38,5.21,8.92.43,1.82.54,3.45.37,5.57-.14,1.74-.67,3.82-1.35,5.65-3.02,8.15-10.39,13.96-18.04,17.87-8.8,4.5-18.54,7.45-28.16,9.61-2.44.55-4.9,1.03-7.37,1.45-1.7.29-2.65,2.38-2.23,3.92.49,1.8,2.22,2.52,3.92,2.23h0Z"/>
    <line class="cls-5" x1="1263.88" y1="858.42" x2="1315.87" y2="852.66"/>
  </g>
</svg>