<svg width="138" height="75" viewBox="0 0 138 75" fill="none" xmlns="http://www.w3.org/2000/svg">
<g clip-path="url(#clip0_71_43)">
<path d="M124.383 1.89956L8.71718 43.9985C7.62253 44.3969 6.73 45.2134 6.238 46.2724L3.5706 51.9841C3.07685 53.0469 3.02288 54.2627 3.42443 55.366L8.6396 69.6945C9.63997 72.443 12.6735 73.8628 15.4143 72.8652L128.847 31.5792C129.875 31.2048 130.728 30.4592 131.236 29.4882L134.054 24.113C134.632 23.0136 134.72 21.7197 134.294 20.5501L128.147 3.66105C127.591 2.13473 125.905 1.34558 124.383 1.89956ZM131.789 19.8021C132.567 21.9395 131.469 24.3025 129.338 25.0782L17.6534 65.728C15.8253 66.3934 13.8032 65.4447 13.137 63.6142L7.94091 49.3382C7.44073 47.964 8.14634 46.4452 9.51672 45.9464L124.51 4.09235C125.271 3.81536 126.113 4.20717 126.392 4.97309L131.789 19.8021Z" fill="black"/>
<path d="M126.392 4.97307L131.789 19.8021C132.567 21.9395 131.469 24.3024 129.338 25.0782L17.6534 65.728C15.8253 66.3933 13.8032 65.4447 13.137 63.6142L7.94092 49.3382C7.44074 47.9639 8.14635 46.4452 9.51672 45.9464L124.51 4.09232C125.271 3.81534 126.113 4.20714 126.392 4.97307Z" fill="#F05A23"/>
<path d="M19.5506 56.802L18.5139 57.1794L18.1912 54.989L16.672 55.5419L16.5302 54.5946L18.0384 54.0457L17.7912 52.4228L16.3353 52.9527L16.1935 52.0054L17.6494 51.4755L17.3157 49.2891L18.3525 48.9118L18.6861 51.0982L20.3322 50.499L19.9986 48.3127L21.0243 47.9393L21.3579 50.1257L22.8772 49.5727L23.019 50.52L21.5108 51.069L21.747 52.6959L23.2138 52.162L23.3557 53.1093L21.8998 53.6392L22.2334 55.8255L21.1967 56.2029L20.8631 54.0165L19.217 54.6156L19.5506 56.802ZM18.8269 52.0427L19.0741 53.6656L20.7202 53.0664L20.473 51.4436L18.8269 52.0427Z" fill="black"/>
<path d="M24.7269 49.1813L28.5623 47.7853L30.4061 52.8509L29.2232 53.2815L27.7891 49.3412L26.2477 49.9022L26.3786 50.2961C26.6987 51.2443 26.8809 52.0109 26.9218 52.6035C26.9626 53.1961 26.8927 53.6475 26.7102 53.9612C26.5268 54.2723 26.2444 54.5003 25.8612 54.6398C25.6792 54.706 25.4776 54.7355 25.2537 54.7294L24.8561 53.6372C25.0291 53.6149 25.1537 53.5883 25.231 53.5602C25.4322 53.487 25.5735 53.3604 25.652 53.1815C25.7306 53.0026 25.7345 52.7131 25.6676 52.3148C25.6006 51.9164 25.4472 51.3491 25.2039 50.6204L24.7289 49.1868L24.7269 49.1813Z" fill="black"/>
<path d="M32.7392 51.7199C32.2455 51.6334 31.8072 51.4329 31.4259 51.1145C31.0446 50.7961 30.7678 50.3958 30.5916 49.9119C30.4155 49.428 30.3703 48.9435 30.4577 48.4545C30.5452 47.9655 30.7493 47.5311 31.0746 47.1465C31.3971 46.7629 31.8043 46.4832 32.2923 46.3056C32.7804 46.128 33.2721 46.0805 33.7657 46.167C34.2593 46.2535 34.6977 46.4541 35.079 46.7725C35.4603 47.0909 35.7371 47.4911 35.9132 47.975C36.0893 48.4589 36.1346 48.9435 36.0471 49.4325C35.9597 49.9215 35.7556 50.3559 35.4303 50.7404C35.1077 51.124 34.7006 51.4037 34.2125 51.5813C33.7245 51.759 33.2328 51.8064 32.7392 51.7199ZM34.479 49.997C34.654 49.783 34.764 49.5362 34.8091 49.2568C34.8542 48.9774 34.824 48.6971 34.7193 48.4096C34.6146 48.122 34.4566 47.8852 34.2435 47.7028C34.0294 47.5177 33.7875 47.4022 33.5148 47.348C33.2432 47.2966 32.9709 47.3206 32.6979 47.4199C32.4249 47.5193 32.2009 47.676 32.0259 47.89C31.8509 48.104 31.7408 48.3507 31.6958 48.6301C31.6507 48.9096 31.6809 49.1898 31.7855 49.4774C31.8902 49.7649 32.0482 50.0018 32.2614 50.1841C32.4755 50.3692 32.7184 50.4875 32.99 50.5389C33.2617 50.5903 33.534 50.5664 33.807 50.467C34.0799 50.3677 34.3039 50.211 34.479 49.997Z" fill="black"/>
<path d="M39.1329 49.6746L37.95 50.1051L36.1063 45.0396L37.132 44.6662L39.5884 46.1645L39.6298 46.1495L40.5594 43.4188L41.5547 43.0565L43.3985 48.1221L42.2046 48.5566L41.0462 45.374L41.0159 45.3851L40.196 47.7909L38.0104 46.479L37.9773 46.491L39.1357 49.6736L39.1329 49.6746Z" fill="black"/>
<path d="M46.1348 41.5617C46.5253 41.6137 46.8656 41.7592 47.1507 41.9936C47.4397 42.2297 47.6487 42.5294 47.7815 42.8944L48.9479 46.0991L47.8174 46.5106L47.5608 45.8055L47.5498 45.8095C47.4826 46.0625 47.3387 46.3278 47.1124 46.5981C46.887 46.8712 46.5973 47.0705 46.2389 47.201C45.9108 47.3204 45.5916 47.3614 45.2868 47.3221C44.9794 47.2837 44.7127 47.1772 44.4857 46.9999C44.2598 46.8253 44.0996 46.6081 44.005 46.3482C43.85 45.9224 43.859 45.5183 44.0321 45.1359C44.2052 44.7535 44.5248 44.4305 44.9879 44.1586L46.5687 43.2513L46.5647 43.2402C46.4698 43.0055 46.2999 42.8387 46.052 42.7411C45.8051 42.6462 45.5405 42.6485 45.2593 42.7509C45.0001 42.8452 44.7934 42.9894 44.6326 43.1825C44.4719 43.3757 44.338 43.5998 44.2244 43.854L43.2494 43.4229C43.3814 43.0649 43.5819 42.732 43.8516 42.4178C44.1223 42.1063 44.4758 41.8681 44.917 41.7075C45.3582 41.5469 45.7423 41.5042 46.1328 41.5562L46.1348 41.5617ZM46.9239 45.4111C47.0774 45.0608 47.0837 44.6921 46.9408 44.2995L46.8794 44.1308L45.6503 44.8632C45.4338 44.9889 45.2837 45.1344 45.1954 45.2949C45.1071 45.4554 45.094 45.6168 45.1493 45.7689C45.2157 45.9513 45.34 46.0783 45.5249 46.1488C45.7098 46.2193 45.9205 46.2146 46.1576 46.1283C46.5133 45.9989 46.7693 45.7585 46.9229 45.4083L46.9239 45.4111Z" fill="black"/>
<path d="M51.2324 44.989C50.7388 44.9025 50.3004 44.7019 49.9191 44.3835C49.5378 44.0651 49.261 43.6648 49.0849 43.181C48.9087 42.6971 48.8635 42.2125 48.951 41.7235C49.0384 41.2345 49.2398 40.8011 49.5513 40.4216C49.8628 40.042 50.2534 39.7683 50.7221 39.5977C51.1909 39.4271 51.663 39.3774 52.1258 39.4563C52.5858 39.5363 52.9923 39.7265 53.349 40.0288C53.7057 40.3311 53.9682 40.7178 54.1393 41.1879C54.2057 41.3703 54.2536 41.5533 54.2822 41.7433L50.4688 43.1313C50.6332 43.4284 50.8945 43.6402 51.2583 43.7646C51.6193 43.89 51.9969 43.8809 52.3885 43.7384C52.9068 43.5497 53.2941 43.1896 53.5513 42.6607L54.5331 43.1707C54.4239 43.4798 54.2136 43.7943 53.9003 44.1087C53.588 44.4259 53.19 44.671 52.7103 44.8456C52.2305 45.0202 51.7305 45.0707 51.2369 44.9842L51.2324 44.989ZM52.7825 41.2778C52.5908 40.9655 52.347 40.7505 52.054 40.6317C51.7609 40.5129 51.4435 40.5157 51.1015 40.6402C50.7596 40.7646 50.486 40.9738 50.3231 41.2554C50.1602 41.537 50.0962 41.8672 50.13 42.2432L52.7797 41.2788L52.7825 41.2778Z" fill="black"/>
<path d="M57.3531 43.043L56.1703 43.4736L54.3265 38.408L55.3523 38.0346L57.8086 39.533L57.85 39.5179L58.7796 36.7872L59.775 36.4249L61.6187 41.4905L60.4248 41.925L59.2664 38.7425L59.2361 38.7535L58.4162 41.1593L56.2306 39.8474L56.2003 39.8584L57.3587 43.041L57.3531 43.043Z" fill="black"/>
<path d="M67.416 41.6757L62.963 43.2965L62.5956 42.2872L67.0487 40.6665L67.416 41.6757Z" fill="black"/>
<path d="M68.1953 38.815C67.7017 38.7285 67.2633 38.5279 66.882 38.2095C66.5007 37.8911 66.2239 37.4908 66.0478 37.007C65.8716 36.5231 65.8264 36.0385 65.9139 35.5495C66.0013 35.0605 66.2054 34.6261 66.5307 34.2415C66.8532 33.858 67.2604 33.5783 67.7484 33.4006C68.2365 33.223 68.6928 33.1728 69.1385 33.2391C69.5825 33.3093 69.9585 33.4417 70.2667 33.6364L69.7102 34.6468C69.177 34.3743 68.6631 34.3265 68.1751 34.5042C67.7504 34.6587 67.4481 34.9347 67.2698 35.3284C67.0914 35.7221 67.0827 36.1355 67.2407 36.5696C67.3987 37.0038 67.6711 37.3148 68.0608 37.5018C68.4505 37.6887 68.8567 37.7068 69.2841 37.5513C69.5626 37.4499 69.7969 37.2957 69.9805 37.088C70.1678 36.882 70.309 36.6522 70.4087 36.4029L71.4886 36.8303C71.3586 37.1939 71.1439 37.5476 70.8416 37.8925C70.5393 38.2374 70.1464 38.4962 69.6666 38.6708C69.1869 38.8455 68.6869 38.8959 68.1933 38.8094L68.1953 38.815Z" fill="black"/>
<path d="M75.0274 36.6101L73.8446 37.0406L72.4104 33.1004L70.734 33.7106L70.3244 32.5852L74.8712 30.9303L75.2808 32.0557L73.5933 32.6699L75.0274 36.6101Z" fill="black"/>
<path d="M78.4441 35.0847C77.9505 34.9982 77.5122 34.7976 77.1309 34.4792C76.7495 34.1608 76.4727 33.7606 76.2966 33.2767C76.1205 32.7928 76.0753 32.3082 76.1627 31.8192C76.2501 31.3302 76.4487 30.8978 76.763 30.5173C77.0745 30.1377 77.4651 29.864 77.9339 29.6934C78.4026 29.5228 78.8748 29.4731 79.3375 29.552C79.7975 29.632 80.204 29.8222 80.5607 30.1245C80.9174 30.4268 81.18 30.8135 81.351 31.2836C81.4175 31.4661 81.4653 31.649 81.4939 31.839L77.6805 33.227C77.8449 33.5241 78.1062 33.7359 78.47 33.8603C78.831 33.9857 79.2086 33.9766 79.6002 33.8341C80.1186 33.6454 80.5031 33.2863 80.763 32.7564L81.7449 33.2664C81.6356 33.5755 81.4254 33.89 81.112 34.2044C80.7987 34.5189 80.4018 34.7667 79.922 34.9413C79.4422 35.1159 78.9423 35.1664 78.4486 35.0799L78.4441 35.0847ZM79.9942 31.3735C79.8025 31.0612 79.5587 30.8462 79.2657 30.7274C78.9727 30.6086 78.6552 30.6114 78.3133 30.7359C77.9714 30.8603 77.6978 31.0695 77.5349 31.3511C77.3719 31.6327 77.3079 31.9629 77.3417 32.3389L79.9915 31.3745L79.9942 31.3735Z" fill="black"/>
<path d="M84.1824 35.7768L81.5356 28.5047L82.7184 28.0741L82.9781 28.7875L83.0001 28.7795C83.0505 28.5232 83.1944 28.2579 83.4335 27.9798C83.6727 27.7018 83.9872 27.4934 84.3787 27.3509C84.7978 27.1983 85.2278 27.1702 85.6716 27.2654C86.1153 27.3607 86.514 27.5726 86.874 27.8925C87.2313 28.2133 87.5038 28.6277 87.687 29.1309C87.8702 29.6342 87.9277 30.1268 87.8603 30.6022C87.7929 31.0777 87.6209 31.4973 87.3422 31.8555C87.0663 32.2127 86.716 32.4685 86.2969 32.6211C85.9054 32.7636 85.5305 32.8061 85.1686 32.7468C84.8066 32.6875 84.5259 32.5768 84.3226 32.4128L84.3005 32.4208L85.3633 35.3407L84.1804 35.7713L84.1824 35.7768ZM86.262 31.1526C86.4316 30.9406 86.5361 30.6959 86.5811 30.4165C86.6262 30.137 86.596 29.8568 86.4913 29.5692C86.3867 29.2817 86.2287 29.0448 86.0155 28.8625C85.8014 28.6774 85.5623 28.5609 85.2979 28.5037C85.0318 28.4503 84.7705 28.4702 84.5141 28.5635C84.2576 28.6569 84.0419 28.8105 83.8751 29.0215C83.7056 29.2335 83.6011 29.4783 83.556 29.7577C83.511 30.0371 83.5412 30.3174 83.6458 30.6049C83.7505 30.8925 83.9085 31.1293 84.1216 31.3117C84.3358 31.4968 84.5731 31.617 84.8393 31.6705C85.1054 31.7239 85.3667 31.704 85.6231 31.6106C85.8795 31.5173 86.0953 31.3636 86.262 31.1526Z" fill="black"/>
<path d="M90.6286 30.6499C90.135 30.5634 89.6967 30.3628 89.3154 30.0445C88.934 29.7261 88.6572 29.3258 88.4811 28.8419C88.305 28.358 88.2598 27.8735 88.3472 27.3845C88.4346 26.8955 88.636 26.4621 88.9475 26.0825C89.259 25.703 89.6496 25.4293 90.1184 25.2587C90.5871 25.0881 91.0593 25.0383 91.522 25.1173C91.982 25.1972 92.3885 25.3875 92.7452 25.6898C93.1019 25.9921 93.3645 26.3787 93.5356 26.8488C93.602 27.0313 93.6498 27.2143 93.6784 27.4043L89.8651 28.7922C90.0294 29.0894 90.2907 29.3012 90.6545 29.4255C91.0155 29.5509 91.3932 29.5418 91.7847 29.3993C92.3031 29.2107 92.6903 28.8505 92.9475 28.3216L93.9294 28.8317C93.8202 29.1407 93.6099 29.4552 93.2965 29.7697C92.9842 30.0869 92.5863 30.3319 92.1065 30.5066C91.6267 30.6812 91.1268 30.7316 90.6331 30.6451L90.6286 30.6499ZM92.1787 26.9387C91.987 26.6265 91.7433 26.4114 91.4502 26.2926C91.1572 26.1738 90.8397 26.1767 90.4978 26.3011C90.1559 26.4255 89.8823 26.6347 89.7194 26.9163C89.5565 27.198 89.4924 27.5282 89.5262 27.9041L92.176 26.9397L92.1787 26.9387Z" fill="black"/>
<path d="M96.4741 28.5223C95.9805 28.4358 95.5422 28.2352 95.1609 27.9168C94.7796 27.5984 94.5027 27.1982 94.3266 26.7143C94.1505 26.2304 94.1053 25.7458 94.1927 25.2568C94.2802 24.7678 94.4843 24.3334 94.8096 23.9489C95.1321 23.5653 95.5393 23.2856 96.0273 23.108C96.5153 22.9303 97.0071 22.8829 97.5007 22.9694C97.9943 23.0559 98.4326 23.2565 98.814 23.5748C99.1953 23.8932 99.4721 24.2935 99.6482 24.7774C99.8243 25.2613 99.8695 25.7458 99.7821 26.2348C99.6947 26.7238 99.4906 27.1582 99.1653 27.5428C98.8427 27.9264 98.4356 28.2061 97.9475 28.3837C97.4595 28.5613 96.9678 28.6088 96.4741 28.5223ZM98.2139 26.7993C98.389 26.5853 98.499 26.3386 98.5441 26.0592C98.5891 25.7797 98.559 25.4995 98.4543 25.2119C98.3496 24.9244 98.1916 24.6875 97.9785 24.5052C97.7644 24.3201 97.5225 24.2046 97.2498 24.1504C96.9782 24.099 96.7059 24.1229 96.4329 24.2223C96.1599 24.3216 95.9359 24.4783 95.7609 24.6923C95.5858 24.9064 95.4758 25.1531 95.4307 25.4325C95.3857 25.7119 95.4159 25.9922 95.5205 26.2797C95.6252 26.5673 95.7832 26.8041 95.9963 26.9865C96.2105 27.1716 96.4534 27.2898 96.725 27.3413C96.9967 27.3927 97.269 27.3687 97.5419 27.2694C97.8149 27.17 98.0389 27.0134 98.2139 26.7993Z" fill="black"/>
<path d="M103.938 26.0876L102.755 26.5182L101.321 22.5779L99.6443 23.1881L99.2347 22.0627L103.781 20.4078L104.191 21.5332L102.504 22.1474L103.938 26.0876Z" fill="black"/>
<path d="M107.594 24.7569L106.546 25.1382L104.702 20.0726L105.877 19.6451L107.032 22.8194L107.063 22.8084L108.359 18.7419L109.417 18.3565L111.261 23.4221L110.078 23.8526L108.923 20.6784L108.893 20.6894L107.597 24.7559L107.594 24.7569Z" fill="black"/>
<path d="M113.87 22.4728L112.687 22.9033L110.843 17.8377L115.505 16.1407L117.349 21.2063L116.155 21.6408L114.721 17.7006L112.435 18.5326L113.87 22.4728Z" fill="black"/>
<path d="M118.772 20.6884L116.928 15.6228L118.111 15.1922L118.677 16.7462L119.661 16.3879C120.058 16.2434 120.433 16.1916 120.786 16.2353C121.138 16.2762 121.443 16.4031 121.7 16.6103C121.956 16.8176 122.149 17.0889 122.272 17.4262C122.394 17.7635 122.424 18.094 122.358 18.4187C122.295 18.7423 122.142 19.0358 121.899 19.2935C121.655 19.5512 121.336 19.755 120.939 19.8996L118.769 20.6894L118.772 20.6884ZM120.523 18.886C120.783 18.7917 120.96 18.6521 121.055 18.4671C121.15 18.2822 121.158 18.0819 121.079 17.8635C120.999 17.6451 120.864 17.497 120.672 17.4164C120.481 17.3359 120.255 17.3428 119.996 17.4371L119.053 17.7803L119.58 19.2292L120.523 18.886ZM124.797 18.4956L123.614 18.9261L121.77 13.8605L122.953 13.43L124.797 18.4956Z" fill="black"/>
</g>
<defs>
<clipPath id="clip0_71_43">
<rect width="134.885" height="29.4164" fill="white" transform="translate(0.390137 47.0293) rotate(-20)"/>
</clipPath>
</defs>
</svg>
